<svg version="1.2" xmlns="http://www.w3.org/2000/svg" viewBox="0 0 790 799" width="790" height="799"><defs><linearGradient id="P" gradientUnits="userSpaceOnUse"/><linearGradient id="g1" x2="1" href="#P" gradientTransform="matrix(389.723,0,0,251.263,.112,484.252)"><stop stop-color="#26c9f9"/><stop offset="1" stop-color="#97ffff"/></linearGradient><linearGradient id="g2" x2="1" href="#P" gradientTransform="matrix(338.152,0,0,251.263,.112,489.675)"><stop stop-color="#079baa"/><stop offset="1" stop-color="#30cec6"/></linearGradient><linearGradient id="g3" x2="1" href="#P" gradientTransform="matrix(780.016,0,0,450.304,.112,226.694)"><stop stop-color="#26c9f9"/><stop offset="1" stop-color="#97ffff"/></linearGradient><linearGradient id="g4" x2="1" href="#P" gradientTransform="matrix(258.023,446.91,-4490.488,2592.584,584.988,263.487)"><stop stop-color="#26c9f9"/><stop offset="1" stop-color="#97ffff"/></linearGradient><linearGradient id="g5" x2="1" href="#P" gradientTransform="matrix(34.039,58.957,-43.514,25.123,857.943,364.629)"><stop stop-color="#177bc6"/><stop offset="1" stop-color="#9b57dd"/></linearGradient><linearGradient id="g6" x2="1" href="#P" gradientTransform="matrix(34.039,58.957,-43.514,25.123,808.191,393.337)"><stop stop-color="#177bc6"/><stop offset="1" stop-color="#9b57dd"/></linearGradient><linearGradient id="g7" x2="1" href="#P" gradientTransform="matrix(43.781,75.831,-86.773,50.098,795.382,389.49)"><stop stop-color="#177bc6"/><stop offset="1" stop-color="#9b57dd"/></linearGradient><linearGradient id="g8" x2="1" href="#P" gradientTransform="matrix(34.039,58.957,-43.514,25.123,510.883,564.846)"><stop stop-color="#177bc6"/><stop offset="1" stop-color="#9b57dd"/></linearGradient><linearGradient id="g9" x2="1" href="#P" gradientTransform="matrix(34.039,58.957,-43.514,25.123,461.131,593.554)"><stop stop-color="#177bc6"/><stop offset="1" stop-color="#9b57dd"/></linearGradient><linearGradient id="g10" x2="1" href="#P" gradientTransform="matrix(43.781,75.831,-86.772,50.098,448.321,589.708)"><stop stop-color="#177bc6"/><stop offset="1" stop-color="#9b57dd"/></linearGradient><linearGradient id="g11" x2="1" href="#P" gradientTransform="matrix(410.049,0,0,463.861,54.397,.712)"><stop stop-color="#196baf"/><stop offset="1" stop-color="#14bbe2"/></linearGradient><linearGradient id="g12" x2="1" href="#P" gradientTransform="matrix(642.639,0,0,363.263,74.872,272.18)"><stop stop-color="#196baf"/><stop offset="1" stop-color="#14bbe2"/></linearGradient><linearGradient id="g13" x2="1" href="#P" gradientTransform="matrix(642.642,0,0,375.092,74.876,250.842)"><stop stop-color="#4999e8"/><stop offset="1" stop-color="#26c9f9"/></linearGradient><linearGradient id="g14" x2="1" href="#P" gradientTransform="matrix(408.42,0,0,462.185,61.903,5.084)"><stop stop-color="#4999e8"/><stop offset="1" stop-color="#26c9f9"/></linearGradient><linearGradient id="g15" x2="1" href="#P" gradientTransform="matrix(378.617,0,0,438.399,79.154,18.384)"><stop stop-color="#e1f1ff"/><stop offset="1" stop-color="#9cecff"/></linearGradient><linearGradient id="g16" x2="1" href="#P" gradientTransform="matrix(201.571,0,0,117.495,380.138,425.069)"><stop stop-color="#4999e8"/><stop offset="1" stop-color="#26c9f9"/></linearGradient><linearGradient id="g17" x2="1" href="#P" gradientTransform="matrix(0,-101.737,42.728,0,192.986,482.001)"><stop stop-color="#177bc6"/><stop offset="1" stop-color="#9b57dd"/></linearGradient><linearGradient id="g18" x2="1" href="#P" gradientTransform="matrix(0,-78.731,2.88,0,-739.31,482.001)"><stop stop-color="#1476b2"/><stop offset="1" stop-color="#6930aa"/></linearGradient><linearGradient id="g19" x2="1" href="#P" gradientTransform="matrix(284.852,0,0,164.459,258.932,253.346)"><stop stop-color="#ffa943"/><stop offset="1" stop-color="#f7c954"/></linearGradient><linearGradient id="g20" x2="1" href="#P" gradientTransform="matrix(99.698,0,0,65.235,258.932,360.245)"><stop stop-color="#d68329"/><stop offset="1" stop-color="#f7c954"/></linearGradient><linearGradient id="g21" x2="1" href="#P" gradientTransform="matrix(185.154,0,0,114.573,358.631,310.907)"><stop stop-color="#d68329"/><stop offset="1" stop-color="#f7c954"/></linearGradient><linearGradient id="g22" x2="1" href="#P" gradientTransform="matrix(112.288,0,0,64.836,422.576,390.307)"><stop stop-color="#ffa943"/><stop offset="1" stop-color="#f7c954"/></linearGradient><linearGradient id="g23" x2="1" href="#P" gradientTransform="matrix(56.139,0,0,37.399,422.576,422.731)"><stop stop-color="#d68329"/><stop offset="1" stop-color="#f7c954"/></linearGradient><linearGradient id="g24" x2="1" href="#P" gradientTransform="matrix(47.494,0,0,29.92,487.37,425.212)"><stop stop-color="#ffa943"/><stop offset="1" stop-color="#f7c954"/></linearGradient><linearGradient id="g25" x2="1" href="#P" gradientTransform="matrix(47.512,0,0,32.41,487.352,427.705)"><stop stop-color="#d68329"/><stop offset="1" stop-color="#f7c954"/></linearGradient><linearGradient id="g26" x2="1" href="#P" gradientTransform="matrix(56.148,0,0,87.275,478.715,332.952)"><stop stop-color="#d68329"/><stop offset="1" stop-color="#f7c954"/></linearGradient><linearGradient id="g27" x2="1" href="#P" gradientTransform="matrix(0,-57.344,4.318,0,95.814,420.227)"><stop stop-color="#d68329"/><stop offset="1" stop-color="#f7c954"/></linearGradient><linearGradient id="g28" x2="1" href="#P" gradientTransform="matrix(60.467,0,0,34.917,474.397,330.459)"><stop stop-color="#ffa943"/><stop offset="1" stop-color="#f7c954"/></linearGradient></defs><style>.a{opacity:.3;mix-blend-mode:multiply;fill:#3b479b}.b{fill:url(#g1)}.c{fill:#bdfffd}.d{fill:#ced2d6}.e{fill:url(#g2)}.f{fill:url(#g3)}.g{fill:url(#g4)}.h{fill:url(#g5)}.i{fill:url(#g6)}.j{fill:url(#g7)}.k{fill:url(#g8)}.l{fill:url(#g9)}.m{fill:url(#g10)}.n{fill:#fff}.o{fill:url(#g11)}.p{fill:url(#g12)}.q{fill:url(#g13)}.r{fill:url(#g14)}.s{fill:url(#g15)}.t{fill:#2479b2}.u{fill:#296bb2}.v{fill:url(#g16)}.w{fill:#7d7d7d}.x{fill:#4f4f4f}.y{fill:#6e6e6e}.z{fill:#dedede}.A{fill:#b3b3b3}.B{fill:#c2c2c2}.C{fill:url(#g17)}.D{fill:url(#g18)}.E{fill:#ababab}.F{fill:url(#g19)}.G{fill:url(#g20)}.H{fill:url(#g21)}.I{fill:#7f4b28}.J{fill:#af6b38}.K{fill:none;stroke:#f4973b;stroke-linecap:round;stroke-miterlimit:10;stroke-width:.5}.L{fill:#bababa}.M{fill:#cecece}.N{fill:#dbdbdb}.O{fill:#c7c7c7}.P{fill:url(#g22)}.Q{fill:url(#g23)}.R{fill:#c9c9c9}.S{fill:url(#g24)}.T{fill:url(#g25)}.U{fill:#fecfae}.V{fill:#443f4c}.W{fill:#775da8}.X{fill:#8d6fbc}.Y{fill:#dc8ae2}.Z{fill:#f6befc}.a0{fill:url(#g26)}.a1{fill:url(#g27)}.a2{fill:url(#g28)}.a3{fill:#a86c43}.a4{fill:#ffbbd0}.a5{fill:#fc6090}</style><path class="a" d="m780.1 535.4l-455.8 263-324.2-187.3 455.9-263z"/><path class="b" d="m324.3 735.5l-324.2-187.3 110.8-63.9 278.9 213.5z"/><path class="c" d="m325.1 730.1l-313.2-180.9c0 0 4.3-27 0-55.6l315.7 181.6c0 0 19.9 44.4-0.9 56.4z"/><path class="d" d=""/><path class="e" d="m0.1 548.2l320.7 185.2c18.5-13.6 0-53.5 0-53.5l-320.7-185.4v-4.8l328.9 184.5c0 0 23.7 50.3-4.7 66.7l-324.2-187.3z"/><path class="f" d="m780.1 414l-455.8 263-324.2-187.3 455.9-263z"/><path class="g" d="m324.3 740.9c22.4-17.2 0-63.9 0-63.9l455.8-263c0 0 22.5 46.7 0 64z"/><path class="h" d="m752.2 494.1c22.4-17.2 0-63.9 0-63.9l7.7-4.5c0 0 22.4 46.7 0 63.9z"/><path class="i" d="m702.4 522.8c22.5-17.2 0-63.9 0-63.9l7.7-4.5c0 0 22.5 46.7 0 64z"/><path class="j" d="m717.5 514.1c22.5-17.3 0-64 0-64l27.2-15.7c0 0 22.5 46.8 0 64z"/><path class="k" d="m405.1 694.3c22.5-17.2 0-63.9 0-63.9l7.7-4.5c0 0 22.5 46.7 0 64z"/><path class="l" d="m355.3 723c22.5-17.2 0-63.9 0-63.9l7.7-4.5c0 0 22.5 46.7 0 64z"/><path class="m" d="m370.4 714.3c22.5-17.2 0-63.9 0-63.9l27.3-15.7c0 0 22.4 46.7 0 63.9z"/><path class="n" d="m486.3 603.2c-4.3 2.6-10.1 5.9-14.5 8.4 2 11.8 2.8 20.8 2.6 31.2 4.4-2.6 10.3-6 14.8-8.6 0-1.9 0-4.4 0-6.2l-10.6 6.1c-0.2-5.3-0.2-5.4-0.4-8.5l8-4.7c-0.2-1.6-0.4-3.9-0.6-5.5l-7.9 4.6c-0.3-1.9-0.6-4.3-0.8-6.2l10.2-5.9c-0.2-1.4-0.5-3.3-0.8-4.7z"/><path fill-rule="evenodd" class="n" d="m509.7 592.6c5.8 1.8 6.8 12.9 3.7 21.3-2.8 7.9-5.1 9.2-17.4 16.4 0.2-10.4-0.5-19.4-2.5-31.2l8.4-4.9c3-1.7 5.6-2.2 7.8-1.6zm-5.2 27c1.1-0.7 4.1-2.5 5.5-8 1.2-4.5 0.7-11-1.8-13.3-2-1.9-3.4-1.1-9.9 2.7 1.5 10.3 1.7 15.5 1.9 21.1z"/><path class="n" d="m538.5 573l-4.1 2.4c2.9 17 2.1 20.5 1.8 22.2-1.3 5.9-6.3 8.3-8.1 6.9-1-0.8-1.7-2.3-2.2-8-0.6-5.7-0.9-8.8-2-15l-4.1 2.4c1.1 6.8 1.4 13.6 2.6 20.4 0.6 3.5 1.7 5.1 2 5.5 4 5.1 11-2.3 12.2-4 2.1-2.9 4.6-8.1 4.1-16.3-0.6-6.5-1-9.7-2.2-16.5z"/><path class="n" d="m556.8 561.9c-14.3 8.5-11 31.6-3.6 33.7 2.7 0.7 7.3-0.7 12.1-6.8-0.1-1.8-0.3-4.1-0.5-5.8-5.2 6.6-11.8 10.2-13.1-1.6-1.4-11.8 5.3-16.3 11.5-16.5-0.1-1.5-0.2-3.5-0.3-4.9-0.9 0-2.9 0-6.1 1.9z"/><path fill-rule="evenodd" class="n" d="m589.6 576l-4 2.4c-0.6-2.4-0.6-2.5-1.9-7.2l-8.3 4.8c-0.5 3.2-0.5 3.2-1.8 9.3l-4 2.3c2.6-12.1 3.6-20 5.5-35.8l3.9-2.2c6.7 10.9 9.3 21.4 10.6 26.4zm-7.5-9.4c-1.4-4-2.8-7-4-9.4-0.7 5.8-1 8.1-1.7 12.7z"/><path class="n" d="m606.1 533.9c-5 2.9-11.8 6.8-16.9 9.8 0.2 1.4 0.5 3.2 0.7 4.6l6.5-3.7c1.6 11.5 1.8 17.7 1.7 26.5l4.2-2.4c0.1-8.9-0.2-15.1-1.8-26.5l6.4-3.7c-0.2-1.4-0.5-3.3-0.8-4.6z"/><path class="n" d="m616.5 527.9l-4.1 2.4c2 11.7 2.7 20.7 2.5 31.1l4.1-2.4c0.1-8 0-17-2.5-31.1z"/><path fill-rule="evenodd" class="n" d="m645.9 518.8c6.3 11.2-4 34.2-14.2 31.6-7.6-2-11.2-25.1 2.8-33.5 4.9-2.8 9.1-2.1 11.4 1.9zm-3.9 4.1c-2.8-5.2-9.9-1.2-11.8 5.1-1.3 4.4-1.2 19.5 6.9 15 7-4 7.4-15.6 4.9-20.1z"/><path class="n" d="m670.5 496.6l-4.2 2.4c0.8 4.7 1.7 10 2.3 19-2.8-3.9-6-8.3-12-13.4l-4 2.4c2 11.7 2.7 20.7 2.5 31.1l4.1-2.4c0.1-5.8 0.2-11.4-1.2-22.6 4.6 5.3 7.3 8.9 11.6 16.6l3.4-1.9c0.1-8 0-17-2.5-31.2z"/><path class="o" d="m464.4 6.5l-6.9-4q-0.4-0.2-0.8-0.5l-0.2-0.1c-3.2-1.6-7.2-1.7-10.8 0.3l-372.7 215.2c-11.5 6.7-18.6 19-18.6 32.3v194.2c0 6.9 3.5 12.5 8.6 15.8v0.1l0.5 0.2q0.4 0.3 0.8 0.5l6.9 4.1 3.7-9-3-1.7 360.6-208.2c11.9-6.8 19.3-19.6 19.3-33.4v-198.9l12.1-1.2z"/><path class="p" d="m717.5 404.4v-8.8l-12.1 2.3v4.5l-217.3-125.5c-11-6.3-24.6-6.3-35.5 0l-369.9 213.6c-0.7-3-1.2-5.8-1.3-5.8-0.1-0.2-6.5-3.2-6.5-3.2v9.3-0.1c0 4.4 2.2 8.7 6.5 11.2l223.4 129c10.5 6.1 23.5 6.1 34 0l372.4-215c4.4-2.5 6.5-7.1 6.3-11.5z"/><path class="q" d="m81.4 469.9l371.2-214.3c10.9-6.3 24.5-6.3 35.5 0l223.1 128.8c8.4 4.9 8.4 17.1 0 22l-372.4 215c-10.5 6.1-23.5 6.1-34 0l-223.4-129c-8.7-5-8.7-17.5 0-22.5z"/><path class="r" d="m61.9 448.3v-194.3c0-13.3 7.1-25.5 18.6-32.2l372.7-215.2c7.6-4.4 17.1 1.1 17.1 9.9v206.6c0 13.8-7.3 26.5-19.3 33.4l-360.6 208.2c-12.7 7.3-28.5-1.8-28.5-16.4z"/><path class="s" d="m79.2 456.8v-219.3l378.6-219.1v219.3z"/><path class="t" d="m176.2 467.4l-22 12.8-12.4-7.1 22-12.8z"/><path class="t" d="m211.3 482.7l-26.2 15.3-23.5-13.5 26.2-15.3z"/><path class="t" d="m244.1 463.7l-26.2 15.2-23.6-13.5 26.2-15.2z"/><path class="t" d="m276.8 444.6l-26.2 15.2-23.5-13.4 26.2-15.3z"/><path class="t" d="m309.6 425.5l-26.2 15.3-23.6-13.5 26.2-15.2z"/><path class="t" d="m342.3 406.5l-26.2 15.2-23.5-13.5 26.2-15.2z"/><path class="t" d="m375.1 387.4l-26.2 15.2-23.5-13.4 26.1-15.3z"/><path class="t" d="m407.8 368.3l-26.1 15.3-23.6-13.5 26.2-15.2z"/><path class="t" d="m440.6 349.3l-26.2 15.2-23.5-13.5 26.2-15.2z"/><path class="t" d="m325.1 487.9l-26.1 15.3-23.6-13.5 26.2-15.3z"/><path class="t" d="m357.9 468.9l-26.2 15.2-23.5-13.5 26.2-15.2z"/><path class="t" d="m390.7 449.8l-26.2 15.2-23.6-13.4 26.2-15.3z"/><path class="t" d="m423.4 430.7l-26.2 15.3-23.5-13.5 26.2-15.2z"/><path class="t" d="m456.2 411.7l-26.2 15.2-23.6-13.5 26.2-15.2z"/><path class="t" d="m502 385l-39.3 22.8-23.5-13.4 39.3-22.9z"/><path class="t" d="m473.2 330.3l-25.9 15.1-23.5-13.5 25.8-15.1z"/><path class="t" d="m506.6 310.9l-25.8 15-23.6-13.5 25.9-15z"/><path class="t" d="m242.2 500.4l-26.1 15.3-23.6-13.5 26.2-15.2z"/><path class="t" d="m275 481.4l-26.2 15.2-23.5-13.5 26.2-15.2z"/><path class="t" d="m304.1 535.9l-26.1 15.2-23.6-13.5 26.2-15.2z"/><path class="t" d="m336.9 516.8l-26.2 15.2-23.5-13.4 26.2-15.3z"/><path class="t" d="m533 402.7l-188.9 109.9-23.6-13.4 189-110z"/><path class="t" d="m307.8 462.3l-26.2 15.3-23.6-13.5 26.2-15.3z"/><path class="t" d="m340.5 443.2l-26.2 15.3-23.5-13.5 26.2-15.2z"/><path class="t" d="m373.3 424.2l-26.2 15.2-23.6-13.5 26.2-15.2z"/><path class="t" d="m406 405.1l-26.2 15.3-23.5-13.5 26.2-15.3z"/><path class="t" d="m438.8 386.1l-26.2 15.2-23.5-13.5 26.2-15.2z"/><path class="t" d="m471.5 367l-26.1 15.2-23.6-13.4 26.2-15.3z"/><path class="t" d="m537.2 328.8l-58.9 34.3-23.5-13.5 58.9-34.3z"/><path class="t" d="m568.2 346.5l-62.1 36.1-23.6-13.4 62.1-36.2z"/><path class="t" d="m599.1 364.2l-62.1 36.1-11.7-6.7 62-36.1z"/><path class="t" d="m578.6 376.2l-21 12.2-23.6-13.5 21-12.2z"/><path class="t" d="m292.9 506.7l-45.9 26.7-23.5-13.5 45.8-26.7z"/><path class="t" d="m206.1 450l-22 12.8-12.4-7.1 22-12.8z"/><path class="t" d="m236 432.6l-22 12.8-12.4-7.1 22-12.8z"/><path class="t" d="m265.9 415.2l-22 12.8-12.4-7.1 22-12.8z"/><path class="t" d="m295.8 397.8l-22 12.8-12.4-7.1 22-12.8z"/><path class="t" d="m325.8 380.4l-22.1 12.8-12.4-7.1 22.1-12.8z"/><path class="t" d="m355.7 363l-22.1 12.8-12.4-7.1 22.1-12.8z"/><path class="t" d="m385.6 345.6l-22.1 12.8-12.4-7.1 22.1-12.8z"/><path class="t" d="m415.5 328.2l-22 12.8-12.5-7.1 22.1-12.8z"/><path class="t" d="m445.4 310.8l-22 12.8-12.4-7.1 22-12.8z"/><path class="t" d="m475.3 293.3l-22 12.9-12.4-7.1 22-12.9z"/><path class="u" d="m262.1 127c-1 1.7-2.7 2.6-3.9 1.9-1.1-0.6-1.1-2.6-0.1-4.3 1-1.8 2.8-2.6 3.9-2 1.1 0.7 1.2 2.6 0.1 4.4z"/><path class="v" d="m382.4 501l128.7-74.3c3.8-2.2 8.5-2.2 12.3 0l56.1 32.1c2.9 1.7 2.9 6 0 7.7l-129.1 74.5c-3.6 2.1-8.1 2.1-11.8 0l-56.2-32.2c-3-1.7-3-6.1 0-7.8z"/><path class="w" d="m264.3 442.1l5.3-3 6.4 3.7-5.3 3z"/><path class="x" d="m264.3 442.1v3.5l6.4 3.7v-3.5z"/><path class="y" d="m270.7 445.8l5.3-3v3.5l-5.3 3z"/><path class="z" d="m271.4 445.8l4.3-2.4 85.7 49.4-4.3 2.5z"/><path class="A" d="m271.4 445.8v2.9l85.7 49.4v-2.8z"/><path class="B" d="m357.1 495.3l4.3-2.5v2.9l-4.3 2.4z"/><path class="w" d="m352.2 492.8l5.3-3 6.5 3.7-5.3 3z"/><path class="x" d="m352.2 492.8v3.5l6.5 3.7v-3.5z"/><path class="y" d="m358.7 496.5l5.3-3v3.5l-5.3 3z"/><path class="C" d="m292.7 380.3l42.8 24.6v77.1l-42.8-24.7z"/><path class="z" d="m292.7 380.3l2.9-1.7 42.7 24.7-2.8 1.6z"/><path class="D" d="m338.3 403.3v77l-2.8 1.7v-77.1z"/><path class="w" d="m442.4 339.3l5.3-3.1 6.5 3.7-5.3 3.1z"/><path class="x" d="m442.4 339.3v3.5l6.5 3.7v-3.5z"/><path class="y" d="m448.9 343l5.3-3.1v3.5l-5.3 3.1z"/><path class="z" d="m449.6 343l4.3-2.5 85.7 49.5-4.3 2.4z"/><path class="A" d="m449.6 343v2.9l85.7 49.4v-2.9z"/><path class="B" d="m535.3 392.4l4.3-2.4v2.8l-4.3 2.5z"/><path class="w" d="m530.4 390l5.3-3.1 6.4 3.7-5.3 3.1z"/><path class="x" d="m530.4 390v3.5l6.4 3.7v-3.5z"/><path class="y" d="m536.8 393.7l5.3-3.1v3.5l-5.3 3.1z"/><path class="E" d="m470.9 277.4l42.7 24.7v77.1l-42.7-24.7z"/><path class="z" d="m470.9 277.4l2.9-1.6 42.7 24.6-2.9 1.7z"/><path class="B" d="m516.5 300.4v77.1l-2.9 1.7v-77.1z"/><path class="F" d="m258.9 360.2l185.2-106.9 99.7 57.6-185.2 106.9z"/><path class="G" d="m258.9 360.2v7.7l99.7 57.6v-7.7z"/><path class="H" d="m358.6 417.8l185.2-106.9v7.7l-185.2 106.9z"/><path class="I" d="m452.8 315.8h-0.1l-35.2-19.8-49.8 28.7-7.2-1.1v1l41.8 24.1 27-15.6c0 0 4.7 0.2 6.4-3.6l23.5-13.6v-1.1z"/><path class="J" d="m360.5 323.6l41.8 24.1 27-15.6c0 0 3.8-0.4 6.4-3.6l23.5-13.7-41.7-24z"/><path class="K" d=""/><path class="L" d="m453.6 312.6l-1.5 0.5 0.1 0.2-35.2-20.3-22.9 13.2 37.1 20.6c0 0 1.2-1.4 3.5 0.9l22.5-13v-2.1z"/><path class="M" d="m431.1 326.7c1.4-8.3 20.5-10.2 26.1-14.1l-41.5-23.7c-6.2 5.8-25.7 7.8-26.4 14.6z"/><path class="L" d="m429.7 326.1l-8.6-0.8-1.5 1.1-30.3-17.4-22.8 13.2 0.1-1-3.3-0.7-1.3 0.1v2.8l40.2 23.2 26.4-15.4c0.9-4.5 2.6-4.4 2.6-4.4z"/><path class="N" d="m431.2 326.8c-9.6-3.8-18.6 12.7-29 17l-40.2-23.2c0 0 17.9-21.9 27.3-17.1z"/><path class="O" d="m369 320.6l-1.2-0.5c2.2-0.7 5.8-3.6 8.9-6.4 4.3-3.9 7.6-7.4 12.7-8.9l1 0.5c-4.9 1.5-8.8 5.3-13 9.1-3.4 3-5.9 5.5-8.4 6.2z"/><path class="O" d="m373.9 323.1l-1.2-0.5c2.2-0.7 5.8-3.6 8.9-6.4 4.3-3.9 7.6-7.4 12.7-8.9l1 0.5c-4.9 1.5-8.8 5.3-13 9.1-3.3 3-5.9 5.5-8.4 6.2z"/><path class="O" d="m378.8 325.6l-1.2-0.5c2.3-0.7 5.8-3.6 9-6.4 4.2-3.9 7.5-7.4 12.6-8.9l1 0.6c-4.9 1.4-8.8 5.2-13 9-3.3 3-5.9 5.5-8.4 6.2z"/><path class="O" d="m383.2 328.5l-1.3-0.5c2.3-0.7 5.9-3.6 9-6.4 4.3-3.9 7.5-7.4 12.7-8.9l1 0.6c-5 1.4-8.8 5.2-13 9-3.4 3-6 5.5-8.4 6.2z"/><path class="O" d="m387.8 331.2l-1.2-0.5c2.2-0.7 5.8-3.6 8.9-6.4 4.3-3.8 7.6-7.4 12.7-8.9l1 0.6c-4.9 1.4-8.8 5.3-13 9-3.3 3-5.9 5.5-8.4 6.2z"/><path class="O" d="m392.4 333.8l-1.2-0.5c2.2-0.7 5.8-3.6 8.9-6.4 4.3-3.9 7.6-7.4 12.7-8.9l1 0.5c-4.9 1.5-8.8 5.3-13 9.1-3.3 3-5.9 5.5-8.4 6.2z"/><path class="O" d="m397.4 336.7l-1.2-0.5c2.3-0.7 5.8-3.7 9-6.5 4.2-3.8 7.5-7.3 12.6-8.8l1 0.5c-4.9 1.5-8.8 5.3-13 9.1-3.3 3-5.9 5.4-8.4 6.2z"/><path class="O" d="m402.3 339.5l-1.2-0.5c2.3-0.7 5.8-3.6 9-6.4 4.2-3.9 7.5-7.4 12.6-8.9l1 0.5c-4.9 1.5-8.8 5.3-13 9.1-3.3 3-5.9 5.5-8.4 6.2z"/><path class="O" d="m394.5 303.7l-0.9-0.6c2.3-3.6 8.4-5.1 14.3-6.6 3.9-1 7.6-2 9.7-3.5l1 0.7c-2.3 1.6-6.5 2.7-10.5 3.7-5.6 1.5-11.5 2.9-13.6 6.3z"/><path class="O" d="m398.9 306.1l-1-0.6c2.3-3.6 8.5-5.1 14.3-6.6 3.9-1 7.6-2 9.8-3.5l0.9 0.7c-2.2 1.6-6.4 2.7-10.5 3.7-5.6 1.5-11.4 2.9-13.5 6.3z"/><path class="O" d="m403 308.6l-0.9-0.5c2.3-3.7 8.4-5.2 14.3-6.7 3.9-1 7.6-1.9 9.7-3.4l1 0.6c-2.3 1.6-6.5 2.8-10.5 3.8-5.6 1.4-11.5 2.9-13.6 6.2z"/><path class="O" d="m408.6 311.2l-0.9-0.5c2.3-3.7 8.5-5.2 14.3-6.7 3.9-1 7.6-1.9 9.7-3.4l1 0.6c-2.2 1.6-6.5 2.8-10.5 3.8-5.6 1.4-11.4 2.9-13.6 6.2z"/><path class="O" d="m412.2 313.9l-1-0.5c2.3-3.7 8.5-5.2 14.3-6.7 3.9-1 7.7-1.9 9.8-3.4l1 0.6c-2.3 1.6-6.5 2.8-10.5 3.8-5.7 1.4-11.5 2.9-13.6 6.2z"/><path class="O" d="m417.4 316.5l-1-0.5c2.4-3.6 8.5-5.2 14.3-6.6 4-1 7.7-2 9.8-3.5l1 0.6c-2.3 1.6-6.5 2.8-10.5 3.8-5.6 1.4-11.5 2.9-13.6 6.2z"/><path class="O" d="m423.4 319.2l-1-0.5c2.3-3.7 8.5-5.2 14.3-6.7 3.9-1 7.6-1.9 9.8-3.4l0.9 0.6c-2.2 1.6-6.4 2.8-10.5 3.8-5.6 1.4-11.4 2.9-13.5 6.2z"/><path class="O" d="m427.1 322.2l-0.9-0.6c2.3-3.6 8.4-5.2 14.3-6.6 3.9-1 7.6-2 9.7-3.5l1 0.7c-2.3 1.6-6.5 2.7-10.5 3.7-5.6 1.5-11.5 2.9-13.6 6.3z"/><path class="x" d="m426.1 490.1v5.9l5.1 2.9v-5.9z"/><path class="w" d="m426.1 490.1l5.1-3 5.1 3-5.1 2.9z"/><path class="y" d="m431.2 493l5.1-2.9v5.9l-5.1 2.9z"/><path class="z" d="m489 395.4l1.3-0.9-4.2-2.4q-0.1 0-0.1-0.1c-0.8-0.4-1.7-0.4-2.6 0.1l-52.6 30.4c-2.4 1.4-3.9 3.9-3.9 6.7v60.8l4.3 2.5 1.1-5-0.3-0.8-0.8 0.2 0.7-56.6c0-1.7 1-3.3 2.4-4.1l47.5-28.2c0.5-0.3 1.2 0.1 1.2 0.7v58.9l4.4 2.5 1.1-6.8h-1.1v-56.1z"/><path class="A" d="m431.2 431.7v60.8l4.3-2.5v-57.5c0-1.7 0.9-3.3 2.4-4.2l48.2-27.8c0.6-0.3 1.3 0.1 1.3 0.7v58.9l4.3-2.5v-60.8c0-2-2.2-3.2-3.9-2.2l-52.7 30.4c-2.4 1.3-3.9 3.9-3.9 6.7z"/><path class="P" d="m478.7 455.1l-56.1-32.4 56.1-32.4 56.2 32.4z"/><path class="Q" d="m422.6 422.7v5l56.1 32.4v-5z"/><path class="R" d="m478.7 455.1l56.2-32.4v5l-56.2 32.4z"/><path class="S" d="m530.5 425.2l4.4 2.5-47.5 27.4v-5z"/><path class="T" d="m534.9 427.7v5l-47.5 27.4v-5z"/><path class="U" d="m455.1 307.8l-3.4-4.9c0 0-3.6-4-7.7-5.3-2.4-0.7-5.2 1-6.7 2.8-0.9 1.1-0.4 2.9 1 3.4 3.1 1.2 5.7 3.2 6 4.9 0 0-1.1 0.3-3.4-0.6-2.3-0.8-3.2 0.7-2.7 1.6 0.3 0.5 1 0.9 2.5 1.8 1.5 0.9 5.3 0.2 6.5 0.2 1.2-0.1 4 2.3 4 2.3 2.7 1.5 15.3 11.8 22.7 16.6 7.4 4.9 20.9 8 23 5.1 2.1-2.8-36.6-26-36.6-26z"/><path class="V" d="m431.4 472.4c0 0 2.7 4.6 0.5 12.4-1.6 1.6-4.5 1.6-7.2 1-4.4-0.9-9.4-3.9-14.6-6.9-6.4-3.8-12.1-6.9-13.4-8.2-3.1-3.1 0.4-10.8 20.3-5.3 1.6 0.3 14.4 7 14.4 7z"/><path class="W" d="m438.8 391.3c0-9.9 6.9-17.5 18.6-14.3 11.7 3.2 26.1 12 26.1 12l-10.1 15.2-12.3 2.6z"/><path class="X" d="m472.5 404.5c0 0-30.9-15.1-37-17.2-6.4-2.2-20.3 0.7-20.3 14.4 0 13.8 0 65.3 0 67.9 0 8.9 17.3 10.4 17.3 3.9 0-5.8 0-47.4 0-50.6 0-3.2 0-7.9 0-7.9 0 0 29.5 18.8 46 23.2 16.6 4.4 46.2-3.9 39.7-32-6.5-28.1-45.7-1.7-45.7-1.7z"/><path class="Y" d="m483 323c3.6 3.2 17-4.4 16.7-9.7 3.3-1.2 6.7-2.7 10.7-1.5 7.9 2.4 7.5 14.1 8.2 20.5 1.8 15.2 0.6 50.2 1.5 74.2 0 7.5-17.8 14.4-28.4 14.4-10.7 0-21.6-8.3-21.5-11.6 0.1-3.3 1-36.2-1.5-45.4-2.4-9.2-4.6-24.7-0.8-29.4 4.9-5.9 15.1-11.5 15.1-11.5z"/><path class="U" d="m434.5 357.6c2.4 0.6 19.4-12.5 24.1-15.9 4.7-3.4 9.7-1.9 10.7 1 1.8 4.9 0.9 11.2-6.1 14.7-7 3.6-20.6 13.5-25.8 12.8-5.2-0.7-29.4-17.2-29.4-17.2 0 0-3.8-2.3-5.4-3.1-1.6-0.8-5.7 0.2-7.7-1.8-2.1-2.1-6.6-4.8-6.2-6.5 0.5-1.8 3.1-10.9 6.7-9.8 3.2 0.9 4.5 2 6 3.1-0.4-1.7 1.5-1.8 2.5-0.4 1 1.5 1.2 3.1 2.6 5.7 1.4 2.6 4 4.2 4 4.2 0 0 21.5 12.6 24 13.2z"/><path class="U" d="m466.1 277.1c-2.5 5.6-0.1 8.5-0.3 12.6 0 3.6-2.7 18.8 4.5 20.4 5 1.1 8.4 0.5 8.4 0.5l4.3 12.4c1.2 2.8 18.1 0.3 16.7-8.1l-0.8-7.3c3.8-1.7 10.9-8 10.9-20.5 0-12.4-13.3-22-25.2-22-12 0-17.8 10.5-18.5 12z"/><path class="Z" d="m449.6 346.7c0 0-2.3 11.2 7.5 16.8 0 0 12.9-6.7 16.4-9.1 3.5-2.3 7.8-9.3 3.9-16-3.5-6.1-9.3-5.3-14.5-1.5-5.2 3.8-13.3 9.8-13.3 9.8z"/><path class="a0" d="m478.7 420.2l56.2-32.4v-54.8l-56.2 32.4z"/><path class="a1" d="m478.7 420.2l-4.3-2.5v-54.8l4.3 2.5z"/><path class="a2" d="m474.4 362.9l56.1-32.4 4.4 2.5-56.2 32.4z"/><path class="x" d="m477.9 520v5.9l5.1 2.9v-5.8z"/><path class="w" d="m477.9 520l5.1-2.9 5.1 2.9-5.1 3z"/><path class="y" d="m483 523l5.1-3v5.9l-5.1 2.9z"/><path class="x" d="m529.8 490.1v5.8l5.1 3v-5.9z"/><path class="w" d="m529.8 490.1l5.1-3 5.1 3-5.1 2.9z"/><path class="y" d="m534.9 493l5.1-2.9v5.8l-5.1 3z"/><path class="z" d="m536.6 340.6l1.2-1-4.2-2.4q0 0-0.1 0v-0.1c-0.8-0.4-1.7-0.4-2.5 0.1l-48.4 27.9c-2.4 1.4-3.9 4-3.9 6.8v148.1l4.3 2.4 1.1-4.9-0.3-0.9-0.8 0.2 0.8-143.8c0-1.8 0.9-3.3 2.4-4.2l43.1-25.7c0.6-0.3 1.2 0.1 1.2 0.7v146.2l4.4 2.5 1.1-6.8h-1.1v-143.3z"/><path class="A" d="m483 374.3v148.1l4.4-2.4v-144.9c0-1.7 0.9-3.3 2.4-4.1l43.8-25.4c0.6-0.3 1.3 0.1 1.3 0.7v146.2l4.3-2.5v-148.1c0-2-2.2-3.2-3.9-2.2l-48.4 27.9c-2.4 1.4-3.9 4-3.9 6.7z"/><path class="a3" d="m466.1 277.1c0 0 1.3 11.4 8.3 16 3.3-0.5 6.6 3.4 3.7 10.5 0.9 5.4 1.6 5.4 2.8 8.7 1 1.3 8 2.2 11.4 0.5 8.5-4.1 5.3-3.5 6.7-4.7 3.5-2.6 12.1-7.6 12.1-22.2 0-14.5-17-21.5-23.7-21.5-6.5-4.1-15.5-1.9-19.5-3.7-1.4 1.7-0.9 13.6-1.8 16.4z"/><path class="a4" d="m211.5 298.3l-4.8-2.7q0 0 0 0l-0.1-0.1c-2.6-1.4-5.9-1.6-8.8 0.1l-33.9 19.6c-5.3 3-8.5 8.6-8.5 14.7v38.9c0 3.5 1.9 6.4 4.7 7.9h-0.1l4.9 2.7 2.7-2.1-2.2-3.8 30.6-17.7c6.5-3.8 10.6-10.8 10.6-18.3v-35.7c1.2-0.1 2.2-0.1 2.2-0.1 0.1 0 2.7-3.4 2.7-3.4z"/><path class="a5" d="m169.1 318.2l34-19.6c5.8-3.4 13.2 0.8 13.2 7.6v36.8c0 7.6-4 14.6-10.6 18.3l-31.5 18.3c-6.1 3.4-13.6-0.9-13.6-7.9v-38.8c0-6.1 3.3-11.7 8.5-14.7z"/><path class="n" d="m188.5 326.5c-5.3 3.7-9.7 11.3-10.2 17.8-0.3 4 0.7 6.9 2.6 8.4 1.9 1.6 3.1 4.1 3.1 7.6 0 0.4 0.3 0.6 0.7 0.4q0 0.1 0 0.3c0 3.3 2.3 4.6 5.2 2.9 2.8-1.6 5.1-5.6 5.1-8.8q0-0.2 0-0.3c0.4-0.2 0.7-0.8 0.7-1.3 0-3.3 1.1-7.2 3-10.8 1.7-3.4 2.8-7 2.8-10.4 0-7.9-6-10.8-13-5.8z"/><path class="n" d="m189.9 324.6c-0.7 0.4-1.1 0.1-1.1-0.6v-9.3c0-0.7 0.4-1.5 1.1-1.9 0.6-0.3 1 0 1 0.7v9.3c0 0.7-0.4 1.5-1 1.8z"/><path class="n" d="m200.2 323.9c-0.2 0.1-0.5 0.2-0.7 0-0.5-0.2-0.5-1 0-1.7l5.6-9.9c0.5-0.7 1.2-1.1 1.6-0.9 0.4 0.3 0.4 1.1 0 1.8l-5.7 9.9c-0.2 0.3-0.5 0.6-0.8 0.8z"/><path class="n" d="m179.5 335.8c-0.3 0.2-0.6 0.2-0.8 0.1l-5.7-3.3c-0.4-0.2-0.4-1 0-1.8 0.4-0.7 1.1-1.1 1.6-0.9l5.6 3.3c0.5 0.3 0.5 1.1 0 1.8-0.2 0.4-0.5 0.7-0.7 0.8z"/><path class="a4" d="m431.3 171.5l-4.8-2.7q0 0 0 0l-0.1-0.1c-2.5-1.4-5.8-1.6-8.7 0.1l-33.9 19.6c-5.3 3-8.5 8.7-8.5 14.7v38.9c0 3.5 1.9 6.4 4.6 7.9l4.8 2.7 2.7-2.1-2.1-3.8 30.6-17.7c6.5-3.8 10.5-10.8 10.5-18.3v-35.7c1.3-0.1 2.2-0.1 2.3-0.1 0 0 2.6-3.4 2.6-3.4z"/><path class="a5" d="m389 191.4l33.9-19.6c5.9-3.4 13.3 0.8 13.3 7.6v36.8c0 7.6-4.1 14.6-10.6 18.3l-31.6 18.3c-6 3.4-13.5-0.9-13.5-7.9v-38.8c0-6.1 3.2-11.7 8.5-14.7z"/><path class="n" d="m388.4 202.8v32.6l3.9-2.2q-0.5-1.6-0.5-3.6c0-7.6 5.3-16.8 11.8-20.5 6.6-3.8 11.9-0.7 11.9 6.8q0 2.1-0.5 4.2l13.4-7.7v-32.6z"/><path class="n" d="m412.2 217.8c0 5.5-3.8 12.1-8.6 14.8-4.7 2.7-8.5 0.5-8.5-4.9 0-5.5 3.8-12.1 8.5-14.8 4.8-2.7 8.6-0.5 8.6 4.9z"/><path class="n" d="m395.6 234.3c0 0 3 1.7 5.5 0.5l-3.6 10-1.7-3.1-3.6 2.2z"/><path class="n" d="m411.5 225.2c0 0-3.1 5.1-5.6 6.8l3.6 5.8 1.7-5 3.7-1.9z"/><path class="a4" d="m211.5 206.6l-4.8-2.8q0 0 0 0h-0.1c-2.6-1.5-5.9-1.6-8.8 0l-33.9 19.6c-5.3 3.1-8.5 8.7-8.5 14.8v38.8c0 3.5 1.9 6.4 4.7 7.9h-0.1l4.9 2.7 2.7-2.1-2.2-3.8 30.6-17.7c6.5-3.7 10.6-10.7 10.6-18.3v-35.7c1.2 0 2.2-0.1 2.2-0.1 0.1 0 2.7-3.3 2.7-3.3z"/><path class="a5" d="m169.1 226.4l34-19.6c5.8-3.4 13.2 0.9 13.2 7.7v36.8c0 7.5-4 14.5-10.6 18.3l-31.5 18.2c-6.1 3.5-13.6-0.9-13.6-7.8v-38.9c0-6 3.3-11.7 8.5-14.7z"/><path class="n" d="m172 272.5v-8.5c0-1 0.8-2.3 1.7-2.9l35.8-20.5v-2.2l-37.7 21.6c-1.4 0.8-2.5 2.7-2.5 4.2v11.1c0 1.6 1.1 2.2 2.5 1.5l37.7-21.7v-2.2l-35.8 20.5c-0.9 0.6-1.7 0.1-1.7-0.9z"/><path class="n" d="m207.3 252.3l-33.2 19.1v-8.7l33.2-19.1z"/><path class="n" d="m172 252.6v-8.5c0-1.1 0.8-2.3 1.7-2.9l35.8-20.5v-2.2l-37.7 21.6c-1.4 0.8-2.5 2.7-2.5 4.2v11.1c0 1.6 1.1 2.2 2.5 1.4l37.7-21.6v-2.2l-35.8 20.5c-0.9 0.6-1.7 0.1-1.7-0.9z"/><path class="n" d="m207.3 232.4l-33.2 19.1v-8.7l33.2-19.1z"/><path class="a4" d="m324.8 232.9l-4.7-2.7q0 0-0.1 0v-0.1c-2.6-1.4-5.9-1.6-8.8 0.1l-33.9 19.6c-5.3 3-8.5 8.6-8.5 14.7v38.8c0 3.6 1.9 6.4 4.7 7.9h-0.1l4.9 2.8 2.6-2.1-2.1-3.8 30.6-17.7c6.5-3.8 10.6-10.8 10.6-18.3v-35.7c1.2-0.1 2.2-0.1 2.2-0.1 0.1 0 2.6-3.4 2.6-3.4z"/><path class="a5" d="m282.5 252.7l33.9-19.5c5.9-3.4 13.3 0.8 13.3 7.6v36.8c0 7.6-4 14.5-10.6 18.3l-31.5 18.2c-6.1 3.5-13.6-0.8-13.6-7.8v-38.8c0-6.1 3.2-11.7 8.5-14.8z"/><path fill-rule="evenodd" class="n" d="m318.9 258.5c-2.7 9.2-10.3 17.2-16.9 17.9-6.6 0.7-9.8-6.2-7.1-15.4 2.7-9.2 10.3-17.2 16.9-17.9 6.6-0.7 9.8 6.2 7.1 15.4zm-3.5 0.4c1.9-6.5-0.3-11.4-5-10.9-4.7 0.5-10 6.1-12 12.6-1.9 6.5 0.4 11.4 5 10.9 4.7-0.4 10.1-6.1 12-12.6z"/><path class="n" d="m300.9 286.5l-3.8 0.4 3.4-11.7 3.8-0.4z"/><path class="n" d="m301.2 285.2l-3.6 0.3c-0.4 0.1-0.9 0.6-1.1 1.2l-4.9 16.5c-0.2 0.6 0 1.1 0.5 1.1l3.6-0.4c0.4-0.1 0.9-0.6 1.1-1.2l4.8-16.5c0.2-0.6 0-1.1-0.4-1z"/><path class="n" d="m303.3 256.3q-0.3 0-0.4-0.1c-0.2-0.3-0.1-0.8 0.2-1.3 2-2.5 4.4-4.1 6.5-4.3 0.4 0 0.5 0.3 0.4 0.8-0.1 0.5-0.6 1-0.9 1-1.7 0.2-3.7 1.5-5.2 3.5-0.2 0.3-0.4 0.4-0.6 0.4z"/><path class="n" d="m304.2 268.9c-3.6 0.4-5.4-3.4-3.9-8.5 0.2-0.5 0.6-0.9 0.9-0.9 0.4-0.1 0.6 0.3 0.4 0.8-1.2 4.1 0.2 7.1 3.2 6.8 2.9-0.3 6.2-3.8 7.4-7.9 0.2-0.5 0.6-0.9 0.9-1 0.4 0 0.6 0.4 0.4 0.9-1.5 5-5.6 9.4-9.3 9.8z"/><path class="a4" d="m431.3 79.8l-4.8-2.7q0 0 0 0l-0.1-0.1v0.1c-2.5-1.5-5.8-1.7-8.7 0l-33.9 19.6c-5.3 3-8.5 8.7-8.5 14.7v38.9c0 3.5 1.9 6.4 4.6 7.9l4.8 2.7 2.7-2.1-2.1-3.8 30.6-17.7c6.5-3.8 10.5-10.7 10.5-18.3v-35.7c1.3 0 2.2-0.1 2.3-0.1 0 0 2.6-3.4 2.6-3.4z"/><path class="a5" d="m389 99.7l33.9-19.6c5.9-3.4 13.3 0.8 13.3 7.6v36.8c0 7.6-4.1 14.6-10.6 18.3l-31.6 18.3c-6 3.4-13.5-0.9-13.5-7.9v-38.8c0-6.1 3.2-11.7 8.5-14.7z"/><path fill-rule="evenodd" class="n" d="m421.9 111.1v21.5l-33.1 19.1zm-3.9 9.2l-16.1 19.7 16.1-9.2z"/><path class="n" d="m427.6 89.5l-3.7 2.1v39.9l3.7-2.1z"/><path fill-rule="evenodd" class="n" d="m418.9 101.8l2.8 4.2-30.1 36.9-2.8-4.2 2.1-2.6c-4-5.9-1.5-17.8 5.6-26.5 7.2-8.8 16.2-11.1 20.2-5.2zm-6.8 8.4c-2.5-3.8-8.3-2.4-12.9 3.2-4.6 5.6-6.2 13.2-3.6 17z"/><path class="a4" d="m324.8 141l-4.7-2.7q0 0-0.1 0v-0.1c-2.6-1.4-5.9-1.6-8.8 0.1l-33.9 19.6c-5.3 3-8.5 8.6-8.5 14.7v38.9c0 3.5 1.9 6.4 4.7 7.9h-0.1l4.9 2.7 2.6-2.1-2.1-3.8 30.6-17.7c6.5-3.8 10.6-10.8 10.6-18.3v-35.7c1.2-0.1 2.2-0.1 2.2-0.1 0.1 0 2.6-3.4 2.6-3.4z"/><path class="a5" d="m282.5 160.9l33.9-19.6c5.9-3.4 13.3 0.8 13.3 7.6v36.8c0 7.6-4 14.6-10.6 18.3l-31.5 18.3c-6.1 3.4-13.6-0.9-13.6-7.9v-38.8c0-6.1 3.2-11.7 8.5-14.7z"/><path class="n" d="m301.8 160.7l-23.5 29.3 23.6 2.1 23.5-29.3z"/><path class="n" d="m301.9 194.3l-13.3-1.1v9.6c0.1 5.3 6.1 6.1 13.4 1.8 7.3-4.4 13.2-12.2 13.1-17.6v-9.1z"/><path class="n" d="m319.7 177.5c-0.2 0.1-0.3 0-0.3-0.2q0-0.3 0-0.7c0-2.2 0.1-5.8-1.8-5.4-0.1 0.1-0.2-0.1-0.2-0.3 0.1-0.2 0.2-0.4 0.4-0.5 2.3-0.5 2.3 3.5 2.2 5.9q0 0.3 0 0.6c0 0.2-0.1 0.5-0.3 0.6z"/><path class="n" d="m320 178.2v-1.5c0-0.1-0.1-0.2-0.2-0.1q0 0-0.1 0.1 0 0 0 0 0 0 0 0-0.1 0-0.1 0.1-0.1 0.1-0.1 0.3v1.2l-1 12.9q0 0 0 0c0 0.4 0.2 0.6 0.6 0.4 0 0 0-0.1 0.1-0.2v1q0 0 0 0c0 0.4 0.2 0.5 0.5 0.3 0.4-0.2 0.6-0.6 0.6-0.9z"/><path class="n" d="m319.7 179.1c-0.5 0.3-0.9 0-0.9-0.5v-0.7c0-0.5 0.4-1.2 0.9-1.5 0.5-0.3 0.9-0.1 0.9 0.5v0.6c0 0.6-0.4 1.3-0.9 1.6z"/></svg>