<svg version="1.2" xmlns="http://www.w3.org/2000/svg" viewBox="0 0 664 520" width="664" height="520"><style>.a{fill:#fff}.b{fill:#f23e6e}.c{fill:#ffa896}.d{fill:#1e2959}.e{fill:none;stroke:#1e2959;stroke-linecap:round;stroke-miterlimit:10;stroke-width:2.5}.f{fill:#839fcf}.g{fill:#315faf}.h{fill:#42bafc}.i{fill:#404972}.j{fill:#787f9b}.k{fill:#8389a4}</style><path class="a" d="m626.9 358.1h-528.1c-1.8 0-7.6-30.5-8-32.6-1.9-8.5-3.3-17-4.7-25.5-13-80.1-4.9-178.1 55.4-238.6 47.4-47.4 112.2-56.1 174.7-38.1 47.3 13.6 87.4 43.4 133.7 58.1 41.7 13.2 72.7-5 113.9 0 50.9 6.1 92.6 37.6 98.7 129.2 6.1 91.6-35.6 147.5-35.6 147.5z"/><path class="b" d="m332.5 132.9c0 0-41.7 1.7-53.2 13.9-11.6 12.3-48.9 83.8-55.3 97.7-6.5 13.9-12.9 29.5-12.9 29.5 0 0 6.8-3.7 33.9 5.8 27.1 9.5 31.6 13.9 31.6 13.9l12.2-22.4c0 0-1 80.1-0.4 82.1 0.7 2 176.4-0.3 178.4-2.4 2.1-2-12.5-116-12.5-116l27.1 54.6c0 0 15.6-9.8 34.3-11.2 18.6-1.3 26.4-1.3 26.4-1.3 0 0-20-67.2-39.7-102.1-19.6-34.9-39.3-37.6-62-42.1-22.8-4.4-55-7.8-55-7.8 0 0-49.1 3.8-52.9 7.8z"/><path class="c" d="m370.5 358.1h-107.2c-29-2.4-54.2-6.1-61.7-11.7-15.7-11.8 3.2-54.4 12.6-73 4.2-0.4 13.3 0.3 30.8 6.4 17.7 6.2 25.8 10.2 29.2 12.3l-4.9 12.3-0.5 1.2v0.1c0 0 6.4 4.3 19.5 10.4 8.7 4.1 20.3 9 34.9 14.1 20.9 7.2 34.7 16.8 42.6 23.7q2.8 2.4 4.7 4.2z"/><path class="a" d="m372.2 353.1c0 0-30.5-0.7-32.2 1-1.7 1.7-62.4 46.1-62.4 46.1 0 0 1.6 3.8 1.2 8.3-0.3 2.7-1.9 4.6-1.9 4.6l137.4 10.5 73.6-59v-10.2z"/><path class="d" d="m414.6 423.7c0.2-1.2 0.1-2.4 0.1-3.6q0-1.8-0.1-3.6 0-1.8-0.1-3.5c-0.1-1.2 0-2.4-0.5-3.4-0.1-0.2-0.3-0.1-0.4 0.1-0.3 1-0.1 2.2 0 3.3q0.1 1.8 0.1 3.6 0.1 1.8 0.1 3.6c0.1 1.2 0 2.3 0.2 3.5 0 0.3 0.5 0.3 0.6 0z"/><path class="d" d="m276.6 401.3c1.9-0.1 3.9 0 5.8 0.1q5.2 0.3 10.4 0.6 7 0.5 13.9 1 8.2 0.6 16.4 1.3 8.9 0.7 17.7 1.4 9 0.7 18.1 1.4 8.6 0.7 17.2 1.3 7.6 0.5 15.4 1 6.1 0.4 12.3 0.7c2.8 0.1 5.7 0.3 8.4 0.2 0.5-0.1 1-0.2 1.4-0.2 0.5 0 0.5-0.8 0-0.8-0.9 0.1-2.1 0-3 0q-2.2 0-4.3-0.1-5.8-0.2-11.5-0.5-7.4-0.5-14.7-1-8.5-0.5-16.9-1.2-9-0.6-17.9-1.3-9-0.7-18-1.4-8.3-0.6-16.7-1.3-7.4-0.5-14.7-1-5.7-0.4-11.3-0.7c-2.4-0.1-4.7-0.2-7.1-0.1q-0.5 0-0.9 0c-0.4 0-0.4 0.6 0 0.6z"/><path class="d" d="m414.1 410.3c9.5-7.7 19.1-15.3 28.7-22.8q14.5-11.4 29.1-22.5 4.1-3 8.2-6.1 2.1-1.6 4.2-3.1c1.3-1 2.7-1.9 3.9-3.1 0.3-0.4-0.1-0.8-0.4-0.6-1.4 0.7-2.6 1.7-3.8 2.6q-1.9 1.4-3.8 2.7-3.6 2.8-7.2 5.5-7.4 5.6-14.6 11.2c-9.7 7.4-19.3 15-28.7 22.7-5.3 4.3-10.6 8.8-15.8 13.2-0.2 0.1 0 0.4 0.2 0.3z"/><path class="d" d="m414.3 403.2c-0.8-0.2-2.2-0.3-2.3 0.9-0.2 1.1 1.2 1.4 2.1 1.2 0.6-0.1 1.2-0.3 1.8-0.5 0.2-0.2 0.5-0.3 0.7-0.6 0.1-0.2 0.1-0.5 0-0.8-0.3-0.5-1-0.6-1.5-0.7q-0.5 0-1.1 0.1c-0.3 0-0.6 0-0.9 0.2-0.4 0.1-0.7 0.3-0.7 0.7 0 0.4 0.2 0.6 0.5 0.8 0.7 0.3 1.6 0.1 2.2-0.1 0.2-0.1 0.4-0.4 0.3-0.6-0.4-0.5-1-0.7-1.6-0.5-0.2 0.1-0.2 0.4-0.1 0.5 0 0.2 0.2 0.3 0.4 0.3 0.2-0.1 0.4-0.2 0.4-0.5 0-0.2-0.2-0.3-0.5-0.3q0.1 0.4 0.1 0.8c0.2 0 0.4-0.1 0.5 0.1q0.2-0.3 0.3-0.6c-0.4 0.2-1 0.3-1.4 0.2 0 0-0.2 0-0.2 0q0-0.1-0.1-0.1c0 0 0 0 0 0 0 0 0.1 0 0 0 0.1-0.2 0 0.1 0 0.1 0 0 0.2-0.1 0.2-0.1 0.5-0.1 1-0.1 1.4-0.1 0.4 0 0.8 0 1 0.2 0.1 0.1 0 0 0 0 0 0 0.1 0 0.1 0q0 0 0 0 0 0 0 0c0 0-0.1 0 0 0-0.2 0.1-0.4 0.2-0.5 0.3-0.5 0.1-0.9 0.3-1.4 0.4-0.2 0-0.2 0-0.4 0-0.2 0-0.3 0-0.4 0q-0.1 0-0.1 0c0 0-0.2-0.1-0.1-0.1q-0.1 0-0.2-0.1c0.1 0.1 0.1 0 0 0 0 0 0.1 0.1 0 0q0 0 0-0.1c0 0.1 0-0.1 0 0q0 0 0 0 0-0.1 0-0.1 0 0 0 0c0-0.1 0 0.1 0 0 0.1-0.1 0 0 0-0.1 0.1-0.1 0.2-0.1 0.3-0.2q0.5-0.2 1.1 0c0.3 0 0.5-0.5 0.1-0.6z"/><path class="d" d="m423.6 395.5c-0.9-0.2-2.3-0.3-2.4 0.9-0.1 1.1 1.3 1.4 2.1 1.2 0.6-0.1 1.2-0.3 1.8-0.5 0.3-0.1 0.6-0.3 0.7-0.6 0.2-0.2 0.2-0.5 0-0.8-0.2-0.5-0.9-0.6-1.4-0.7q-0.6 0-1.1 0.1c-0.3 0-0.7 0.1-1 0.2-0.3 0.1-0.6 0.3-0.6 0.7 0 0.4 0.2 0.7 0.5 0.8 0.6 0.3 1.5 0.2 2.2-0.1 0.2-0.1 0.4-0.4 0.2-0.6-0.3-0.5-1-0.7-1.5-0.5-0.2 0.1-0.3 0.4-0.2 0.6 0.1 0.2 0.3 0.2 0.5 0.2 0.2 0 0.4-0.2 0.4-0.5-0.1-0.2-0.3-0.3-0.5-0.3q0 0.4 0.1 0.8c0.2 0 0.4-0.1 0.5 0.1q0.1-0.3 0.3-0.6c-0.5 0.2-1 0.3-1.5 0.2 0.1 0-0.1 0-0.1 0q-0.1-0.1-0.1-0.1c0 0 0 0 0 0-0.1 0 0 0 0 0 0.1-0.2 0 0.1 0 0.1 0 0 0.1-0.1 0.1-0.1 0.5-0.1 1-0.1 1.5-0.1 0.4 0 0.7 0 1 0.2 0.1 0.1 0 0 0 0 0 0 0 0 0 0.1q0-0.1 0-0.1 0 0 0 0c0 0 0 0 0 0-0.1 0.1-0.3 0.2-0.5 0.3-0.4 0.1-0.9 0.3-1.4 0.4-0.1 0-0.2 0-0.3 0-0.2 0-0.3 0-0.5 0q0 0-0.1 0c0 0-0.1-0.1 0-0.1q-0.1 0-0.2-0.1c0.1 0.1 0 0.1 0 0-0.1 0 0.1 0.1 0 0q0 0-0.1 0c0.1 0.1 0-0.2 0-0.1q0 0 0 0 0-0.1 0-0.1 0 0 0.1 0c0-0.1-0.1 0.1 0 0 0-0.1-0.1 0 0-0.1 0.1-0.1 0.2-0.1 0.3-0.2q0.5-0.2 1 0c0.4 0 0.5-0.5 0.2-0.6z"/><path class="d" d="m431.5 388.9c-0.8-0.2-2.2-0.3-2.3 0.9-0.1 1.1 1.2 1.3 2.1 1.2 0.6-0.1 1.2-0.3 1.8-0.5 0.3-0.2 0.5-0.3 0.7-0.6 0.2-0.2 0.2-0.5 0-0.8-0.3-0.5-0.9-0.7-1.5-0.7q-0.5 0-1 0.1c-0.4 0-0.7 0-1 0.2-0.3 0.1-0.7 0.3-0.7 0.7 0 0.4 0.3 0.6 0.6 0.8 0.6 0.3 1.5 0.1 2.1-0.1 0.3-0.1 0.5-0.4 0.3-0.6-0.3-0.5-1-0.8-1.6-0.5-0.1 0.1-0.2 0.4-0.1 0.5 0.1 0.2 0.3 0.3 0.5 0.3 0.2-0.1 0.4-0.2 0.3-0.5 0-0.2-0.2-0.3-0.4-0.3q0 0.4 0.1 0.8c0.1-0.1 0.3-0.1 0.5 0.1q0.1-0.3 0.2-0.6c-0.4 0.1-0.9 0.3-1.4 0.2 0 0-0.1 0-0.1 0q-0.1-0.1-0.2-0.1c0 0 0.1 0 0.1 0-0.1 0 0-0.1 0 0 0-0.2 0 0.1-0.1 0.1 0 0 0.2-0.1 0.2-0.1 0.5-0.1 1-0.2 1.5-0.2 0.3 0 0.7 0.1 0.9 0.3 0.1 0.1 0-0.1 0.1 0 0 0 0 0 0 0q0 0 0 0 0 0 0 0c0 0 0 0 0 0-0.1 0.1-0.3 0.2-0.5 0.2-0.5 0.2-0.9 0.4-1.4 0.5-0.1 0-0.2 0-0.4 0-0.2 0-0.3 0-0.4 0q-0.1 0-0.1-0.1c0 0-0.1 0-0.1 0q0 0-0.1-0.1c0 0.1 0 0 0 0-0.1-0.1 0 0.1-0.1 0q0 0 0-0.1c0.1 0.1 0-0.1 0 0q0 0 0-0.1 0 0 0 0 0 0 0 0c0.1-0.1 0 0.1 0 0 0.1-0.1 0 0 0.1-0.1 0-0.1 0.1-0.1 0.3-0.2q0.5-0.2 1-0.1c0.3 0.1 0.5-0.4 0.1-0.5z"/><path class="d" d="m439.2 382.8c-0.9-0.2-2.3-0.3-2.4 0.9-0.1 1.1 1.3 1.3 2.1 1.2 0.6-0.1 1.2-0.3 1.8-0.6 0.3-0.1 0.6-0.2 0.7-0.5 0.2-0.2 0.2-0.5 0-0.8-0.2-0.5-0.9-0.7-1.4-0.7q-0.6 0-1.1 0.1c-0.3 0-0.7 0-1 0.1-0.3 0.2-0.6 0.4-0.6 0.8 0 0.4 0.2 0.6 0.5 0.8 0.6 0.3 1.5 0.1 2.2-0.1 0.2-0.1 0.4-0.4 0.2-0.6-0.3-0.5-1-0.8-1.5-0.5-0.2 0.1-0.3 0.4-0.2 0.5 0.1 0.2 0.3 0.3 0.5 0.3 0.2-0.1 0.4-0.2 0.4-0.5-0.1-0.2-0.3-0.3-0.5-0.3q0 0.4 0.1 0.8c0.2-0.1 0.4-0.1 0.5 0.1q0.1-0.3 0.3-0.6c-0.5 0.1-1 0.3-1.5 0.2 0.1 0-0.1 0-0.1 0q-0.1-0.1-0.1-0.1c0 0 0 0 0 0-0.1 0 0-0.1 0 0 0.1-0.2 0 0.1 0 0.1 0 0 0.1-0.1 0.1-0.1 0.5-0.1 1-0.2 1.5-0.2 0.4 0 0.7 0 1 0.3 0.1 0.1 0-0.1 0 0 0 0 0 0 0 0q0 0 0 0 0-0.1 0 0c0 0 0 0 0 0-0.1 0.1-0.3 0.2-0.5 0.2-0.4 0.2-0.9 0.4-1.4 0.5-0.1 0-0.2 0-0.3 0-0.2 0-0.3 0-0.5 0q0 0-0.1-0.1c0 0-0.1 0 0 0q-0.1 0-0.2-0.1c0.1 0.1 0 0 0 0-0.1-0.1 0.1 0.1 0 0q0 0-0.1-0.1c0.1 0.1 0-0.1 0 0q0 0 0-0.1 0 0 0 0 0 0 0.1 0c0-0.1-0.1 0.1 0-0.1 0 0-0.1 0.1 0 0 0.1-0.1 0.2-0.1 0.3-0.2q0.5-0.2 1-0.1c0.4 0.1 0.5-0.4 0.2-0.5z"/><path class="d" d="m446.4 376.7c-0.8-0.2-2.2-0.3-2.4 0.8-0.1 1.2 1.3 1.4 2.1 1.3 0.6-0.1 1.3-0.3 1.8-0.6 0.3-0.1 0.6-0.2 0.8-0.5 0.1-0.2 0.1-0.6 0-0.8-0.3-0.5-1-0.7-1.5-0.7q-0.6 0-1.1 0c-0.3 0.1-0.7 0.1-1 0.2-0.3 0.2-0.6 0.4-0.6 0.8 0 0.3 0.2 0.6 0.5 0.8 0.7 0.3 1.5 0.1 2.2-0.1 0.2-0.1 0.4-0.4 0.2-0.6-0.3-0.5-0.9-0.8-1.5-0.5-0.2 0.1-0.2 0.3-0.2 0.5 0.1 0.2 0.3 0.3 0.5 0.3 0.2-0.1 0.4-0.3 0.4-0.5 0-0.2-0.3-0.3-0.5-0.4q0.1 0.4 0.1 0.9c0.2-0.1 0.4-0.1 0.5 0.1q0.1-0.3 0.3-0.6c-0.5 0.1-1 0.2-1.4 0.2 0 0-0.2-0.1-0.2-0.1q0 0-0.1 0c0 0 0 0 0 0-0.1 0 0-0.1 0 0 0.1-0.2 0 0.1 0 0.1 0 0 0.1-0.1 0.2-0.1 0.4-0.1 0.9-0.2 1.4-0.2 0.4 0 0.8 0 1 0.2 0.1 0.1 0 0 0 0.1 0 0 0.1 0 0 0q0 0 0 0 0-0.1 0 0c0.1 0 0 0 0 0-0.1 0.1-0.3 0.2-0.5 0.2-0.4 0.2-0.9 0.3-1.3 0.4-0.2 0.1-0.3 0.1-0.4 0.1-0.2 0-0.3 0-0.5-0.1q0 0 0 0c-0.1 0-0.2 0-0.1 0q-0.1 0-0.2-0.1c0.1 0.1 0 0 0 0-0.1-0.1 0.1 0.1 0 0q0-0.1 0-0.1c0 0.1 0-0.1 0 0q0 0 0-0.1 0-0.1 0 0 0 0 0-0.1c0 0-0.1 0.1 0 0 0-0.1 0 0.1 0 0 0.1-0.1 0.2-0.2 0.3-0.2q0.5-0.2 1-0.1c0.4 0.1 0.5-0.4 0.2-0.5z"/><path class="d" d="m453.7 371c-0.8-0.2-2.2-0.3-2.3 0.8-0.2 1.2 1.2 1.4 2.1 1.3 0.6-0.1 1.2-0.3 1.8-0.6 0.2-0.1 0.5-0.2 0.7-0.5 0.1-0.2 0.1-0.6 0-0.8-0.3-0.5-1-0.7-1.5-0.7q-0.5 0-1.1 0.1c-0.3 0-0.6 0-0.9 0.1-0.4 0.2-0.7 0.4-0.7 0.8 0 0.4 0.2 0.6 0.5 0.8 0.7 0.3 1.6 0.1 2.2-0.1 0.2-0.1 0.4-0.4 0.3-0.6-0.4-0.5-1-0.8-1.6-0.5-0.2 0.1-0.2 0.4-0.1 0.5 0 0.2 0.2 0.3 0.4 0.3 0.2-0.1 0.4-0.2 0.4-0.5 0-0.2-0.2-0.3-0.5-0.3q0.1 0.4 0.1 0.8c0.2-0.1 0.4-0.1 0.5 0.1q0.2-0.3 0.3-0.6c-0.4 0.1-1 0.3-1.4 0.2 0 0-0.2-0.1-0.2 0q0-0.1-0.1-0.1c0 0 0 0 0 0 0 0 0.1-0.1 0 0 0.1-0.2 0 0.1 0 0.1 0 0 0.2-0.1 0.2-0.1 0.5-0.1 1-0.2 1.4-0.2 0.4 0 0.8 0 1 0.3 0.1 0.1 0-0.1 0.1 0-0.1 0 0 0 0 0q0 0 0 0 0-0.1 0 0c0 0-0.1 0 0 0-0.2 0.1-0.4 0.2-0.5 0.2-0.5 0.2-0.9 0.4-1.4 0.5-0.1 0-0.2 0-0.4 0-0.2 0-0.3 0-0.4 0q-0.1 0-0.1-0.1c0 0-0.2 0-0.1 0q-0.1 0-0.2-0.1c0.1 0.1 0.1 0 0 0 0-0.1 0.1 0.1 0 0q0 0 0-0.1c0 0.1 0-0.1 0 0q0 0 0-0.1 0 0 0 0 0 0 0 0c0-0.1 0 0 0-0.1 0.1 0 0 0.1 0 0 0.1-0.1 0.2-0.2 0.3-0.2q0.5-0.2 1.1-0.1c0.3 0.1 0.5-0.4 0.1-0.5z"/><path class="d" d="m461 366c-0.9-0.2-2.3-0.3-2.4 0.8-0.1 1.2 1.3 1.4 2.1 1.3 0.6-0.1 1.2-0.3 1.8-0.6 0.3-0.1 0.6-0.2 0.7-0.5 0.2-0.2 0.2-0.6 0-0.8-0.2-0.5-0.9-0.7-1.4-0.7q-0.6 0-1.1 0c-0.3 0.1-0.7 0.1-1 0.2-0.3 0.2-0.6 0.4-0.6 0.8 0 0.3 0.2 0.6 0.5 0.8 0.6 0.3 1.5 0.1 2.2-0.1 0.2-0.1 0.4-0.4 0.2-0.6-0.3-0.5-1-0.8-1.5-0.5-0.2 0.1-0.3 0.3-0.2 0.5 0.1 0.2 0.3 0.3 0.5 0.3 0.2-0.1 0.4-0.3 0.4-0.5-0.1-0.2-0.3-0.3-0.5-0.4q0 0.5 0.1 0.9c0.2-0.1 0.4-0.1 0.5 0.1q0.1-0.3 0.3-0.6c-0.5 0.1-1 0.2-1.5 0.2 0.1 0-0.1-0.1-0.1-0.1q-0.1 0-0.1 0c0 0 0 0 0 0-0.1 0 0-0.1 0 0 0.1-0.2 0 0.1 0 0.1 0 0 0.1-0.1 0.1-0.1 0.5-0.1 1-0.2 1.5-0.2 0.4 0 0.7 0 1 0.3 0.1 0 0-0.1 0 0 0 0 0 0 0 0q0 0 0 0 0-0.1 0 0c0 0 0 0 0 0-0.1 0.1-0.3 0.2-0.5 0.2-0.4 0.2-0.9 0.4-1.3 0.5-0.2 0-0.3 0-0.4 0-0.2 0-0.3 0-0.5 0q0-0.1-0.1-0.1c0 0-0.1 0 0 0q-0.1 0-0.2-0.1c0.1 0.1 0 0 0 0-0.1-0.1 0.1 0.1 0 0q0-0.1-0.1-0.1c0.1 0.1 0-0.1 0 0q0 0 0-0.1 0.1-0.1 0 0 0.1 0 0.1 0c0-0.1-0.1 0 0-0.1 0-0.1-0.1 0.1 0 0 0.1-0.1 0.2-0.2 0.3-0.2q0.5-0.2 1-0.1c0.4 0.1 0.5-0.4 0.2-0.5z"/><path class="d" d="m468.4 360.6c-0.8-0.2-2.2-0.3-2.4 0.9-0.1 1.1 1.3 1.3 2.1 1.2 0.6-0.1 1.3-0.3 1.8-0.6 0.3-0.1 0.6-0.2 0.8-0.5 0.1-0.2 0.1-0.6 0-0.8-0.3-0.5-1-0.7-1.5-0.7q-0.5 0-1.1 0.1c-0.3 0-0.6 0-1 0.1-0.3 0.2-0.6 0.4-0.6 0.8 0 0.4 0.2 0.6 0.5 0.8 0.7 0.3 1.5 0.1 2.2-0.1 0.2-0.1 0.4-0.4 0.2-0.6-0.3-0.5-0.9-0.8-1.5-0.5-0.2 0.1-0.2 0.4-0.2 0.5 0.1 0.2 0.3 0.3 0.5 0.3 0.2-0.1 0.4-0.2 0.4-0.5 0-0.2-0.3-0.3-0.5-0.3q0.1 0.4 0.1 0.8c0.2-0.1 0.4-0.1 0.5 0.1q0.1-0.3 0.3-0.6c-0.5 0.1-1 0.3-1.4 0.2 0 0-0.2 0-0.2 0q0-0.1-0.1-0.1c0 0 0 0 0 0 0 0 0-0.1 0 0 0.1-0.2 0 0.1 0 0.1 0 0 0.1-0.1 0.2-0.1 0.4-0.1 0.9-0.2 1.4-0.2 0.4 0 0.8 0 1 0.3 0.1 0.1 0-0.1 0 0 0 0 0.1 0 0 0q0 0 0 0 0.1-0.1 0 0c0.1 0 0 0 0 0-0.1 0.1-0.3 0.2-0.5 0.2-0.4 0.2-0.9 0.4-1.3 0.5-0.2 0-0.3 0-0.4 0-0.2 0-0.3 0-0.5 0q0 0 0-0.1c0 0-0.2 0-0.1 0q-0.1 0-0.2-0.1c0.1 0.1 0 0 0 0-0.1-0.1 0.1 0.1 0 0q0 0 0-0.1c0 0.1 0-0.1 0 0q0 0 0-0.1 0 0 0 0 0 0 0 0c0-0.1-0.1 0 0-0.1 0 0 0 0.1 0 0 0.1-0.1 0.2-0.2 0.3-0.2q0.5-0.2 1-0.1c0.4 0.1 0.5-0.4 0.2-0.5z"/><path class="d" d="m415.4 404.6c0.7-1 1.4-1.9 2.5-2.4 1.1-0.5 2.3-0.5 3.5-0.2 2.4 0.8 4.1 2.9 4.9 5.3 0.8 2.5 1 5.6 0.1 8-0.5 1.2-1.2 2.3-2.3 2.9-1 0.7-2.2 0.7-3.3 0.9-0.5 0-0.5 0.8-0.2 1 2 1.2 4.8-0.3 6.2-1.8 1.9-2 2.4-4.9 2.2-7.6-0.1-2.7-0.9-5.4-2.6-7.6-1.5-1.9-3.9-3.2-6.4-3.1-2.4 0-5.4 1.6-5.6 4.3 0 0.6 0.8 0.7 1 0.3z"/><path class="d" d="m423.8 396.4c0.7-1 1.4-1.8 2.5-2.3 1.1-0.5 2.3-0.6 3.5-0.2 2.4 0.7 4.1 2.9 4.9 5.3 0.8 2.5 1 5.5 0.1 8-0.5 1.2-1.2 2.2-2.3 2.9-1.1 0.6-2.2 0.7-3.3 0.8-0.6 0.1-0.5 0.8-0.2 1 2 1.3 4.8-0.3 6.2-1.8 1.8-2 2.4-4.9 2.2-7.5-0.1-2.7-0.9-5.5-2.6-7.6-1.5-1.9-3.9-3.3-6.4-3.2-2.4 0.1-5.4 1.7-5.6 4.4 0 0.5 0.8 0.6 1 0.2z"/><path class="d" d="m432.2 390.1c0.7-1 1.4-1.9 2.5-2.4 1.1-0.5 2.3-0.5 3.5-0.2 2.4 0.8 4.1 2.9 4.9 5.3 0.8 2.5 1 5.6 0.1 8-0.5 1.2-1.2 2.3-2.3 2.9-1.1 0.7-2.2 0.7-3.4 0.9-0.5 0-0.5 0.8-0.1 1 2 1.2 4.8-0.3 6.2-1.8 1.8-2 2.4-4.9 2.2-7.5-0.1-2.8-0.9-5.5-2.6-7.7-1.5-1.9-3.9-3.2-6.4-3.1-2.4 0-5.4 1.6-5.6 4.3 0 0.6 0.7 0.7 1 0.3z"/><path class="d" d="m439.9 384.2c0.7-1 1.3-1.8 2.5-2.3 1-0.5 2.2-0.6 3.4-0.2 2.5 0.7 4.1 2.9 4.9 5.3 0.8 2.5 1 5.5 0.1 8-0.5 1.1-1.2 2.2-2.3 2.9-1 0.6-2.1 0.7-3.3 0.8-0.5 0.1-0.5 0.8-0.2 1 2 1.3 4.9-0.3 6.2-1.8 1.9-2 2.4-4.9 2.3-7.5-0.2-2.7-0.9-5.5-2.7-7.6-1.5-1.9-3.9-3.3-6.3-3.2-2.4 0.1-5.5 1.7-5.7 4.3 0 0.6 0.8 0.7 1.1 0.3z"/><path class="d" d="m447 378.1c0.7-1 1.3-1.8 2.5-2.3 1.1-0.5 2.3-0.6 3.4-0.2 2.5 0.7 4.2 2.9 4.9 5.3 0.8 2.4 1 5.5 0.1 8-0.4 1.1-1.2 2.2-2.3 2.9-1 0.6-2.1 0.7-3.3 0.8-0.5 0.1-0.5 0.8-0.1 1 2 1.3 4.8-0.3 6.2-1.8 1.8-2 2.3-4.9 2.2-7.5-0.2-2.7-0.9-5.5-2.6-7.6-1.6-1.9-3.9-3.3-6.4-3.2-2.4 0.1-5.4 1.7-5.6 4.3-0.1 0.6 0.7 0.7 1 0.3z"/><path class="d" d="m454.4 372.8c0.7-1 1.3-1.9 2.5-2.4 1-0.5 2.2-0.5 3.4-0.2 2.5 0.8 4.1 2.9 4.9 5.3 0.8 2.5 1 5.6 0.1 8-0.5 1.2-1.2 2.3-2.3 2.9-1 0.7-2.1 0.7-3.3 0.9-0.5 0-0.5 0.8-0.2 1 2 1.2 4.9-0.3 6.2-1.8 1.9-2 2.4-4.9 2.3-7.5-0.2-2.8-0.9-5.5-2.7-7.7-1.5-1.9-3.9-3.2-6.3-3.1-2.4 0-5.5 1.6-5.7 4.3 0 0.6 0.8 0.7 1.1 0.3z"/><path class="d" d="m461.2 367.3c0.7-1 1.4-1.8 2.5-2.3 1.1-0.5 2.3-0.6 3.5-0.3 2.4 0.8 4.1 3 4.9 5.4 0.8 2.4 1 5.5 0 8-0.4 1.1-1.1 2.2-2.2 2.9-1.1 0.6-2.2 0.6-3.4 0.8-0.5 0.1-0.5 0.8-0.1 1 2 1.3 4.8-0.3 6.2-1.8 1.8-2 2.4-4.9 2.2-7.5-0.1-2.7-0.9-5.5-2.6-7.6-1.5-1.9-3.9-3.3-6.4-3.2-2.4 0.1-5.4 1.7-5.6 4.3 0 0.6 0.7 0.7 1 0.3z"/><path class="d" d="m469 361.5c0.7-1 1.4-1.8 2.5-2.3 1.1-0.5 2.3-0.6 3.5-0.3 2.4 0.8 4.1 3 4.9 5.4 0.8 2.4 1 5.5 0 8-0.4 1.1-1.1 2.2-2.2 2.9-1.1 0.6-2.2 0.7-3.4 0.8-0.5 0.1-0.5 0.8-0.1 1 2 1.3 4.8-0.3 6.2-1.8 1.8-2 2.4-4.9 2.2-7.5-0.1-2.7-0.9-5.5-2.6-7.6-1.5-1.9-3.9-3.3-6.4-3.2-2.4 0.1-5.4 1.7-5.6 4.3 0 0.6 0.7 0.7 1 0.3z"/><path class="d" d="m477.4 355.4c0.7-1 1.4-1.8 2.5-2.3 1.1-0.5 2.3-0.6 3.4-0.3 2.5 0.8 4.2 3 5 5.4 0.7 2.4 1 5.5 0 8-0.4 1.1-1.1 2.2-2.2 2.9-1.1 0.6-2.2 0.6-3.4 0.8-0.5 0.1-0.5 0.8-0.1 1 2 1.3 4.8-0.3 6.2-1.8 1.8-2 2.4-4.9 2.2-7.5-0.1-2.7-0.9-5.5-2.6-7.6-1.5-1.9-3.9-3.3-6.4-3.2-2.4 0.1-5.4 1.7-5.6 4.3-0.1 0.6 0.7 0.7 1 0.3z"/><path class="d" d="m278.7 404.2c1.7 0 3.5 0.1 5.2 0.2q5.2 0.4 10.4 0.7 7.1 0.5 14.3 1.1 8.4 0.6 16.9 1.2 9.2 0.7 18.3 1.4 9.2 0.6 18.4 1.3 8.8 0.7 17.5 1.3 7.5 0.5 15 1 5.7 0.4 11.5 0.7c2.2 0.1 4.4 0.3 6.6 0.3q0.3 0 0.7 0c0.1 0 0.1-0.1 0-0.1-1.7 0-3.5-0.2-5.2-0.3q-5.2-0.4-10.4-0.8-7.2-0.5-14.3-1-8.5-0.7-16.9-1.3-9.2-0.7-18.3-1.4-9.3-0.7-18.5-1.4-8.7-0.6-17.4-1.2-7.5-0.6-15-1.1-5.7-0.4-11.5-0.8c-2.2-0.1-4.4-0.2-6.6-0.3q-0.4 0-0.7 0c-0.4 0-0.4 0.5 0 0.5z"/><path class="d" d="m278.4 408.1q1.3 0 2.6 0c0.9 0 1.7 0 2.6-0.1 0.2-0.1 0.2-0.4 0-0.5-0.9-0.2-1.7-0.1-2.6-0.1q-1.3-0.1-2.6 0c-0.5 0-0.5 0.7 0 0.7z"/><path class="d" d="m291.9 408.6q9.7 0.6 19.4 0.9 4.8 0.2 9.6 0.3 2.4 0.1 4.8 0.1c1.5 0 3.2 0.2 4.7 0 0.1-0.1 0.1-0.3 0-0.4-1.5-0.3-3.2-0.1-4.7-0.1q-2.4-0.1-4.8-0.1-4.8-0.1-9.6-0.3-9.7-0.3-19.4-0.9c-0.3 0-0.3 0.5 0 0.5z"/><path class="d" d="m335.9 410.6q0.5 0.1 0.9 0.1 0.2 0.1 0.4 0.1 0.3 0 0.5 0 0.1-0.1 0.2-0.2c0 0-0.1-0.1-0.1-0.2q-0.2-0.1-0.5-0.1-0.2-0.1-0.4-0.1-0.5-0.1-0.9-0.2c-0.2 0-0.4 0.1-0.4 0.3 0 0.2 0.1 0.3 0.3 0.3z"/><path class="d" d="m348.9 413q10.7 1.1 21.4 1.7 5.3 0.3 10.6 0.5c3.6 0.1 7.2 0.1 10.7 0.3 2.1 0.1 4.1 0.2 6.2 0.2 1.9 0.1 3.9 0.3 5.8 0 0.2-0.1 0.2-0.4 0-0.4-1.7-0.3-3.5-0.2-5.2-0.2-1.8 0-3.5-0.1-5.2 0-3.6 0.1-7.2-0.2-10.7-0.3q-10.7-0.5-21.4-1.3-6.1-0.5-12.2-1c-0.3-0.1-0.3 0.5 0 0.5z"/><path class="d" d="m410.4 415.7q0.3 0 0.6 0 0.3-0.1 0.5-0.1c0.1 0 0.2-0.1 0.2-0.2 0-0.1-0.1-0.2-0.2-0.2q-0.2-0.1-0.5-0.1-0.3-0.1-0.6-0.1c0 0-0.2 0.1-0.2 0.1-0.1 0.1-0.1 0.2-0.1 0.3q0 0.1 0.1 0.2 0.1 0.1 0.2 0.1z"/><path class="d" d="m278.7 410.6c14.3 1.9 28.7 3.1 43.1 3.9 4.1 0.2 8.2 0.5 12.3 0.4 0.4 0 0.4-0.5 0-0.5-3.6-0.3-7.3-0.3-10.9-0.5q-5.4-0.3-10.8-0.6c-7.2-0.5-14.4-1.1-21.5-1.9q-6.1-0.7-12.2-1.5c-0.5 0-0.5 0.6 0 0.7z"/><path class="d" d="m341 414.6q0.9 0 1.7 0 0.4 0 0.9 0c0.2 0 0.5 0 0.8-0.1 0.1 0 0.1-0.2 0-0.3-0.3-0.1-0.5-0.1-0.8-0.1q-0.4 0-0.9 0-0.8 0-1.7 0c-0.3 0-0.3 0.5 0 0.5z"/><path class="d" d="m352.7 416c14.6 0.7 29.2 1.1 43.8 2.4q3.1 0.3 6.1 0.6 1.6 0.1 3.2 0.2c1 0.1 1.9 0.3 2.9 0.2 0.2-0.1 0.2-0.4 0-0.4-0.8-0.3-1.6-0.3-2.5-0.4q-1.3-0.1-2.7-0.3-2.7-0.2-5.5-0.4-5.4-0.4-10.9-0.8-10.9-0.7-21.9-1.1c-4.2-0.2-8.3-0.3-12.5-0.3-0.2 0-0.2 0.3 0 0.3z"/><path class="d" d="m412 419.4c0.3 0 0.3-0.4 0-0.4-0.3 0-0.3 0.4 0 0.4z"/><path class="d" d="m275.9 414.1c1.9 0.3 3.8 0.4 5.7 0.6q5.4 0.4 10.8 0.8 7.3 0.6 14.6 1.1 8.6 0.6 17.2 1.2 9.3 0.7 18.6 1.3 9.4 0.7 18.8 1.3 8.8 0.6 17.6 1.2 7.6 0.6 15.3 1.1 5.8 0.4 11.7 0.9c2.3 0.2 4.7 0.4 7 0.5q0.2 0 0.4 0 0.1 0 0.2 0c0.3 0 0 0 0.2 0 0.8 0.1 0.8-1.1 0-1.2-0.2 0 0.1 0 0 0q-0.1 0-0.2 0-0.3-0.1-0.6-0.1c-0.6-0.1-0.7-0.1-1.3-0.1-1.1-0.2-2.3-0.2-3.5-0.3q-5.3-0.4-10.7-0.8-7.2-0.5-14.5-0.9-8.6-0.6-17.2-1.2-9.3-0.6-18.6-1.2-9.4-0.6-18.7-1.2-8.9-0.6-17.7-1.2-7.7-0.5-15.3-1-6-0.4-11.9-0.8-3.5-0.3-7.1-0.6-0.4 0-0.8-0.1c-0.5 0-0.5 0.7 0 0.7z"/><path class="e" d="m415.1 423.1c24.3-19.4 48.8-39.4 72.7-59.4"/><path class="d" d="m416 411.9c2.3-1.5 4.4-3.1 6.6-4.7 2.1-1.7 4.4-3.4 6.3-5.5 0 0-0.1-0.2-0.2-0.1-2.2 1.5-4.1 3.3-6.2 5-2.2 1.7-4.5 3.3-6.7 4.9-0.2 0.2 0 0.5 0.2 0.4z"/><path class="d" d="m435.9 396.6c4.6-3.3 9.1-6.7 13.5-10.3q3.3-2.7 6.5-5.5 1.6-1.3 3.2-2.7c1.1-0.9 2.3-1.8 3.1-2.9 0.1-0.1-0.1-0.3-0.3-0.2-1.2 0.6-2.2 1.7-3.2 2.6q-1.5 1.4-3.1 2.7-3.2 2.7-6.4 5.4c-4.5 3.6-8.9 7.2-13.5 10.7-0.1 0.1 0 0.3 0.2 0.2z"/><path class="d" d="m466.3 372c1.8-1.6 3.7-3.2 5.5-4.9 0-0.1 0-0.2-0.1-0.1-2 1.4-3.8 3.1-5.7 4.7-0.2 0.2 0.1 0.5 0.3 0.3z"/><path class="d" d="m474.8 364.7q2.8-2.1 5.6-4.2 1.4-1.1 2.7-2.1c0.9-0.7 1.9-1.3 2.8-2.1 0-0.1-0.1-0.3-0.2-0.2-1 0.6-1.9 1.4-2.8 2.1q-1.4 1-2.8 2.1-2.8 2.1-5.4 4.4c0 0 0 0.1 0.1 0z"/><path class="d" d="m416.9 415.5q4.3-3.4 8.7-6.7 2-1.6 4-3.2c1.5-1.1 3-2.2 4.4-3.6 0.1-0.1-0.1-0.3-0.2-0.2-1.5 0.9-2.9 2-4.2 3.1q-2.2 1.7-4.3 3.5-4.3 3.5-8.6 6.9c-0.1 0.1 0.1 0.3 0.2 0.2z"/><path class="d" d="m438 399.3c4.1-3 8.1-6.3 12.1-9.5 2-1.7 3.9-3.4 5.9-5 2-1.7 4.1-3.3 5.9-5.2 0.1 0 0-0.2-0.1-0.1-2 1.4-3.8 3.2-5.7 4.8-1 0.8-1.9 1.7-2.9 2.5-1.1 0.8-2.2 1.6-3.2 2.4-4.1 3.3-8.2 6.5-12.3 9.6-0.3 0.3 0.1 0.8 0.3 0.5z"/><path class="d" d="m466.9 375.9c3.2-3.1 6.4-6.1 9.8-9q2.4-2.2 4.9-4.3 1.3-1.1 2.5-2.1c0.8-0.7 1.8-1.3 2.5-2.1 0.1-0.2-0.1-0.3-0.3-0.3-0.9 0.5-1.7 1.3-2.5 1.9q-1.2 1.1-2.5 2.2-2.5 2.2-5 4.4c-3.3 2.9-6.4 6-9.6 9.2-0.1 0.1 0.1 0.2 0.2 0.1z"/><path class="d" d="m416.3 418.8q2.3-1.6 4.6-3.1c1.5-1 3.1-2 4.5-3.2 0.1-0.2-0.1-0.4-0.3-0.3-1.6 0.8-3.1 1.9-4.6 2.9q-2.3 1.6-4.6 3.1c-0.3 0.3 0 0.8 0.4 0.6z"/><path class="d" d="m439.9 401.4q5.4-4.6 10.7-9.2c3.5-3.1 7.2-6 10.5-9.3 0.1-0.1 0-0.2-0.1-0.1-3.7 2.8-7.2 5.9-10.7 8.9q-5.4 4.6-10.8 9.3c-0.2 0.2 0.2 0.6 0.4 0.4z"/><path class="d" d="m469.5 376c2.6-2.2 5.2-4.4 7.8-6.5q1.9-1.6 3.8-3.1c1.3-1.1 2.8-2.1 4-3.3 0.1-0.1-0.1-0.3-0.2-0.2-1.4 0.8-2.6 1.9-3.8 2.9q-2 1.6-4 3.3c-2.7 2.2-5.2 4.5-7.8 6.7-0.1 0.1 0.1 0.3 0.2 0.2z"/><path class="f" d="m407.4 398.6c0.4-1.4-1.2-2.1-2.3-1.7-0.9 0.4-1.5 1.1-2.1 1.8-0.3 0.3-1.2 1.3-1.7 0.7-0.3-0.3-0.4-0.9-0.6-1.2-0.8-1.3-2.2-2.4-3.9-1.9-1.2 0.4-3.4 3.3-4.8 1.7-0.1-0.1-0.3 0.1-0.2 0.2 0.5 1.2 2.1 1.1 3 0.4 0.8-0.6 1.3-1.5 2.2-1.8 1.1-0.4 2.1 0.3 2.8 1q0.5 0.6 0.7 1.4c0.1 0.2 0.2 0.5 0.4 0.8 0.5 0.6 1.2 0.2 1.7-0.2 0.6-0.5 1.1-1.2 1.6-1.8 0.4-0.4 1-0.9 1.6-0.9 0.7 0 1.5 0.6 1.2 1.4 0 0.2 0.3 0.3 0.4 0.1z"/><path class="f" d="m387.7 398.7q-0.1 0-0.1 0c0.1-0.1 0.1 0 0 0 0 0-0.1 0 0 0 0.1 0 0 0 0 0q0 0-0.1 0c0.1 0 0.1 0 0.1 0q0 0-0.1 0c0.1 0 0.1 0 0.1 0-0.1 0-0.2 0-0.1 0q0 0-0.1 0 0-0.1-0.1-0.1 0 0 0 0c0.1 0 0 0 0 0q-0.1-0.1-0.2-0.2 0-0.1-0.1-0.1 0 0 0 0 0 0 0 0 0-0.1-0.1-0.1c0-0.1-0.1-0.1 0-0.1q0 0-0.1 0 0-0.1 0-0.1-0.1-0.2-0.2-0.3c0-0.1-0.2 0-0.2 0.1 0 0.2 0 0.3 0.1 0.5q0 0.1 0 0.1 0 0.1 0 0.2 0.1 0.1 0.2 0.2 0.1 0.3 0.4 0.5 0.2 0.1 0.5 0.1c0.2 0.1 0.4-0.1 0.6-0.2 0.1-0.1 0.1-0.4 0-0.5-0.2-0.2-0.4-0.2-0.5 0z"/><path class="f" d="m383.4 397c-1.1 0.8-2.7 0.3-4 0q-2.3-0.6-4.7-1.2-2.3-0.7-4.7-1.3-1.1-0.3-2.3-0.5c-0.7-0.2-1.4-0.5-2.2-0.4-0.1 0-0.2 0.2 0 0.2 0.7 0.5 1.5 0.6 2.3 0.8q1.2 0.4 2.5 0.7 2.6 0.7 5.3 1.4c1.6 0.5 3.2 1 4.9 1.3 1.2 0.3 2.4 0.3 3.3-0.5 0.3-0.2-0.1-0.7-0.4-0.5z"/><path class="f" d="m360.2 395c-1.4-0.9-3.2 0-4.4 0.8q0.2 0.2 0.4 0.3c0.3-2-2.7-2.7-4-1.5-0.4 0.3-0.5 0.7-1.1 0.8-0.3 0-0.7 0-1-0.1q-1.7-0.1-3.3-0.4c-0.8-0.1-1.6-0.3-2.5-0.4q-0.7-0.1-1.5-0.2c-0.4 0-1.3 0.1-1.7-0.2-0.4-0.2-0.5-0.8-0.8-1.1-0.4-0.3-0.9-0.5-1.4-0.7-1.1-0.3-2.3-0.4-3.4-0.2-0.6 0-1.1 0.2-1.6 0.3-1.1 0.2-1.1-1-1.8-1.4-0.5-0.3-1.1-0.3-1.6-0.2-0.9 0-1.7 0.1-2.6 0-1.6-0.3-3.2-0.7-4.8-0.2-1.1 0.3-2.5 1.2-2.4 2.5 0.1 0.2 0.3 0.4 0.5 0.1 0.4-0.9 0.9-1.5 1.9-1.9 0.9-0.3 1.9-0.2 2.9-0.1 1.1 0.2 2.2 0.4 3.3 0.4 0.9 0 2.3-0.5 2.8 0.4 0.4 0.7 0.8 1.1 1.6 1 0.8-0.2 1.6-0.5 2.4-0.6q2.9-0.5 4.4 1.9 0.1 0.1 0.2 0.1c0.9 0 1.8 0.3 2.7 0.5 0.8 0.2 1.6 0.3 2.4 0.4 1.7 0.2 3.3 0.8 5 0.9 0.4 0.1 0.9-0.1 1.2-0.4 0.4-0.4 0.6-0.9 1.2-1.1 1.1-0.4 2.1 0.5 2.4 1.4 0.1 0.2 0.4 0.3 0.5 0.1 0.4-0.6 1.2-1.1 1.9-1.2 0.7-0.1 1.4 0.2 2 0.5 0.3 0.1 0.5-0.3 0.2-0.5z"/><path class="f" d="m316.2 392.7q-0.8 0-1.5 0-0.4 0-0.8 0-0.2 0-0.4 0c-0.2 0-0.3 0.1-0.4 0.2-0.2 0.1-0.2 0.3 0 0.4 0.1 0.1 0.2 0.1 0.4 0.1q0.2 0.1 0.3 0.1 0.4 0 0.9 0 0.7 0 1.5-0.1c0.5 0 0.5-0.7 0-0.7z"/><path class="f" d="m416 391.7c0.3-0.8 0.1-1.7-0.4-2.3-0.5-0.6-1.4-0.7-2.1-0.6-0.9 0.2-1.4 0.9-2 1.6-0.2 0.3-0.5 0.6-0.9 0.8q-0.3 0.1-0.6 0.1c-0.2 0-0.3-0.1-0.5-0.1-0.2 0-0.3 0.1-0.3 0.3 0.4 0.7 1.4 0.5 1.9 0.1 0.7-0.4 1-1.2 1.4-1.8 0.3-0.3 0.6-0.7 1.1-0.8 0.4-0.1 0.9 0.1 1.2 0.3 0.7 0.5 1 1.4 0.6 2.1-0.2 0.4 0.4 0.7 0.6 0.3z"/><path class="f" d="m404.5 390.1c0.2-1.5-1.1-2.6-2.6-2.6-1.8 0-3.1 1.6-4.1 2.9q0.3 0.1 0.6 0.2c-0.4-1.6-2.2-1.9-3.5-1.8-0.9 0.1-1.7 0.4-2.5 0.8-0.6 0.2-1.1 0.4-1.6 0.6-0.5 0.1-1 0.2-1.4 0.4-0.2 0.1-0.1 0.3 0.1 0.4 0.6 0.2 1.4-0.1 2-0.4 0.8-0.4 1.6-0.9 2.4-1.1 1.4-0.5 3.2-0.3 3.8 1.2 0.1 0.3 0.4 0.4 0.6 0.1 0.7-1.1 1.5-2.4 2.9-2.7 1-0.3 2.7 0.4 2.5 1.8 0 0.4 0.7 0.7 0.8 0.2z"/><path class="f" d="m382.5 389.9q-0.8-0.3-1.5-0.6c-0.1-0.1-0.1 0.1 0 0.1q0.6 0.5 1.3 0.8c0 0.1 0.2 0.1 0.2 0 0.1-0.1 0.1-0.3 0-0.3z"/><path class="f" d="m376.4 388.8c-0.1 0 0-0.1 0 0q-0.1 0-0.1 0 0 0 0 0c-0.1 0 0 0 0 0q-0.1 0-0.1 0c-0.1 0.1 0.1 0 0 0q0 0 0 0-0.1 0-0.1 0c-0.1 0 0 0.1 0 0q-0.1 0-0.1 0 0 0-0.1 0 0 0 0 0c-0.1 0-0.1-0.1 0 0q-0.1-0.1-0.2-0.1c0 0 0 0 0 0q0 0 0-0.1-0.1 0-0.1 0c0 0 0 0 0 0q0-0.1 0-0.1-0.1 0-0.1 0c0-0.1 0.1 0 0 0q0-0.1 0-0.2 0 0-0.1 0c0.1 0.1 0 0 0 0 0-0.2-0.2-0.2-0.3-0.1q0 0.1-0.1 0.2 0 0.2 0.1 0.3 0.1 0.3 0.2 0.4c0.3 0.3 0.6 0.4 0.9 0.3q0.4 0 0.6-0.2c0.1-0.1 0.1-0.3 0-0.4-0.1-0.2-0.3-0.2-0.4 0z"/><path class="f" d="m371.7 387.8c-0.9 0.8-2.6 0.1-3.6-0.1-0.9-0.3-1.8-0.6-2.7 0.1q0.3 0 0.6 0.1c-0.6-1.2-1.8-2-3.1-2.1-1.3-0.1-2.9 0.5-3.5 1.7q0.2-0.1 0.4-0.2c-1.9-0.7-4.1-0.5-5.9 0.3-0.5 0.2-0.1 0.9 0.4 0.5 1.5-1.2 3.6-1.1 5.2-0.1 0.1 0.1 0.3 0.1 0.4 0 0.8-1 1.7-1.9 3-1.7 1.1 0.2 2 1 2.5 1.9 0.1 0.2 0.4 0.3 0.5 0.1 0.9-1.1 2.4-0.3 3.4 0.1 1 0.4 2 0.5 2.8-0.2 0.3-0.3-0.2-0.7-0.4-0.4z"/><path class="f" d="m414.2 385c0.2-0.7 0.4-1.7-0.2-2.2-0.6-0.6-1.3-0.5-2-0.2-0.6 0.3-1.1 0.8-1.6 1.3-0.2 0.3-0.5 0.6-0.8 0.8-0.3 0.2-0.6 0.3-0.9 0.4-0.1 0.1-0.1 0.3 0 0.4 0.6 0.2 1.2-0.2 1.7-0.6 0.4-0.5 0.7-1.1 1.2-1.5 0.4-0.2 1.1-0.6 1.6-0.3 0.5 0.3 0.3 1.2 0.2 1.7-0.1 0.5 0.7 0.7 0.8 0.2z"/><path class="f" d="m402.7 382.6c-0.6-0.8-1.5-1-2.4-0.8-1 0.1-1.7 0.5-2.4 1.1q0.4 0.1 0.7 0.2c-0.3-1.3-2-1.6-3.1-1.4-0.8 0-1.5 0.3-2.2 0.5-0.7 0.3-1.6 0.6-2.2 1.1-0.1 0.1 0 0.3 0.1 0.4 0.6 0 1.2-0.3 1.7-0.5 0.6-0.4 1.3-0.8 2.1-0.9 0.6-0.2 1.2-0.1 1.7 0.2 0.5 0.2 0.9 0.6 1.2 1 0.2 0.3 0.6 0.1 0.7-0.2 0.3-0.6 1.2-1 1.8-1 0.6 0 1.4 0.3 1.8 0.7 0.4 0.3 0.8-0.1 0.5-0.4z"/><path class="f" d="m387.9 381.6q-0.2-0.1-0.4-0.1-0.3-0.1-0.5-0.1-0.1 0-0.2 0-0.2 0-0.3 0-0.2 0-0.4 0c-0.1 0-0.2 0.2-0.1 0.3q0.2 0.1 0.4 0.2 0.1 0 0.2 0.1 0.1 0 0.2 0.1 0.2 0 0.4 0.1 0.3 0.1 0.5 0.1c0.2 0.1 0.4 0 0.5-0.2 0-0.2-0.1-0.5-0.3-0.5z"/><path class="f" d="m381.8 381.2q-0.6-0.1-1.2-0.3c-0.4-0.1-0.8-0.1-1.2 0-0.8 0-1.6-0.1-2.3-0.1q-1.2 0-2.3 0.2c-0.7 0.1-1.6 0.2-2.3 0.7-0.1 0 0 0.2 0.1 0.2 0.7 0 1.5-0.3 2.2-0.4 0.7-0.1 1.5-0.3 2.3-0.3 0.7-0.1 1.5-0.1 2.3 0.1 0.3 0 0.6 0.2 1 0.2q0.6 0.1 1.3 0.2c0.2 0 0.4-0.4 0.1-0.5z"/><path class="f" d="m368.5 381.4q-0.3 0-0.5 0-0.3 0-0.5 0c-0.2 0.1-0.2 0.2 0 0.3q0.2 0 0.5 0 0.2 0 0.5 0c0.1 0 0.2-0.1 0.1-0.2 0 0 0-0.1-0.1-0.1z"/><path class="f" d="m361 379.9q-0.4 0-0.9 0-0.4 0.1-0.8 0.2c-0.2 0-0.2 0.2 0 0.2q0.4 0.1 0.8 0.1 0.5 0.1 0.9 0.1c0.2 0 0.3-0.1 0.3-0.3 0-0.2-0.1-0.3-0.3-0.3z"/><path class="f" d="m351.8 380.6q-1.1 0.4-2.3 0.6c-0.8 0.1-1.6 0.1-2.4 0.2-0.1 0-0.2 0.2 0 0.3 1.6 0.4 3.3 0 4.8-0.7 0.3-0.1 0.2-0.5-0.1-0.4z"/><path class="f" d="m427.1 381.6c0-0.3 0.2-0.7 0.4-0.9 0.2-0.2 0.4-0.5 0.6-0.6 0.1 0 0.2 0 0.3 0q0.1-0.1 0.2-0.2 0.2-0.2 0.4-0.3 0.3-0.4 0.4-0.8c0.2-0.5 0.2-1.1-0.1-1.6q-0.2-0.4-0.6-0.5c-0.3-0.1-0.5-0.1-0.7 0.1-0.2 0.1-0.1 0.3 0 0.4 0.1 0 0.2 0.1 0.3 0.1q0 0 0 0c0.1 0.1 0 0 0 0.1q0.1 0 0.1 0-0.1 0 0 0.1c0 0 0.1 0.2 0 0.1q0 0 0 0 0-0.1 0.1 0.1 0 0.1 0 0.1c0-0.1 0 0.1 0 0.1q0 0.1 0 0.2 0 0.1 0 0.1c0 0.1 0 0.2 0 0.1 0 0.3-0.1 0.4-0.2 0.6-0.1 0.2-0.3 0.4-0.5 0.6 0 0.1 0 0.2 0 0.3q-0.1 0-0.1 0.1-0.1 0.2-0.2 0.3c-0.4 0.4-0.6 0.9-0.7 1.4 0 0.1 0.2 0.1 0.3 0z"/><path class="f" d="m420.4 378.5c0.9-0.1 1.9-0.2 2.5-1 0.4-0.8 0.2-1.8-0.7-2-0.8-0.2-1.7 0.1-2.4 0.4q-0.6 0.3-1 0.7c-0.3 0.2-0.6 0.6-0.8 1-0.2 0.2 0 0.5 0.3 0.5 1 0.1 1.4-1.2 1-1.9-0.5-1-1.9-0.8-2.7-0.4-0.1 0-0.1 0.2 0.1 0.2 0.5-0.1 1.6-0.2 1.9 0.4 0.1 0.3 0.1 1-0.3 1q0.2 0.2 0.3 0.4c0.1-0.3 0.2-0.5 0.4-0.8q0.3-0.4 0.7-0.6c0.6-0.4 1.2-0.6 1.9-0.5 0.2 0.1 0.6 0.2 0.6 0.5 0.1 0.2 0 0.5-0.1 0.6-0.3 0.6-1.1 0.6-1.7 0.7-0.5 0-0.5 0.8 0 0.8z"/><path class="f" d="m413.9 376.6q-0.4 0-0.8 0-0.5 0.1-0.9 0.1c-0.1 0-0.1 0.2 0 0.2q0.4 0 0.9 0.1 0.4 0 0.8 0c0.3 0 0.3-0.4 0-0.4z"/><path class="f" d="m409.9 374.8c-2.5-1.5-6-1.2-8.4 0.4q0.4 0.3 0.7 0.5c0.5-1.4-0.9-2.5-2.1-2.8-1.8-0.5-3.6 0.5-5.2 1.1-0.2 0.1-0.2 0.4 0 0.4 0.7 0.1 1.2 0 1.9-0.2 0.6-0.3 1.2-0.7 1.9-0.8 1.3-0.3 3.2 0.6 2.6 2.1-0.1 0.4 0.5 0.7 0.8 0.4 2.1-1.8 5-1.8 7.4-0.4 0.4 0.3 0.8-0.4 0.4-0.7z"/><path class="f" d="m393 373.5c-0.3 0.2-0.5 0.4-0.8 0.5q-0.1 0.1-0.3 0.2 0 0 0 0c0 0-0.1 0-0.1 0q-0.1 0.1-0.2 0.1-0.1 0 0 0 0 0-0.1 0 0 0.1-0.1 0.1-0.2 0.1-0.2 0.2 0-0.1 0.1-0.1-0.1 0-0.1 0.1-0.1 0-0.1 0.1c-0.1 0.1-0.1 0.2 0 0.3q0.1 0 0.2 0.1 0.1 0 0.2 0-0.1-0.1-0.2-0.1 0.1 0.1 0.3 0.1 0.1 0 0.2 0 0.1-0.1 0.3-0.2 0.2-0.1 0.5-0.2 0.5-0.3 0.9-0.7c0.1-0.2 0.1-0.4 0-0.5-0.2-0.2-0.4-0.2-0.5 0z"/><path class="f" d="m387.1 375.4q0-0.1-0.1-0.3 0-0.1 0-0.2 0-0.1 0-0.2-0.1-0.1-0.2-0.1-0.1 0-0.2 0.1 0 0.1 0 0.2-0.1 0.1-0.1 0.2 0 0.2 0 0.3c0 0.2 0.1 0.3 0.3 0.3q0.1 0 0.2-0.1 0.1 0 0.1-0.2z"/><path class="f" d="m381.4 372.5q-0.3 0.3-0.6 0.6 0.4 0.1 0.7 0.2 0-0.2 0-0.5-0.1-0.1-0.1-0.2-0.1-0.1 0-0.1 0 0.1 0 0-0.1 0-0.1-0.1 0-0.2-0.1-0.4 0-0.1-0.1-0.2-0.1-0.1-0.1-0.2-0.1-0.1-0.3-0.1c0 0-0.1 0-0.1 0.1q-0.1 0.1-0.1 0.2 0 0.2 0 0.3 0 0.3 0.1 0.5 0 0.1 0 0.1 0 0.1 0-0.1 0 0.1 0 0.2 0 0.1 0 0.2 0.1 0.3 0.1 0.5c0.1 0.3 0.5 0.4 0.7 0.2q0.3-0.3 0.6-0.7c0.2-0.1 0.2-0.4 0-0.5-0.2-0.2-0.4-0.2-0.6 0z"/><path class="f" d="m377.3 370.9q-0.7 1.2-1.4 2.4 0.4 0.1 0.8 0.1c-0.4-1.3-2-1.9-3.3-1.3q0.3 0.1 0.7 0.2-0.1-0.4-0.2-0.8c-0.1-0.2-0.2-0.4-0.4-0.6 0-0.1-0.2-0.1-0.3 0-0.1 0.3-0.1 0.5-0.1 0.8q0.1 0.4 0.1 0.8c0.1 0.3 0.4 0.4 0.7 0.3 0.3-0.2 0.8-0.1 1.1 0 0.5 0.2 0.8 0.5 0.9 1 0.2 0.2 0.7 0.2 0.8 0q0.6-1.3 1.2-2.6c0.2-0.4-0.4-0.7-0.6-0.3z"/><path class="f" d="m369.5 370.9q-0.5 0.1-1 0.2 0.1 0.1 0.1 0.1-0.2-0.4-0.5-0.8c-0.2-0.3-0.4-0.5-0.6-0.8-0.1 0-0.1 0-0.1 0.1 0.1 0.3 0.3 0.6 0.5 0.8q0.2 0.4 0.5 0.8 0.1 0.1 0.2 0.1 0.4-0.1 0.9-0.3c0.2 0 0.1-0.2 0-0.2z"/><path class="f" d="m363.5 369.5q-0.9 0.8-1.8 1.6 0.3 0 0.5 0c-0.5-0.8-1.5-1.1-2.4-1.2-0.5-0.1-1-0.1-1.5 0-0.4 0.2-0.9 0.4-1.1 0.9 0 0.1 0.1 0.2 0.2 0.2 0.4-0.2 0.7-0.5 1-0.7 0.4-0.1 0.9-0.3 1.3-0.2 0.9 0 1.5 0.6 2 1.4 0.1 0.2 0.3 0.2 0.5 0q0.9-0.8 1.8-1.6c0.3-0.2-0.2-0.7-0.5-0.4z"/><path class="f" d="m439.3 371.4c0.7 0.1 1.4-0.6 1.4-1.2q0-0.3-0.1-0.5-0.1-0.2-0.3-0.2-0.1 0-0.2-0.1-0.3 0-0.5 0-0.1 0-0.3 0c-0.1 0.1-0.1 0.1-0.2 0.1-0.4 0.1-0.8 0.3-1 0.6 0 0.2 0 0.4 0.1 0.5 0.1 0.1 0.3 0 0.4-0.1q0.1 0 0.2-0.1 0.1-0.1 0.2-0.2 0-0.1 0.1-0.1c-0.1 0 0 0 0 0q0 0 0 0 0.2-0.1 0.3-0.2c0 0 0 0 0 0q0 0 0 0 0.1 0 0.2 0 0 0 0.2 0 0 0 0.1 0 0 0 0.1 0c0 0 0 0 0 0q0.1 0 0.2 0-0.1 0-0.1-0.1c0 0 0 0.1 0 0 0 0 0 0.1 0 0.1q0 0 0 0.1 0-0.1 0 0 0 0 0 0.1c0 0 0-0.1 0 0q0 0 0 0 0 0.1-0.1 0.1 0 0.1 0 0 0 0.1 0 0.1 0 0.1-0.1 0.2c0 0 0-0.1 0 0q0 0 0 0-0.1 0.1-0.1 0.1 0 0 0 0c-0.1 0.1 0 0 0 0q-0.1 0.1-0.1 0.1-0.1 0-0.1 0c0 0 0.1 0 0 0q0 0-0.1 0 0 0 0 0c-0.1 0.1 0 0 0 0q-0.1 0-0.2 0c-0.1 0-0.3 0.2-0.3 0.4 0 0.2 0.2 0.3 0.3 0.3z"/><path class="f" d="m432.6 369.9c0.3 0 0.3-0.5 0-0.5-0.4 0-0.4 0.5 0 0.5z"/><path class="c" d="m535.3 348c-16.7 7.6-94.6 16-94.6 16 0 0-6-6-9.3-11.3q-0.8-1.3-1.4-2.4c-2.5-5.6-1.5-16.3 2.1-18.9 1.8-1.3 17.4-8.3 32-15.1 11.7-5.5 22.7-10.8 25.4-12.9q0.5-0.5 0.6-0.7 0-0.3 0-0.6c0-2.6-3.2-9.1-5.8-14.1 5.3-2.8 17.5-8.5 31.4-9.6 12.1-0.8 19.7-1.1 23.5-1.3 6.8 16.7 14.1 36.3 15 43.9 1.5 13.2-2.1 19.3-18.9 27z"/><path class="g" d="m387.2 334.4c0 0 21.7-68.9 26.9-67.6 5.3 1.4-16.9 64.7-16.9 64.7z"/><path class="c" d="m443.5 364.2c-6.1 5.1-13.8 7.5-18.3 7.4q-6.7 0-13.4-0.1-13-0.1-26-0.2c-2.7 0-5.6 0-8-1.2q-0.7-0.4-1.4-0.9-0.4-0.2-0.7-0.6c-1.8-1.6-3.1-3.8-4.1-6.1q-0.2-0.3-0.3-0.7-0.3-0.8-0.6-1.7c-0.6-1.7-1.2-3.5-1.5-5.3q-0.1-0.4-0.1-0.8-0.2-1.8 0-3.6c0.6-3.8 3.1-7 5.7-9.9 5.8-6.6 12.7-12.5 20.8-16.1 8.2-3.6 17.6-4.6 26-1.6 3.7 1.3 7.9 3.3 12.1 4.4q1.4 0.4 2.8 0.6 1.2 0.2 2.3 0.2l4.4-0.2c1.9 3.5 1.6 7.3 1.3 11.2-0.1 1.4-0.2 2.7-0.3 4.1-0.1 1.5 0 3 0.2 4.5 1.2 7.5 5.8 11.1-0.9 16.6z"/><path class="d" d="m388.5 31.3c-2.3-5.6-5.6-10.9-9.8-15.3-4.3-4.7-9.7-8.2-15.5-10.7-13.1-5.5-27.7-5.3-41.3-2.1-11.5 2.6-23.4 7.5-31.2 16.8q-1.4 1.7-2.6 3.5c-0.3 0.5 0.4 0.8 0.7 0.5-1.4 3.5-1.3 7.4 0 11 1.6 4 4.5 7.2 8 9.5 8.4 5.5 19 5.7 28.6 6.8 5.3 0.5 10.7 1 16 2.1 4.5 0.8 8.4 2.8 11.7 6.1 6.8 6.8 9.3 16.4 12.7 25.1 1.8 4.6 4 8.9 6.6 13.1 2.5 4.2 5.2 8.3 7.3 12.7q0.8 1.6 1.5 3.3 0.1 0.1 0.2 0.2 0 0 0 0c-0.1 0.2 0.1 0.4 0.2 0.2q0.1-0.1 0.1-0.1c0.3-0.1 0.7-0.4 0.5-0.7q0-0.1 0-0.1c3.4-5.7 5.9-11.9 7.6-18.3 1.9-7.1 2.7-14.5 3.4-21.9 1.3-13.9 0.8-28.5-4.7-41.7z"/><path class="c" d="m374.6 70.9c0 0 2.7 22 7.1 36.3 4.4 14.2 12.2 24.7 12.2 24.7 0 0-7.5 24.4-29.5 28.9-22 4.4-24.8-2.1-24.8-2.1 0 0-0.3-27.8-6.4-38-5.2-8.6-0.7-30.2 10.2-39 10.8-8.8 31.2-10.8 31.2-10.8z"/><path class="d" d="m343.1 153.4c2.3-1.9 4.5-3.9 6.6-6 2.1-2 4.2-4 6-6.3 2.4-3 4.4-6.2 6-9.7 3.2-6.9 5-14.6 5.9-22.2 0.8-7.6 0.9-15.5-0.6-23.1-0.7-4-1.8-7.9-3.1-11.7q-0.3-0.7-0.6-1.5c-6.5 1.6-14.4 4.4-19.9 8.8-10.9 8.8-15.4 30.4-10.2 39 4.9 8.2 6.1 27.7 6.4 35.1 1.2-0.7 2.4-1.6 3.5-2.4z"/><path class="c" d="m291.5 45.4c0 0-7.8 31.6-1.7 62.8 6.1 31.2 22.4 46.1 41 43.1 18.7-3.1 28.5-22.8 35-37.3 6.4-14.6 5.7-44.5 5.7-44.5 0 0 1.7-28.1-20.7-34.2-22.4-6.1-58.3 7.4-59.3 10.1z"/><path class="d" d="m373.1 23.2c-8.5-8.7-21.8-11.6-33.8-9.5-4.6 0.8-9.1 2.3-13.7 1.6-2.6-0.4-5.1-1.4-7.5-2.4-4.2-1.8-3.7-4.2-7.9-6l-12.7 8.9c-8.1 1.2-16.6 2.8-21.3 5.3-4.8 2.5-8.9 6.9-9.1 12.2-0.1 1.6 0.2 3.2 1.1 4.4 2.3 3.3 7.2 2.8 11.1 1.9-2.5 1.7-4.9 3.8-6.2 6.5-1.4 2.7-1.6 6.1 0.1 8.7 2.4 3.8 7.7 4.5 12.2 3.9 6.3-0.8 12.3-3.2 17.4-7-1.9 2.4-3.1 5.2-3.7 8.2-0.2 1.5-0.2 3.2 0.8 4.3 0.8 0.7 2 0.9 3.1 1 6.9 0.2 13.2-4.5 16.6-10.5 1.6 6 6.9 10.8 13 11.8 6.1 1 12.6-1.9 16-7 0.6 3.5 1.6 7 3.8 9.8 2.2 2.8 5.6 4.8 9.1 4.6 2.8-0.2 5.4-1.6 7.6-3.3 7.1-5.5 11.9-13.9 12.7-22.9 0.8-8.9-2.4-18.1-8.7-24.5z"/><path class="h" d="m402.5 79.6q-0.2-1.7-0.5-3.3c-1.3-7.4-5.5-13.8-12.7-16.5-13.2-5.1-22.4 2.3-26.9 13.2-4.6 10.9-0.3 28 8.1 33.1 8.4 5.1 21.1 3.8 27.5-3.9 4.9-5.9 5.4-14.9 4.5-22.6z"/><path class="h" d="m294.4 16c0 0 13.8-9.9 34.1-8.1 20.4 1.8 32.6 13.5 39.7 25.9 7.1 12.5 8.4 32.1 8.4 32.1l9.2-3.6c0 0-0.5-26.4-17.8-44.2-17.3-17.9-40-19.6-54.5-15.3-11.2 3.3-19.1 13.2-19.1 13.2z"/><path class="d" d="m296.6 91c-0.1 1.5 0.1 3 0.6 4.4 0.6 1.3 1.7 2.5 3.1 3 1.4 0.5 3.1 0.2 4.1-0.9 0.7-0.7 1-1.8 1.2-2.8 0.3-1.1 0.4-2.2 0.2-3.3-0.2-0.8-0.6-1.6-1-2.4-1.6-2.7-5.6-4.6-7.5-0.9-0.5 0.9-0.6 1.9-0.7 2.9z"/><path class="d" d="m331.8 94.9c-0.1 1.6 0.1 3.1 0.7 4.5 0.6 1.4 1.7 2.6 3.1 3.1 1.4 0.5 3.2 0.3 4.2-0.8 0.8-0.8 1.1-1.9 1.3-3 0.3-1.1 0.4-2.3 0.2-3.4-0.2-0.9-0.6-1.7-1.1-2.4-1.6-2.9-5.7-4.8-7.7-1-0.4 1-0.6 2-0.7 3z"/><path class="d" d="m291.9 80.9c2.3-0.4 4.7-0.6 7-0.7 1.2 0 2.4-0.1 3.6 0q0.5 0 0.9 0.1c-0.5-0.1 0.2 0 0.3 0 0.9 0.2 1.8 0.4 2.7 0.1 1.4-0.5 2.4-2.3 1.5-3.7-1.1-1.7-3.1-2-5-2.1-1.4 0-2.8 0.1-4.2 0.3-2.9 0.3-5.6 1.3-8.2 2.6-0.9 0.4-1.2 1.5-0.8 2.3 0.4 0.9 1.2 1.3 2.2 1.1z"/><path class="d" d="m331.7 83c0.6 0.1 1.2 0.4 1.8 0.5q1.2 0.2 2.4 0.3 1 0.1 1.9 0.2c-0.6-0.1 0.3 0.1 0.5 0.1q0.7 0.1 1.5 0.2c-0.7-0.1 0.1 0 0.2 0.1q0.6 0.1 1.1 0.2 1 0.2 1.9 0.5 0.3 0.1 0.7 0.3 0.2 0 0.4 0.1-0.7-0.3-0.2 0c0.7 0.3 1.3 0.6 2 0.8 1.2 0.4 2.6-0.2 3.3-1.1 0.8-1.1 0.8-2.3 0.2-3.5-1.4-3-5.9-3.5-8.9-3.7-1.4-0.1-2.8 0-4.2 0.2-0.9 0.1-1.7 0.2-2.5 0.5-0.7 0.1-1.4 0.5-2.1 0.7-0.7 0.3-1.3 1-1.3 1.8 0 0.8 0.5 1.6 1.3 1.8z"/><path class="d" d="m310.9 126.1c2.2 1 4.8 1.2 7.2 1.3q3.8 0.3 7.5-0.2 3.8-0.4 7.4-1.4c2.4-0.7 4.8-1.5 6.7-3.1 0.3-0.3-0.1-0.7-0.4-0.6-2.4 0.4-4.7 1.4-7 2.1q-3.4 0.9-6.9 1.4-3.5 0.4-7.1 0.3-1.7 0-3.5-0.2c-1.2-0.1-2.5-0.3-3.7-0.3-0.4 0-0.6 0.6-0.2 0.7z"/><path class="d" d="m316.5 78.7c-0.3 4-0.2 8.1-0.1 12.1q0 3 0.1 5.9c0 2 0.1 4 0 5.9-0.1 0.8 0 1.8-0.4 2.5-0.4 0.9-1.6 1.1-2.5 1.4q-1.3 0.3-2.7 0.5c-0.7 0.1-1.4 0.1-2.1 0.3-1.2 0.3-2.3 1.3-1.9 2.7 0.5 1.4 2.2 2.1 3.4 2.6 1.9 0.7 3.8 1.2 5.7 1.3 1.9 0.2 4.3 0.4 5.9-0.7 0.5-0.4 0.6-1.4-0.2-1.5-1.6-0.4-3.2 0.1-4.9 0.1q-2.4 0-4.8-0.7c-0.7-0.1-3.9-0.9-3.6-2 0.2-0.4 0.9-0.6 1.3-0.7 0.8-0.1 1.7-0.2 2.5-0.3 1.3-0.3 3.1-0.6 4.3-1.5 1.2-1 1.2-2.7 1.3-4.1 0.3-3.7 0.2-7.3 0.2-11 0.1-4.2 0.2-8.5-0.3-12.8-0.1-0.7-1.1-0.7-1.2 0z"/><path class="d" d="m389.2 60.1c-2.2 0.7-4.3 1.5-6.3 2.8-1.9 1.2-3.7 2.7-5.1 4.4-3.2 3.6-5.1 8.1-5.7 12.8-0.7 5-0.3 10.2 1.5 15 1.7 4.6 4.8 9 9.2 11.3 4.3 2.1 10.8 1.8 13.6-2.6 0.2-0.3-0.3-0.7-0.5-0.4-3 3.2-8 3.8-11.9 2.1-4.2-1.9-7.3-6-9-10.2-3.3-8.4-2.7-18.9 2.8-26.2 1.4-1.9 3.1-3.5 5-4.9 2-1.4 4.3-2.6 6.6-3.5 0.4-0.2 0.2-0.7-0.2-0.6z"/><path class="d" d="m379 57.8q0.3-1.3 0.2-2.5 0-0.7-0.2-1.3c0-0.4-0.1-0.9-0.5-1.1q-0.2 0-0.3 0.1c-0.3 0.3-0.2 0.8-0.1 1.1q0 0.6 0 1.2 0.1 1.2 0.1 2.3c0 0.5 0.7 0.7 0.8 0.2z"/><path class="d" d="m382.4 57.4c0.1-0.5 0.2-1 0.1-1.5 0-0.3-0.1-0.6-0.2-0.9q0-0.1-0.1-0.3-0.1-0.2-0.3-0.3c-0.1-0.2-0.4 0-0.4 0.2q0 0.2 0 0.4c0 0.1 0 0.1 0 0.2q0 0.2 0.1 0.4 0 0.1 0 0.1 0 0 0 0.1 0 0 0 0.1 0 0.1 0 0.1c0.1 0.4 0.1 0.9 0 1.3 0 0.2 0.2 0.4 0.4 0.4 0.2 0 0.3-0.1 0.4-0.3z"/><path class="a" d="m377.1 88.9c0 1.4 0.3 2.9 0.8 4.3 0.2 0.7 0.5 1.4 0.9 2 0.3 0.5 0.9 1.4 1.5 1.4 0.2 0 0.3-0.1 0.3-0.2 0.1-0.3 0-0.6-0.1-0.9-0.1-0.3-0.3-0.6-0.5-0.9-0.3-0.6-0.6-1.2-0.9-1.8-0.5-1.3-0.9-2.6-1.1-3.9 0-0.6-0.9-0.7-0.9 0z"/><path class="a" d="m383 98.8q0.2 0.7 0.7 1.3 0.3 0.3 0.6 0.5 0.3 0.3 0.7 0.4c0.2 0.1 0.5 0.2 0.8 0.1 0.2 0 0.3-0.2 0.2-0.4 0-0.2-0.2-0.3-0.3-0.4q-0.3-0.1-0.6-0.3-0.1-0.1-0.3-0.2 0 0 0 0c-0.1-0.1 0.1 0.1 0 0q-0.1-0.1-0.2-0.2-0.1-0.1-0.2-0.2 0 0-0.1-0.1c0 0-0.1-0.1 0 0 0 0 0-0.1 0-0.1q-0.1 0-0.1 0-0.1-0.2-0.2-0.4 0 0-0.1-0.1c0.1 0.1 0 0 0 0q0-0.1 0-0.1c-0.1-0.3-0.3-0.5-0.6-0.4-0.2 0.1-0.4 0.3-0.3 0.6z"/><path class="d" d="m338.5 159.3c1.9 1.5 4.3 2.2 6.6 2.7 2.4 0.5 4.8 0.8 7.3 0.9 4.9 0.1 9.9-0.7 14.6-2.2 8.9-3 16.7-8.8 22.1-16.6q2.1-3.1 3.7-6.6 0.8-1.7 1.5-3.5c0.4-1.2 0.9-2.4 0.9-3.7 0.1-0.5-0.6-0.7-0.8-0.3-1 2-1.5 4.1-2.3 6.1q-1.4 3-3.1 5.7c-2.3 3.7-5.2 7-8.5 9.9-7.2 6-16.4 9.5-25.8 9.9-2.6 0.2-5.3 0.1-7.9-0.3-2.8-0.4-5.4-1.3-8-2.5-0.3-0.1-0.6 0.3-0.3 0.5z"/><path class="d" d="m335.8 154.3c-3.8 2.2-3.9 7.1-1.7 10.4 1.3 1.8 3 3.2 4.9 4.2 1.1 0.6 2.2 1 3.4 1.4 1.2 0.5 2.4 0.9 3.7 0.9 0.4 0 0.5-0.5 0.2-0.7-0.9-0.6-1.9-0.9-2.9-1.2-1.1-0.4-2.1-0.7-3.1-1.2-1.8-0.9-3.4-2-4.6-3.4-1.2-1.5-1.9-3.2-1.9-5.1 0.1-1.8 0.8-3.7 2.2-4.8 0.3-0.2 0.1-0.6-0.2-0.5z"/><path class="d" d="m352.1 172.3c2 0.8 4.5 0.9 6.3-0.4 0.3-0.2 0.1-0.5-0.2-0.5-0.9 0.2-1.9 0.4-2.9 0.4q-1.5 0.1-3-0.3c-0.5-0.1-0.7 0.7-0.2 0.8z"/><path class="d" d="m370.2 170.9c6.8-2 13.2-5.5 18.5-10.1 5.5-4.7 10-10.6 12.7-17.3q1.2-2.9 1.8-5.9 0.2-1.4 0.4-2.8c0.1-1.1 0-2.1-0.2-3.2 0-0.5-0.7-0.5-0.7 0-0.1 0.8-0.3 1.7-0.4 2.5-0.1 1-0.2 1.9-0.4 2.9q-0.5 2.5-1.4 4.9c-1.2 3.4-2.9 6.5-5 9.4-3.9 5.6-9.1 10.4-14.9 13.9-3.3 2-6.9 3.7-10.5 5-0.4 0.2-0.3 0.8 0.1 0.7z"/><path class="d" d="m290 195.7c-0.6 4.8-0.6 9.8-0.8 14.7q-0.2 7.3-0.4 14.7-0.3 14.7-0.4 29.4c0 5.4-0.3 11 0.3 16.5 0.1 0.4 0.7 0.4 0.7 0 0.5-4.9 0.3-9.8 0.3-14.7q0.1-7.4 0.1-14.7 0.2-14.7 0.6-29.4c0.2-5.5 0.5-11 0.2-16.5 0-0.4-0.5-0.4-0.6 0z"/><path class="d" d="m221 262.1c4.1-0.5 8.3-0.7 12.4-0.1 4 0.6 8 1.7 11.9 3 4 1.3 7.9 3 11.7 4.7 3.4 1.6 6.8 3.1 10.1 5 1.7 0.9 3.4 2 5.1 3.2 1.7 1.3 3.2 2.8 4.8 4.1 0.3 0.2 0.6 0 0.4-0.3-1.9-3.1-5.1-5.3-8.2-7.1-3.3-2-6.8-3.6-10.3-5.1-3.9-1.7-7.8-3.4-11.7-4.9-4.1-1.5-8.1-2.8-12.4-3.5-4.6-0.7-9.4-0.9-13.9 0.4-0.3 0.1-0.2 0.6 0.1 0.6z"/><path class="d" d="m269.3 304.4l-0.5 1.2q-2.9-1-5.9-1.5c-4.9-0.8-9.9-0.7-14.7 0.5-0.3 0.1-0.4-0.3-0.1-0.4 4.8-1.4 9.9-1.9 14.9-1.3q3.2 0.5 6.3 1.5z"/><path class="d" d="m399.1 320.3q0.5-1.1 0.8-2.2c0.2-0.8 0.4-1.6 0.4-2.3 0-0.3-0.3-0.4-0.5-0.2-0.4 0.7-0.7 1.4-1 2.2q-0.3 1.1-0.6 2.2c0 0.3 0.1 0.6 0.4 0.6 0.2 0.1 0.4-0.1 0.5-0.3z"/><path class="d" d="m401.4 311.6q0.3-0.7 0.5-1.3 0.3-0.6 0.4-1.3c0-0.2-0.3-0.4-0.4-0.1q-0.2 0.2-0.4 0.5-0.2 0.3-0.3 0.5-0.3 0.6-0.5 1.2c-0.1 0.2-0.1 0.5 0.1 0.6 0.2 0.1 0.5 0.1 0.6-0.1z"/><path class="d" d="m445.2 346.7c0 0.2-0.4 0.2-0.4 0q-0.2-1.8-0.6-3.6c-0.8-3.7-2.4-7.2-4.7-10.3-1.6-2-3.5-3.7-5.5-5.3q-0.1-0.1-0.3-0.3 1.4 0.4 2.8 0.6c1.6 1.4 3 2.8 4.2 4.4 1.6 2 2.9 4.3 3.8 6.8 0.9 2.5 1.2 5.1 0.7 7.7z"/><path class="d" d="m505.9 307c0 0.3-0.3 0.6-0.6 0.5-0.8-0.4-1.3-1.1-2-1.7q-1-0.8-2.1-1.5c-1.6-0.8-3.4-1.3-5.1-1.5-2.3-0.2-4.5 0-6.6 0.6q0.5-0.5 0.6-0.7 0-0.3 0-0.6c2.1-0.5 4.3-0.7 6.4-0.5 2 0.2 3.8 0.8 5.6 1.7q1.2 0.6 2.2 1.5c0.7 0.6 1.5 1.3 1.6 2.2z"/><path class="d" d="m477.5 279.7c13.1-5.8 26.4-11.8 40.4-15.2q2.8-0.8 5.7-1.3c2.1-0.4 4.2-0.6 6.1-1.3 0.4-0.2 0.3-0.8-0.1-0.8-1.8-0.2-3.6 0.1-5.4 0.4q-2.7 0.5-5.4 1.2-5.2 1.2-10.3 2.9c-6.9 2.3-13.5 5.2-20.1 8.2-3.8 1.7-7.5 3.5-11.3 5.4-0.3 0.1 0 0.7 0.4 0.5z"/><path class="d" d="m444 219.2q4.2 6.8 8.3 13.8 2.1 3.4 4.1 6.9c1.4 2.2 2.5 4.7 4.3 6.7 0.2 0.2 0.7 0 0.6-0.4-0.8-2.5-2.5-4.7-3.8-6.9q-2.1-3.5-4.2-6.9-4.3-6.9-8.8-13.6c-0.2-0.3-0.7 0-0.5 0.4z"/><path class="d" d="m400 336c-0.8 1-2.3 1.5-3.5 2q-1.8 0.9-3.6 1.9-6.5 3.4-12.7 7.4c-3.7 2.3-7.3 4.9-11 7.5q-0.1-0.4-0.1-0.8 2.6-2.1 5.3-4 6-4.4 12.4-8.2 3.2-1.8 6.5-3.6 1.7-0.8 3.3-1.7c1-0.4 2.1-1.1 3.1-1.1 0.4 0 0.5 0.4 0.3 0.6z"/><path class="d" d="m407.3 345c-1.2 0.9-2.8 1.4-4.2 1.9q-2.2 0.9-4.3 1.9c-5 2.2-9.9 4.4-14.8 6.9-4.2 2.2-8.3 4.5-12.4 6.8q-0.2-0.3-0.3-0.7c2-1.2 4.1-2.4 6.2-3.6 4.8-2.7 9.7-5.3 14.7-7.7q3.6-1.8 7.4-3.4 1.9-0.8 3.7-1.6c1.3-0.5 2.5-1.1 3.8-1.3 0.5-0.1 0.5 0.6 0.2 0.8z"/><path class="d" d="m413.1 354.6c-1.3 0.8-2.9 1.2-4.4 1.7q-2.2 0.8-4.5 1.7-14 5.3-27.8 11.2-0.4-0.2-0.7-0.6 2.8-1.2 5.6-2.5 7.7-3.4 15.6-6.5 3.9-1.6 7.9-3.1 1.9-0.7 3.9-1.4c1.3-0.5 2.6-1.2 4-1.4 0.6-0.1 1 0.6 0.4 0.9z"/><path class="d" d="m383.6 371.4c3.5 0.4 7.2 0.3 10.8 0.4 3.4 0.1 6.8 0.2 10.2 0.3q5.4 0.1 10.7 0.1c3.6 0 7.2 0 10.8-0.4 3.4-0.4 6.7-1.1 9.9-2.5 2.9-1.3 5.1-3.7 8.1-4.9 2.8-1 5.6-1.4 8.5-1.9 2.4-0.3 4.7-0.5 7.1-0.8 2.9-0.3 5.9-0.5 8.8-0.8 2.3-0.2 4.8-0.3 7.1-0.9 0.6-0.1 0.5-1-0.1-1-2.1 0-4.2 0.3-6.2 0.6q-4 0.4-7.9 0.8c-2.4 0.3-4.9 0.6-7.3 0.8-2.5 0.2-5.1 0.4-7.5 1-1.6 0.4-3.2 0.9-4.6 1.6-1.4 0.8-2.8 1.7-4.1 2.6-2.9 1.8-6 2.8-9.3 3.4-3.5 0.6-7 0.7-10.6 0.8q-5.4 0.2-10.9 0.3c-3.8 0.1-7.7 0.1-11.6 0-4 0-8-0.2-11.9 0.1-0.3 0-0.3 0.4 0 0.4z"/><path class="d" d="m483.3 358.7c2.1 0 4.1-0.3 6.2-0.6q1.6-0.2 3.2-0.5c0.8-0.1 2-0.1 2.5-0.9 0.1-0.1 0-0.3-0.1-0.3-0.7-0.6-1.9-0.1-2.7 0.1q-1.6 0.3-3.1 0.5c-2 0.4-4.1 0.7-6.1 1.3-0.2 0-0.2 0.4 0.1 0.4z"/><path class="d" d="m498 356.3q0.1 0 0.3 0 0.1 0 0.2 0 0 0 0.1-0.1 0.1 0 0.2-0.1 0.1 0 0.1-0.1 0.1-0.1 0.1-0.1 0.1-0.1 0-0.2-0.1-0.1-0.2-0.1 0 0 0 0c0.1 0 0 0 0 0q0 0 0 0-0.1 0-0.2 0 0 0 0.1 0-0.2 0-0.3 0 0 0 0.1 0-0.2 0-0.3 0 0.1 0 0.1 0-0.1 0-0.2 0-0.1-0.1-0.3 0-0.1 0.1-0.1 0.3-0.1 0.1 0 0.3 0.1 0 0.1 0.1 0.1 0 0.2 0z"/><path class="d" d="m324.8 331c4.7 1.7 9.4 3.5 14 5.6 4.7 2.3 9.4 4.7 13.8 7.5q1.7 1.1 3.3 2.3c1.1 0.8 2.1 1.8 3.3 2.4 0.4 0.1 0.7-0.4 0.5-0.7-0.6-1-1.7-1.6-2.6-2.3q-1.5-1.1-3-2.2-3.2-2.2-6.6-4.2c-4.5-2.7-9.4-5-14.4-6.8-2.6-0.9-5.4-1.7-8.1-2.2-0.4-0.1-0.5 0.4-0.2 0.6z"/><path class="d" d="m537.8 346.9c2.3-0.2 4.6-1.4 6.5-2.7 2.1-1.3 3.9-2.9 5.5-4.8 3.3-4 5.2-9 5.4-14.2 0.2-2.9-0.1-6.2-1.4-8.9-0.3-0.5-0.9-0.1-0.9 0.3 0.5 2.6 1.1 5 1.1 7.6 0 2.5-0.4 5-1.2 7.5-1.6 4.4-4.6 8.3-8.4 11.1q-1.5 1.1-3.2 2c-1.1 0.6-2.4 1-3.5 1.7-0.2 0.1-0.2 0.4 0.1 0.4z"/><path class="d" d="m465 140.7c8.3 2.6 15.8 7.5 22 13.5 6.4 6.3 11.4 13.9 15.6 21.8 2.4 4.5 4.2 9.2 6.2 13.9 0.3 0.8 1.4 0.5 1.2-0.3-1.2-4.4-3.3-8.6-5.3-12.6-2.2-4.3-4.6-8.4-7.3-12.3-4.9-7.3-11.1-14-18.6-18.6-4.3-2.7-8.8-4.7-13.6-6-0.4-0.1-0.6 0.5-0.2 0.6z"/><path class="d" d="m232.7 229c2.7-4.7 5.3-9.5 7.8-14.3q3.9-7.1 7.8-14.2c1.4-2.7 3.1-5.3 3.9-8.2 0-0.2-0.3-0.4-0.4-0.2-1.8 2-2.9 4.4-4.1 6.7q-1.9 3.6-3.8 7.2c-2.6 4.8-5 9.7-7.5 14.5-1.5 2.7-2.9 5.4-4.2 8.2-0.2 0.3 0.3 0.6 0.5 0.3z"/><path class="d" d="m254.5 189.4q0.1-0.5 0.2-1.1 0.1-0.1 0.1-0.3 0-0.1 0-0.1c0 0.1 0-0.1 0-0.1q0.1-0.1 0.1-0.3-0.1-0.1-0.1-0.3c0-0.2-0.3-0.3-0.4-0.1q-0.1 0.1-0.2 0.2-0.1 0.2-0.1 0.3 0 0 0 0.1-0.1 0 0 0-0.1 0-0.1 0.1-0.1 0.1-0.1 0.3-0.2 0.5-0.3 1c0 0.3 0.1 0.5 0.3 0.6 0.3 0 0.5-0.1 0.6-0.3z"/><path class="d" d="m274.9 359c7.3 0.3 14.7 0.2 22.1 0.2q10.9 0 21.9 0c4.1 0 8.3 0.2 12.4-0.2 0.5 0 0.5-0.7 0-0.7-3.6-0.3-7.3-0.2-11-0.2q-5.5 0-11.1 0-10.9 0-21.9 0c-4.2 0-8.3 0.1-12.4 0.2-0.5 0-0.5 0.7 0 0.7z"/><path class="i" d="m230.6 432.4c0 0 119 11.2 119 14.3 0 3-104.2 60.5-104.2 60.5 0 0-28.5-39.7-14.8-74.8z"/><path fill-rule="evenodd" class="d" d="m319.7 449l-1.3 0.7q-3.7 1.9-7.5 3.8-2.2 1.1-4.3 2.2-0.8 0.4-1.5 0.8-6.7 3.5-13.3 7.1l-1.4 0.8q0 0 0 0-3.6 2-7.2 4-3 1.7-6.1 3.5-0.6 0.4-1.3 0.8-9.2 5.4-18.3 11 0-0.3-0.1-0.6 6.9-4.3 13.9-8.5 1.7-1.1 3.3-2.1-7.5-0.9-15-1.8 0 0 0 0-1.6 1-3.2 1.9 0-0.3-0.1-0.7 1.1-0.7 2.1-1.3-1.1-0.2-2.3-0.3 0-0.5-0.1-0.9 1.8 0.2 3.6 0.4 1.9-1.2 3.9-2.4 4.2-2.7 8.5-5.3-0.3 0-0.7 0-7.7-1-15.5-1.8l-0.8 0.4q-0.1-0.3-0.1-0.7-0.1-0.4-0.1-0.7 0.6 0 1.1 0.1 1.1-0.6 2.1-1.2 5.2-3.1 10.4-6.1-5.4-0.7-10.8-1.3-1.6-0.2-3.1-0.3-0.5 0.2-0.9 0.5-0.1-0.4-0.1-0.7-0.1-0.4-0.2-0.8 0.4 0.1 0.8 0.1 2.3-1.4 4.6-2.7 3-1.8 6.1-3.6-0.4-0.1-0.8-0.1-5.9-0.7-11.8-1.4 0-0.4-0.1-0.7 6.9 0.7 13.9 1.5 0.7 0.1 1.5 0.1 0 0 0.1 0 7 0.8 14 1.6 0.9 0.1 1.8 0.2 5.5 0.6 10.9 1.3 2.3 0.2 4.6 0.5 0.8 0.1 1.5 0.2c5.7 0.7 11.3 1.4 17 2.2q0.4 0.1 0.8 0.1 0.8 0.1 1.5 0.2zm-37.6-3.7c-1.4 0.8-2.9 1.6-4.4 2.5q-3.3 1.8-6.5 3.7 7.8 0.9 15.6 1.8h0.1q2.2-1.3 4.3-2.6 2.4-1.3 4.7-2.7 0.8-0.4 1.6-0.9-3.3-0.4-6.7-0.8-4.3-0.5-8.7-1zm-12.4 6q0.8-0.5 1.7-1 3.4-1.9 6.7-3.9 1.2-0.7 2.3-1.3-7-0.8-14-1.6-5.4 3.1-10.8 6.3 2.7 0.3 5.4 0.6 4.3 0.4 8.7 0.9zm3.6 10.1q4.3-2.6 8.6-5.2 1.8-1.1 3.7-2.1h-0.1q-0.5-0.1-1.1-0.2-7.2-0.8-14.5-1.7 0 0 0 0-6.4 3.7-12.8 7.3 8.1 0.9 16.2 1.9zm15.8 2.8q-7.8-0.9-15.6-1.9-6.3 3.8-12.6 7.6 1.1 0.2 2.2 0.3 6.5 0.7 12.9 1.5 6.5-3.8 13.1-7.5zm14.6-7.9q-8.3-1.1-16.6-2-6.2 3.6-12.3 7.2 0 0.1 0 0.1c5.2 0.6 10.5 1.2 15.7 1.9q4-2.3 8.1-4.5 2.5-1.4 5.1-2.7zm13.1-6.8q-1-0.1-2-0.3-7.8-0.9-15.6-1.9-0.4 0.2-0.8 0.5-1.4 0.7-2.8 1.5-2.6 1.5-5.2 3-1 0.6-2 1.2c5.6 0.6 11.1 1.3 16.7 2q0 0 0 0 3.7-1.9 7.3-3.8 2.2-1.1 4.4-2.2z"/><path class="d" d="m21.8 476.9l-20.3-159.8c0 0 4.2-8.8 11.4-9.3 7.1-0.5 219.2 20.8 222.3 24.9 3 4.1 23.9 160.3 23.9 160.3 0 0 88.5-48.4 90.5-46.3 2.1 2 0.6 12.2 0.6 12.2 0 0-95.2 58.5-100.3 60.5-5.1 2.1-228.4-23.4-228.9-25.4-0.5-2.1 0.8-17.1 0.8-17.1z"/><path class="j" d="m234.1 333q-1 0.7-1.9 1.4c-0.8 0.5-1.3 0.9-2 1.5q-1 0.7-2 1.4-0.5 0.3-1 0.7c-0.5 0.4-1 0.8-1.2 1.5q0.1-0.3 0.3-0.6 0 0-0.1 0.1c-0.4 0.5-0.5 1.3-0.1 1.9 0.5 0.6 1.2 0.7 1.9 0.4q0.1-0.1 0.1-0.1-0.3 0.1-0.7 0.2c0.7-0.1 1.2-0.4 1.8-0.8q0.4-0.4 0.9-0.8 0.9-0.8 1.8-1.7c0.6-0.5 1.2-1.1 1.8-1.7q0.8-0.9 1.5-1.9c0.3-0.4 0.4-0.8 0.1-1.2-0.2-0.4-0.8-0.5-1.2-0.3z"/><path class="j" d="m226.2 341.1c2.8 19.4 5.1 38.9 7.8 58.3 3.4 25.5 6.7 51 10.2 76.5q1 7.5 2 15c0.4 3.4 0.7 6.7 1.5 10 0.3 1.1 2.1 0.9 2.1-0.3-0.1-7.2-1.6-14.5-2.5-21.6q-2.3-17.6-4.6-35.2c-3.4-25.6-6.7-51.2-10.5-76.7-1.3-8.9-2.6-17.7-4.2-26.5-0.2-1.2-2-0.7-1.8 0.5z"/><path class="a" d="m258.9 494.1c0.4 0 0.4-0.6 0-0.6-0.4 0-0.4 0.6 0 0.6z"/><path class="j" d="m248.3 502.5c-0.7 1-0.6 2.6-0.5 3.8q0.2 1.9 0.3 3.8c0.1 2.6 0.1 5.2 0.2 7.8 0.2 2.1 3.3 2.2 3.3 0 0.1-2.6-0.1-5.3-0.3-7.9q-0.2-2-0.4-3.9c-0.2-1.2-0.3-2.8-1.2-3.8-0.5-0.4-1.1-0.3-1.4 0.2z"/><path class="j" d="m23.5 479c2.3 0.1 4.6 0.5 6.9 0.7 5.5 0.6 11 1.3 16.5 1.9q26.7 3.1 53.3 6 31.9 3.5 63.8 7.1c18.6 2 37.2 4.2 55.8 6 9.3 0.9 18.6 2.1 28 2.4 0.4 0 0.4 0 0.6 0 1.1 0.1 1.1-1.7 0-1.7-0.2 0-1.3-0.1-2-0.2q-2.3-0.3-4.7-0.6c-5.5-0.8-11.1-1.4-16.7-2q-26.6-3-53.3-5.8-31.8-3.5-63.7-6.9c-18.6-2-37.2-4-55.8-5.8q-9.3-0.9-18.6-1.8c-3.1-0.3-6.3-0.8-9.4-0.9-0.2 0-0.4 0-0.7 0-1 0-1 1.6 0 1.6z"/><path class="j" d="m1.7 317.1c2.2 0 4.5 0.4 6.8 0.6 5.5 0.6 11 1.3 16.6 2q26.6 3.1 53.2 6 31.9 3.5 63.8 7c18.6 2.1 37.2 4.2 55.8 6 9.3 0.9 18.7 2.2 28 2.5 0.4 0 0.4 0 0.6 0 1.1 0 1.1-1.7 0-1.7-0.2 0-1.3-0.2-2-0.2q-2.3-0.4-4.7-0.7c-5.5-0.7-11.1-1.3-16.7-1.9q-26.6-3-53.2-5.9-31.9-3.4-63.8-6.8c-18.6-2-37.2-4-55.8-5.8q-9.3-0.9-18.6-1.8c-3.1-0.3-6.3-0.9-9.4-0.9-0.2 0-0.4-0.1-0.6-0.1-1.1 0-1.1 1.7 0 1.7z"/><path class="k" d="m260.2 493.4c-0.2 0.2 0.4-0.3 0.6-0.4q0.9-0.4 1.7-0.9 3.1-1.7 6.1-3.3 9.7-5.2 19.4-10.3c15.5-8.1 30.9-16.2 46.5-24 4.9-2.5 9.7-5.4 14.8-7.3 0.6-0.2 0.4-1.2-0.3-1.1-4.4 1.2-8.5 3.4-12.6 5.3-7.4 3.4-14.8 7.2-22 11q-22.7 11.7-45 23.9-3.7 2-7.4 4.1c-0.9 0.5-2.2 1-3 1.8-0.8 0.7 0.4 1.9 1.2 1.2z"/><path class="k" d="m235.5 335.3c0.5 1.4 0.6 3.2 0.8 4.6q0.9 5.9 1.8 11.7c1.9 12.4 3.7 24.7 5.4 37.1 4 27.9 8 55.9 12 83.8 0.7 4.7 1.4 9.4 2.2 14.1q0.3 2.1 0.7 4.1c0.1 0.6 0.3 1.6 0.3 1.8-0.1 0.7 1.2 0.7 1.2 0 0-5.5-1.2-11.2-1.8-16.6-1.6-12.5-3.5-25-5.3-37.5-4-27.9-8.3-55.8-12.6-83.7q-1.1-7.1-2.2-14.2c-0.3-1.9-0.4-4.1-1.1-5.8-0.4-0.8-1.8-0.2-1.4 0.6z"/><path class="a" d="m546.8 508q-0.4 0.2-0.8 0.5-0.1 0-0.1 0-0.6 0.3-1.2 0.5-0.1 0.1-0.1 0.1-0.8 0.3-1.7 0.5c-6.8 1.6-16.8-1-30.2-4.2-16.3-3.8-72-18-72-19.1 0-0.3 0.9-1.1 2.2-2.5q0.3-0.3 0.5-0.7 0.9-1 1.9-2.5 0.2-0.2 0.3-0.5c1.3-2 2.5-4.6 3.5-8l0.1-0.4q0.1-0.3 0.2-0.6 0.3-1.2 0.4-2.5 0-0.2 0-0.4c0.1-2.4-0.3-4.8-1-7.1q0-0.2-0.1-0.5c-0.5-1.6-1.2-3.1-1.9-4.6q-0.1-0.2-0.3-0.5c-1.6-3.1-3.4-5.5-4.3-6.7q-0.6-0.8-0.7-0.9c0.8 0.2 64.9 14 73.7 14.5 8.9 0.5 28.3 1.6 34.4 12.8 6.1 11.1 3.8 28.4-2.8 32.8z"/><path class="b" d="m638.8 461.6c-0.9 0.3-5.4 3-18.8 9-13.4 5.9-40.9 18-55.7 27.5-8 5.1-14.6 8.6-18.3 10.4q-0.1 0-0.1 0-0.7 0.3-1.2 0.5-0.1 0.1-0.1 0.1c-1.6 0.7-2.3 0.9-1.7 0.5q0.2-0.1 0.6-0.4c3.7-2 8.3-8.8 8.1-21.7-0.2-12.9-4.7-16.1-10.8-19.8-6.1-3.7-34.1-5.3-47.2-7.5-10.9-1.8-41.5-9.1-51.4-11.4-2-0.5-3.2-0.8-3.2-0.8l0.4-0.5c0 0 18.8-9.1 34.7-16.8 16-7.6 53.4-21.9 54.6-22.4 1.2-0.5 90.2 13.6 94.5 14.8 2.6 0.7 7.2 1.8 11.2 5.2q0.6 0.6 1.2 1.2c2.1 2.2 3.9 5 5 9 3.6 12.2-1 22.8-1.8 23.1z"/><path class="d" d="m635.6 429.5c-0.8 0.5-1.7 1-2.6 1.5q-2.4 1.3-4.8 2.6-4.8 2.6-9.8 5.1c-11.6 5.8-23.6 11.1-35.6 16.4-6 2.7-11.9 5.3-17.9 8-6 2.7-12 5.5-18 8.3q-0.1 0-0.2 0c-0.2 0-0.3-0.2-0.3-0.3q0-0.2 0.1-0.3c6.5-3.6 13.2-6.8 19.9-9.9 11.9-5.5 23.9-10.7 35.8-16.2q8.9-4.1 17.6-8.5 4.4-2.3 8.8-4.6 2.2-1.2 4.3-2.4 0.8-0.4 1.5-0.9 0.6 0.6 1.2 1.2z"/><path class="d" d="m496.6 467.9c-2.3-0.5-4.5-1-6.8-1.5q-13.3-3-26.6-6.3-6.2-1.5-12.3-3c-1.4-0.4-2.7-0.7-4.1-1.1q-0.1-0.2-0.3-0.5c1.9 0.5 3.9 0.9 5.8 1.4 9 2.2 18 4.3 27 6.4 5.8 1.4 11.6 2.8 17.4 4.2 0.3 0.1 0.1 0.5-0.1 0.4z"/><path class="d" d="m501.7 468.7q2.3 0.5 4.5 1c1.5 0.3 3.1 0.5 4.6 0.8q4.3 1 8.7 1.9c5.8 1.2 11.6 2.7 17.5 3.4 0.2 0 0.3-0.3 0.1-0.3-5.7-1.8-11.7-2.6-17.6-3.7-2.8-0.6-5.5-1.2-8.3-1.6-1.6-0.2-3.1-0.7-4.7-1q-2.3-0.4-4.7-0.9c-0.2 0-0.4 0.4-0.1 0.4z"/><path class="d" d="m540.3 477q0.2 0.1 0.5 0.2 0 0.1 0.1 0.1 0.1 0 0.1 0.1 0.1 0 0.2 0 0.1 0 0.2-0.1 0.1 0 0.1-0.1 0-0.1 0-0.2-0.1-0.1-0.1-0.2-0.2 0-0.3-0.1-0.2-0.1-0.4-0.3-0.2 0-0.3 0-0.1 0-0.2 0.2-0.1 0.1-0.1 0.2c0.1 0.1 0.1 0.2 0.2 0.2z"/><path class="d" d="m464.3 468.3c3.1 0.8 6.4 1.8 9.7 2 0.1 0 0.1-0.2 0-0.2-3.2-1-6.5-1.4-9.8-2.2-3.2-0.8-6.5-1.7-9.7-2.7-0.1-0.1-0.1 0.1 0 0.1 3.2 1.1 6.5 2.2 9.8 3z"/><path class="d" d="m492.9 474.1c-2.3-0.5-4.7-0.8-7-1.5-0.2-0.1-0.3 0.3-0.1 0.4 1.9 0.5 3.9 0.8 5.8 1.2q6.2 1.3 12.4 2.5 14.2 2.9 28.3 5.7c2.6 0.5 5.1 0.9 7.7 1.5 0.1 0 0.2-0.2 0-0.2-6.3-1.5-12.7-2.7-19.1-4q-14-2.8-28-5.6z"/><path class="d" d="m480.3 471.5q-1.4-0.3-2.8-0.5c-0.2 0-0.3 0.4-0.1 0.4q1.4 0.2 2.8 0.5 0.7 0.1 1.4 0.3c0.4 0 0.8 0.2 1.2 0.1 0.2-0.1 0.2-0.2 0.1-0.3-0.4-0.2-0.8-0.2-1.2-0.3q-0.7-0.1-1.4-0.2z"/><path class="d" d="m449.2 471.7q1.9 0.5 3.8 1 2.3 0.6 4.6 1.2c1.6 0.4 3.3 0.6 4.7 1.3 0.2 0.1 0.1 0.3-0.1 0.3-1.5-0.1-3.2-0.7-4.7-1.1q-2.3-0.6-4.7-1.3-1.8-0.5-3.7-1z"/><path class="d" d="m466.3 477q0.2 0.1 0.5 0.1 0.1 0 0.3 0 0.1 0 0.3 0c0.1 0 0.1-0.2 0-0.3q-0.1-0.1-0.2-0.1-0.2-0.1-0.3-0.1-0.2-0.1-0.5-0.1-0.5-0.1-1.1-0.2c-0.1 0-0.2 0-0.3 0.2 0 0.1 0.1 0.2 0.2 0.3q0.5 0.1 1.1 0.2z"/><path class="d" d="m545.5 492.9c-1.7-0.5-3.5-0.7-5.2-1.1q-3.1-0.5-6.3-1.2c-5.1-1-10.2-2.2-15.4-3.3-10.3-2.2-20.7-4.6-31.1-6.7-3.6-0.7-7.3-1.4-11-1.9-0.1 0-0.2 0.2 0 0.2 3.2 0.5 6.3 1.2 9.4 1.9q7.2 1.7 14.3 3.3c10.6 2.4 21.3 4.7 32 6.9q3.7 0.8 7.4 1.5c1.9 0.4 3.8 0.8 5.8 0.8 0.3 0 0.3-0.3 0.1-0.4z"/><path class="d" d="m455.3 482.8c-2-0.4-3.9-1-5.8-1.4q-2.1-0.5-4.2-0.8 0.2-0.2 0.3-0.5 2 0.3 3.9 0.7c2 0.4 4.1 0.9 5.9 1.7 0.2 0.1 0.1 0.4-0.1 0.3z"/><path class="d" d="m496.8 492.5q-2.3-0.6-4.6-1.2-4.7-1.1-9.4-2.2c-6.4-1.4-12.7-2.6-19.2-3.6-0.2-0.1-0.4 0.3-0.1 0.4 6.4 1.2 12.8 2.4 19.1 3.8q4.7 1 9.4 2.2 2.3 0.6 4.6 1.2c1.5 0.3 3.1 1 4.7 1.1 0.2 0 0.4-0.4 0.1-0.5-1.4-0.6-3.1-0.9-4.6-1.2z"/><path class="d" d="m543.3 503c-0.5-0.3-1.1-0.3-1.7-0.3q-1.2-0.1-2.4-0.3c-1.4-0.3-2.9-0.5-4.3-0.8-2.8-0.5-5.6-1.1-8.4-1.8-5.7-1.4-11.5-2.7-17.4-3.4-0.3 0-0.3 0.5 0 0.5 6 0.8 11.8 2.4 17.7 3.8 2.7 0.7 5.5 1.3 8.3 1.8 1.3 0.3 2.7 0.5 4 0.6q1.1 0.1 2.2 0.2c0.6 0.1 1.4 0.2 2 0 0.1 0 0.2-0.2 0-0.3z"/><path class="d" d="m487.1 476.8c-2.6-0.3-5-0.8-7.5-1.3-6.6-1.5-13.3-3.1-20-4.6-3.2-0.8-6.5-1.6-9.8-2.3q0-0.2 0-0.4 0.8 0.1 1.6 0.3c6.7 1.4 13.4 2.9 20.1 4.5 5.2 1.1 10.4 2.3 15.6 3.6 0.1 0 0.1 0.3 0 0.2z"/><path class="d" d="m469.5 490c-1.4-0.2-2.7-0.6-4.1-0.9-1.3-0.4-2.6-0.6-3.9-0.9-2.6-0.6-5.2-1.1-7.7-1.8q-4.1-0.9-8.1-1.9-1.4-0.4-2.8-0.7 0.3-0.3 0.5-0.7 1.4 0.3 2.7 0.7 3.9 0.9 7.9 1.9c2.6 0.7 5.2 1.4 7.8 2.1 2.6 0.6 5.2 1.2 7.7 2 0.2 0 0.1 0.2 0 0.2z"/><path class="d" d="m491.2 494.2c-1.1-0.4-2.2-0.5-3.3-0.7q-1.6-0.4-3.2-0.7-3.2-0.7-6.4-1.3c-0.2 0-0.4 0.3-0.1 0.4q3.2 0.7 6.5 1.4 1.7 0.3 3.3 0.6c1.1 0.2 2.1 0.5 3.1 0.5 0.1 0 0.1-0.1 0.1-0.2z"/><path class="d" d="m476.4 466.7c-1 0.1-2.1-0.2-3.1-0.4q-1.7-0.3-3.5-0.7c-7-1.3-14-2.8-21-4.5q0-0.2-0.1-0.5 0 0 0.1 0 7.4 1.8 14.8 3.4 3.5 0.7 7 1.4c1.9 0.3 4 0.5 5.8 1.1 0.2 0 0.2 0.2 0 0.2z"/><path class="d" d="m492.7 470.4c3.5 0.7 6.9 1.5 10.4 2.2q5.1 1 10.2 2c3.4 0.7 6.9 1.5 10.4 2.1 0.3 0 0.4-0.5 0.1-0.5-3.4-0.8-6.8-1.4-10.2-2q-5.2-1.1-10.4-2.1c-3.4-0.6-6.8-1.2-10.2-1.9-3.4-0.7-6.9-1.5-10.3-2.2-0.3 0-0.5 0.5-0.2 0.5 3.4 0.7 6.8 1.3 10.2 1.9z"/><path class="d" d="m528.4 485.2q-11.7-2.5-23.4-4.9c-2-0.4-3.9-0.9-5.9-1.3-0.2 0-0.4 0.4-0.1 0.4 5.1 1 10.2 2.2 15.3 3.3 7.8 1.6 15.6 3.3 23.4 4.9 1.9 0.4 3.9 0.8 5.9 1.2 0.1 0 0.2-0.2 0.1-0.3-1.6-0.3-3.2-0.7-4.8-1.1q-5.2-1.1-10.5-2.2z"/><path class="d" d="m460 480.3q0.2 0 0.5 0.1 0.8 0.1 1.7 0.3 3 0.7 6.1 1.3 9.8 2.1 19.7 4.2 11.8 2.5 23.6 4.9 10.2 2.2 20.5 4.3 3.4 0.7 6.7 1.4 1.1 0.2 2.2 0.5c0.3 0 0.7 0.2 1.1 0.2q0.1 0 0.2 0c0.1 0 0.1-0.2 0-0.2-0.7-0.1-1.7-0.4-2.4-0.5q-3-0.7-6-1.3-9.9-2.2-19.7-4.3-11.8-2.5-23.6-5-10.3-2.2-20.5-4.4-3.4-0.7-6.7-1.4c-1.1-0.2-2.2-0.6-3.3-0.7q-0.1 0-0.2 0c-0.4 0-0.4 0.5 0 0.5-0.2 0 0.1 0.1 0.1 0.1z"/><path class="d" d="m440.8 486.5c2 1 4.2 1.6 6.3 2.3q4.5 1.4 9.2 2.7c7.6 2.2 15.4 4.3 23.1 6.3 7.4 2 14.9 3.9 22.3 5.9 4.8 1.3 9.7 2.5 14.4 4 6.3 1.9 12.8 3.5 19.4 3.7 2.5 0 4.9 0 7.3-0.8 2.5-0.9 4.9-2.1 7.3-3.3 1.4-0.8 2.7-1.6 3.9-2.5 0.5-0.4-0.1-1-0.6-0.8-2.8 1.2-5.4 2.9-8.2 4.1-1.9 0.8-3.8 1.6-5.9 1.7-6.7 0.4-13.3-0.9-19.6-2.7-2.7-0.7-5.4-1.6-8.1-2.4q-3.8-1-7.7-2-10.8-2.9-21.6-5.7-11.6-3-23.2-6.1c-5.6-1.6-11.2-3.1-16.8-4.7-0.4-0.1-0.8-0.2-1.2-0.3-0.4-0.1-0.6 0.4-0.3 0.6z"/><path class="d" d="m564.4 498.5c2.4-1.3 4.7-2.8 7.1-4.2q3.5-2 7.1-4 3.6-2 7.2-3.9 1.8-1 3.7-1.9c1.1-0.6 2.3-1.2 3.2-2.1 0.1-0.1 0-0.4-0.1-0.4-1.3 0.2-2.4 0.8-3.5 1.3q-1.8 0.9-3.6 1.9-3.7 2-7.3 4-3.6 2.1-7.1 4.2c-2.3 1.4-4.8 2.9-7 4.5-0.3 0.3 0 0.7 0.3 0.6z"/><path class="d" d="m594.7 481.6q0.4-0.2 0.8-0.4 0.2 0 0.3-0.1 0.1-0.1 0.2-0.2c-0.1 0.1 0 0 0.1 0q0 0 0.1-0.1 0.1-0.1 0.1-0.2c0.1-0.1 0-0.3-0.2-0.3q-0.1 0-0.2 0c-0.1 0-0.2 0-0.2 0.1q-0.1 0-0.1 0-0.1 0-0.2 0.1-0.1 0-0.2 0.1-0.4 0.2-0.7 0.4c-0.2 0.1-0.2 0.3-0.2 0.4 0.1 0.1 0.3 0.2 0.4 0.2z"/><path class="d" d="m604.5 477.9c9.8-3.5 19.4-7.7 28.9-12 1.3-0.6 2.6-1.2 3.8-1.8 0.9-0.5 2.4-1.1 2.6-2.2 0.1-0.3-0.1-0.6-0.3-0.5-1 0.1-1.9 1-2.7 1.5-1.1 0.5-2.1 1-3.2 1.5q-3.6 1.6-7.1 3.2-7.1 3.2-14.2 6.3c-2.6 1.2-5.3 2.4-8 3.6-0.2 0.1 0 0.5 0.2 0.4z"/><path class="d" d="m626.7 463.6c0.9-0.2 1.9-0.4 2.8-0.7q0.6-0.3 1.3-0.5c0.4-0.2 1-0.4 1.2-0.8 0.1-0.1 0-0.3-0.2-0.4-0.2 0-0.4 0-0.6 0q-0.4 0.1-0.7 0.2-0.7 0.3-1.3 0.5c-0.9 0.4-1.8 0.8-2.6 1.2-0.4 0.1-0.3 0.7 0.1 0.5z"/><path class="d" d="m635.3 460.6q0.4-0.3 0.9-0.6 0.1 0 0.2-0.1 0.1 0 0.1-0.1 0.1 0 0.2-0.1 0 0 0 0 0 0 0 0 0 0 0 0 0.1-0.1 0.2-0.1 0.1-0.2 0.2-0.3c0.1-0.2-0.1-0.4-0.3-0.4q-0.1 0-0.3 0-0.1 0.1-0.2 0.1-0.2 0-0.3 0.1-0.1 0.1-0.2 0.2-0.5 0.2-1 0.5c-0.2 0.1-0.2 0.4-0.1 0.6 0.1 0.2 0.4 0.3 0.6 0.2z"/><path class="d" d="m478.1 456.8c12.6 3.4 25.7 4.5 38.5 6.3 5.9 0.8 12 1.6 17.7 3 5.2 1.4 10.4 3.7 13.4 8.2 1.5 2.3 2.4 4.9 2.9 7.6 0.5 2.8 0.3 5.5 0.4 8.3 0 0.5 0.8 0.7 1 0.1 0.6-2.4 0.5-5 0.1-7.5-0.3-2.4-0.9-4.8-2-7.1-2.3-4.9-6.7-8.1-11.7-9.9-5.7-2.1-11.8-2.8-17.7-3.6-6.6-0.9-13.2-1.7-19.9-2.5-7.5-0.9-15.1-1.9-22.5-3.5-0.4-0.1-0.6 0.5-0.2 0.6z"/><path class="d" d="m439.1 448.1c3.3 0.9 6.7 1.6 10.1 2.4q5.2 1.2 10.4 2.5c7 1.6 14 3.2 21 4.7q2.9 0.6 5.8 1.2c1.9 0.4 3.8 1 5.7 1.1 0.7 0 0.7-1 0.1-1.2-1.6-0.5-3.3-0.7-5-1q-2.6-0.5-5.2-1.1-5.2-1.1-10.4-2.3c-6.9-1.5-13.8-3.1-20.7-4.7-3.8-0.8-7.7-1.8-11.6-2.4-0.5-0.1-0.8 0.7-0.2 0.8z"/><path class="a" d="m565.8 454.1c-5.5 3.6-14.8 1-28.3-2.1-13.5-3.2-59.8-15-59.8-15.9 0-0.3 0.8-0.9 1.9-2.2q0.2-0.2 0.4-0.5c1.5-1.8 3.5-4.7 4.8-9.3v-0.4q0.1-0.1 0.1-0.2 0.3-1.2 0.4-2.3v-0.4c0.1-2-0.3-4.1-1-6.1l-0.1-0.3c-1.9-5.7-5.8-10.1-5.8-10.1 0 0 53.8 11.6 61.2 12 7.4 0.4 23.4 1.3 28.5 10.5 5.1 9.3 3.2 23.7-2.3 27.3z"/><path class="h" d="m476.3 404.3c0 0 34.5 8.3 45.4 10.2 10.8 1.8 34 3.1 39.1 6.2 5.1 3.1 8.9 5.7 9 16.4 0.1 10.7-3.7 16.4-6.8 18-3.1 1.7 5.1-1.4 17.4-9.2 12.2-7.9 35-17.9 46.1-22.9 11.1-4.9 14.9-7.1 15.6-7.4 0.8-0.3 4.6-9 1.6-19.2-3-10.1-11-11.8-14.5-12.8-3.5-1-77.4-12.6-78.4-12.2-1 0.4-32.1 12.2-45.3 18.6-13.3 6.3-28.9 13.9-28.9 13.9"/><path class="d" d="m565.3 422.8c2.3-1.1 4.4-2.6 6.6-3.8q3.3-2 6.7-3.8c4.4-2.5 9-4.8 13.5-7.1 9.2-4.5 18.5-8.8 27.6-13.3q3.9-1.9 7.7-3.8 1.9-1 3.9-2c1.2-0.7 2.6-1.2 3.6-2.3 0.4-0.4 0-0.9-0.5-0.8-1.2 0.2-2.3 0.9-3.4 1.5q-1.7 0.9-3.4 1.8-3.4 1.7-6.8 3.4c-4.7 2.3-9.3 4.5-14 6.8-9.2 4.4-18.4 8.9-27.4 13.9q-3.7 2-7.3 4.2c-2.5 1.5-5 3-7.3 4.7-0.3 0.3 0.1 0.8 0.5 0.6z"/><path class="d" d="m476.1 404.9c3.7 1.2 7.6 2 11.3 3 3.7 0.9 7.3 1.8 11 2.7 3.6 0.8 7.3 1.5 11 2.3 3.7 0.8 7.3 1.6 11 2.4 7.7 1.5 15.5 2 23.3 3 3.6 0.5 7.2 1 10.8 1.7 3 0.6 6 1.5 8.5 3.2 3.1 2.1 4.9 5.3 5.6 8.9 0.8 3.6 0.2 7.3 0.3 11 0 0.4 0.6 0.5 0.7 0.1 0.8-3.2 0.8-6.7 0.4-10-0.4-3.1-1.4-6.1-3.5-8.6-4.2-5-11.4-5.9-17.5-6.8-4.1-0.6-8.3-1.1-12.4-1.6-4-0.4-8-0.8-12-1.4-7.6-1.4-15.2-3.2-22.8-4.7-4.2-0.9-8.4-1.9-12.6-2.9q-3.1-0.7-6.3-1.5c-2.2-0.5-4.5-1.1-6.7-1.4-0.4 0-0.4 0.5-0.1 0.6z"/><path class="d" d="m558.5 456.7c0.5 0 1 0.2 1.6 0.1q0.8 0 1.7-0.2c1.1-0.2 2.1-0.5 3.1-1 2.2-0.8 4.2-2 6.1-3.1q6.8-4 13.5-7.9 1.8-1.1 3.6-2.2c1.3-0.7 2.7-1.3 3.7-2.4 0.3-0.4 0-1-0.5-0.9-1.5 0.4-2.8 1.4-4.2 2.2q-2.1 1.3-4.2 2.5-4.1 2.5-8.2 5c-2.6 1.6-5.2 3.2-7.9 4.7-1.3 0.7-2.6 1.4-4 1.8-1.4 0.4-2.9 0.8-4.3 0.7-0.4 0-0.4 0.6 0 0.7z"/><path class="d" d="m594.8 438.7q0.5-0.3 1-0.7 0.3-0.1 0.5-0.4c0.2-0.1 0.3-0.3 0.4-0.5 0-0.2-0.1-0.4-0.3-0.4-0.2 0-0.4 0.1-0.6 0.2q-0.3 0.1-0.5 0.3-0.5 0.3-1 0.6-0.1 0.1-0.2 0.3c0 0.1 0 0.3 0.1 0.4 0.1 0.2 0.4 0.3 0.6 0.2z"/><path class="d" d="m605.3 432.9c10-4 19.7-8.3 29.4-12.7q2.2-0.9 4.2-1.9 1-0.4 2-0.9c0.3-0.2 0.7-0.3 1.1-0.5 0.3-0.2 0.6-0.5 1-0.7 0.4-0.3 0.1-1-0.4-0.9-0.6 0.2-1.2 0.3-1.8 0.5q-0.9 0.4-1.8 0.8-1.9 0.8-3.8 1.7-3.6 1.6-7.3 3.3-7.3 3.3-14.6 6.7-4.1 2-8.2 4c-0.3 0.2-0.1 0.7 0.2 0.6z"/><path class="d" d="m478.4 436.3q-0.6-0.1-1.2-0.2 0 0.1-0.1 0.2c2.2 0.5 4.3 1.2 6.4 1.9q3 0.9 6.1 2c2.6 0.9 5.2 1.6 7.9 2.4 13 3.8 26.2 7.2 39.5 10.2q5.5 1.3 11.1 2.4c3.4 0.7 6.9 1.3 10.4 1.5 0.4 0.1 0.5-0.6 0.1-0.7-6.3-1.5-12.7-2.5-19-3.9-6.9-1.5-13.8-3.2-20.7-4.9q-9.6-2.5-19.2-5.2-4.1-1.1-8.1-2.2c-2.3-0.6-4.5-1-6.8-1.6-2.5-0.7-5-1.6-7.6-2.1-0.2-0.1-0.2 0.2-0.1 0.2q0.6 0.1 1.2 0.3c0.2 0 0.2-0.2 0.1-0.3z"/><path class="d" d="m631.5 417.1c1.2-0.2 2.4-0.5 3.6-0.9q0.8-0.3 1.7-0.7 0.4-0.2 0.8-0.5c0.2-0.1 0.5-0.3 0.5-0.6 0-0.1 0-0.2-0.1-0.3-0.3-0.1-0.6 0-0.8 0q-0.5 0.1-0.9 0.3-0.8 0.3-1.6 0.7c-1.1 0.5-2.2 1-3.3 1.4-0.4 0.1-0.2 0.6 0.1 0.6z"/><path class="d" d="m640.7 413.1q0.1-0.1 0.2-0.2 0.2-0.1 0.3-0.2 0.1-0.1 0.2-0.2 0.1-0.1 0.2-0.3c0.1-0.1 0-0.2 0-0.2-0.1-0.1-0.2-0.2-0.2-0.1q-0.2 0-0.4 0.1-0.1 0.1-0.3 0.2-0.1 0-0.2 0.1-0.2 0.1-0.3 0.2-0.1 0.1-0.2 0.2 0 0.2 0.1 0.4 0.1 0.1 0.2 0.2 0.2 0 0.4-0.2z"/><path class="d" d="m483.2 410.6c1.7 0.6 3.5 0.9 5.3 1.3q5.1 1.3 10.1 2.5 11.1 2.5 22.1 5c1.9 0.4 3.8 0.7 5.6 1.1 0.2 0.1 0.3-0.2 0.1-0.3-4.8-1.1-9.6-2.2-14.4-3.3-7.4-1.7-14.9-3.4-22.4-5.1-2.1-0.5-4.2-0.9-6.3-1.6-0.2-0.1-0.3 0.3-0.1 0.4z"/><path class="d" d="m530.5 421.2q1.9 0.4 3.8 0.8c1.2 0.2 2.5 0.3 3.7 0.6q3.7 0.8 7.3 1.5c4.8 0.9 9.6 2.2 14.5 2.7 0.1 0 0.2-0.3 0-0.3-4.7-1.5-9.7-2.1-14.5-3-2.3-0.4-4.6-0.8-6.9-1.2-1.3-0.1-2.6-0.5-3.9-0.8q-1.9-0.3-3.9-0.6c-0.2-0.1-0.3 0.3-0.1 0.3z"/><path class="d" d="m562.5 427.8q0.2 0 0.4 0.1 0 0 0 0.1 0.1 0 0.2 0 0.1 0 0.1 0 0.1 0 0.2 0 0.1-0.1 0.1-0.2 0 0 0-0.1-0.1-0.1-0.1-0.1-0.1-0.1-0.3-0.2-0.1-0.1-0.3-0.1-0.1-0.1-0.2-0.1-0.2 0.1-0.2 0.2-0.1 0.1 0 0.2 0 0.1 0.1 0.2z"/><path class="d" d="m499.6 421.3c2.7 0.6 5.4 1.4 8.1 1.5 0.1 0 0.1-0.1 0-0.1-2.6-0.8-5.4-1.2-8.1-1.8-2.7-0.7-5.4-1.3-8-2.2-0.1 0-0.1 0.1-0.1 0.1 2.7 0.9 5.4 1.8 8.1 2.5z"/><path class="d" d="m523.3 425.8c-1.9-0.4-3.9-0.6-5.7-1.2-0.2 0-0.3 0.3-0.1 0.4 1.5 0.4 3.2 0.6 4.7 0.9q5.2 1 10.3 2 11.8 2.2 23.5 4.5c2.1 0.4 4.2 0.7 6.3 1.1 0.1 0.1 0.2-0.1 0-0.2-5.2-1.2-10.5-2.1-15.8-3.1q-11.6-2.2-23.2-4.4z"/><path class="d" d="m512.9 423.8q-1.1-0.2-2.3-0.4c-0.2 0-0.3 0.3-0.1 0.3q1.2 0.2 2.3 0.4 0.6 0.1 1.2 0.2c0.3 0.1 0.7 0.2 1 0.1 0.1 0 0.1-0.2 0-0.2-0.3-0.2-0.6-0.2-1-0.3q-0.5 0-1.1-0.1z"/><path class="d" d="m484.8 423.7q2.8 0.7 5.6 1.4 1.9 0.5 3.8 0.9c1.3 0.3 2.7 0.6 3.9 1.1 0.1 0.1 0.1 0.3 0 0.2-1.3 0-2.7-0.5-4-0.8q-1.9-0.5-3.8-1-2.8-0.7-5.5-1.4z"/><path class="d" d="m501.4 428.6q0.2 0 0.4 0.1 0.2 0 0.3 0 0.1 0 0.2 0c0.1-0.1 0.1-0.2 0-0.3q-0.1-0.1-0.2-0.1-0.1 0-0.2-0.1-0.2 0-0.4-0.1-0.4 0-0.9-0.1c-0.1 0-0.2 0-0.2 0.1-0.1 0.1 0 0.3 0.1 0.3q0.5 0.1 0.9 0.2z"/><path class="d" d="m566.9 441.1c-1.4-0.4-2.8-0.6-4.2-0.9q-2.6-0.4-5.3-0.9-6.3-1.3-12.7-2.6c-8.6-1.8-17.1-3.7-25.8-5.3-3-0.6-6-1.1-9-1.5-0.1 0-0.2 0.2-0.1 0.2 2.7 0.4 5.3 0.9 7.9 1.5q5.9 1.3 11.8 2.6c8.8 1.9 17.6 3.7 26.4 5.5q3.1 0.6 6.2 1.1c1.6 0.3 3.2 0.6 4.8 0.6 0.2 0 0.2-0.3 0-0.3z"/><path class="d" d="m482.6 431.2c-0.3 0-0.3 0.4 0 0.5q2.5 0.2 5 0.8c1.6 0.3 3.2 0.8 4.8 1.1 0.1 0 0.3-0.2 0.1-0.3-1.5-0.6-3.2-1-4.9-1.3q-2.5-0.5-5-0.8z"/><path class="d" d="m526.7 441.3q-1.9-0.5-3.8-1-3.8-0.9-7.7-1.7c-5.3-1.1-10.6-2.1-15.9-2.8-0.2-0.1-0.3 0.3-0.1 0.3 5.3 1 10.6 1.9 15.8 3q3.9 0.8 7.8 1.7 1.9 0.5 3.8 1c1.3 0.3 2.6 0.8 3.9 0.9 0.2 0 0.3-0.3 0.1-0.4-1.2-0.6-2.6-0.7-3.9-1z"/><path class="d" d="m565.3 449.6c-0.5-0.2-1-0.2-1.5-0.2q-0.9-0.1-1.9-0.3c-1.2-0.1-2.4-0.3-3.6-0.5-2.3-0.4-4.6-1-6.9-1.5-4.8-1.1-9.6-2.1-14.4-2.7-0.3 0-0.3 0.5 0 0.5 4.9 0.6 9.7 1.9 14.6 3 2.3 0.5 4.6 1 6.9 1.4 1.1 0.2 2.2 0.4 3.3 0.5q0.9 0.1 1.8 0.1c0.5 0.1 1.1 0.2 1.7 0 0.1-0.1 0.1-0.2 0-0.3z"/><path class="d" d="m485.3 420.8q1.9 0.4 3.7 0.8 8.3 1.7 16.6 3.5c4.4 0.9 8.7 1.8 13 2.9 0.1 0 0.1 0.2 0 0.2-2.1-0.2-4.2-0.6-6.2-1.1-5.5-1.1-11-2.4-16.5-3.6-3.6-0.8-7.1-1.6-10.6-2.3z"/><path class="d" d="m504.2 439.5c-1.1-0.2-2.3-0.5-3.4-0.7-1.1-0.3-2.1-0.5-3.2-0.7-2.1-0.5-4.3-0.9-6.4-1.4q-3.3-0.8-6.7-1.6c-1.6-0.4-3.3-0.7-4.9-1.2q0.2-0.2 0.4-0.5c1.6 0.3 3.2 0.7 4.8 1.1q3.3 0.8 6.6 1.6c2.1 0.5 4.3 1.1 6.4 1.6 2.1 0.5 4.4 1 6.4 1.6 0.1 0.1 0.1 0.2 0 0.2z"/><path class="d" d="m522.1 442.8c-0.8-0.3-1.8-0.4-2.7-0.6q-1.3-0.3-2.6-0.5-2.7-0.5-5.3-1c-0.2-0.1-0.3 0.2-0.1 0.3q2.7 0.5 5.4 1.1 1.4 0.2 2.7 0.5c0.9 0.1 1.7 0.4 2.6 0.4 0.1 0 0.1-0.1 0-0.2z"/><path class="d" d="m484.2 414.4q1.3 0.3 2.6 0.6 6.1 1.4 12.2 2.6 2.9 0.6 5.9 1.1c1.5 0.3 3.3 0.4 4.8 0.9 0.1 0 0.1 0.2-0.1 0.2-0.8 0-1.7-0.2-2.5-0.3q-1.4-0.3-2.9-0.5c-6.6-1.3-13.3-2.6-19.9-4.3z"/><path class="d" d="m523.2 422.7c2.8 0.6 5.7 1.2 8.5 1.7q4.3 0.8 8.5 1.6c2.8 0.5 5.7 1.2 8.5 1.6 0.3 0.1 0.4-0.3 0.2-0.4-2.8-0.6-5.7-1-8.5-1.6q-4.3-0.8-8.6-1.6c-2.8-0.5-5.6-0.9-8.4-1.5-2.9-0.5-5.7-1.2-8.6-1.7-0.2 0-0.4 0.4-0.1 0.4 2.8 0.6 5.7 1 8.5 1.5z"/><path class="d" d="m552.8 434.8q-9.7-2-19.4-3.9c-1.6-0.3-3.2-0.7-4.9-1-0.2 0-0.3 0.3-0.1 0.3 4.3 0.8 8.5 1.7 12.7 2.6 6.4 1.3 12.9 2.6 19.3 3.9 1.7 0.3 3.3 0.6 4.9 0.9 0.2 0 0.2-0.2 0.1-0.2-1.3-0.2-2.7-0.6-4-0.9q-4.3-0.9-8.6-1.7z"/><path class="d" d="m496.3 431.4q0.2 0 0.3 0.1 0.8 0.1 1.5 0.3 2.5 0.5 5 1 8.1 1.6 16.3 3.3 9.8 1.9 19.6 3.9 8.4 1.7 16.9 3.4 2.8 0.5 5.6 1.1 0.9 0.1 1.8 0.3c0.2 0 0.6 0.2 0.9 0.2q0.1 0 0.1 0c0.2 0 0.2-0.2 0-0.2-0.5 0-1.3-0.3-1.9-0.4q-2.5-0.5-5-1-8.2-1.7-16.3-3.4-9.8-2-19.5-4-8.5-1.7-17-3.4-2.8-0.6-5.6-1.1c-0.8-0.2-1.8-0.5-2.7-0.6q0 0-0.1 0c-0.3 0-0.3 0.5 0 0.5-0.2 0 0 0 0.1 0z"/></svg>