<svg version="1.2" xmlns="http://www.w3.org/2000/svg" viewBox="0 0 873 893" width="873" height="893"><defs><linearGradient id="P" gradientUnits="userSpaceOnUse"/><linearGradient id="g1" x2="1" href="#P" gradientTransform="matrix(1363.72,1346.492,-1636.42,1657.357,82.387,-801.193)"><stop stop-color="#fff"/><stop offset="1" stop-color="#c9deff"/></linearGradient><linearGradient id="g2" x2="1" href="#P" gradientTransform="matrix(69.585,0,0,313.31,738.565,334.675)"><stop offset=".02" stop-color="#343b97"/><stop offset="1" stop-color="#5457d4"/></linearGradient><linearGradient id="g3" x2="1" href="#P" gradientTransform="matrix(78,131.001,-195.698,116.522,751.185,351.37)"><stop stop-color="#95a9ef"/><stop offset="1" stop-color="#5457d4"/></linearGradient><linearGradient id="g4" x2="1" href="#P" gradientTransform="matrix(78,131,-195.696,116.522,743.623,355.873)"><stop stop-color="#95a9ef"/><stop offset="1" stop-color="#5457d4"/></linearGradient><linearGradient id="g5" x2="1" href="#P" gradientTransform="matrix(0,-58.106,28.539,0,734.044,368.305)"><stop stop-color="#f59f7c"/><stop offset="1" stop-color="#f56d25"/></linearGradient><linearGradient id="g6" x2="1" href="#P" gradientTransform="matrix(59.364,0,0,267.292,808.39,381.629)"><stop stop-color="#f59f7c"/><stop offset="1" stop-color="#f56d25"/></linearGradient><linearGradient id="g7" x2="1" href="#P" gradientTransform="matrix(60.572,0,0,23.047,801.565,417.961)"><stop stop-color="#fff"/><stop offset="1" stop-color="#c9deff"/></linearGradient><linearGradient id="g8" x2="1" href="#P" gradientTransform="matrix(0,-49.571,24.348,0,804.533,410.32)"><stop offset=".02" stop-color="#343b97"/><stop offset="1" stop-color="#5457d4"/></linearGradient><linearGradient id="g9" x2="1" href="#P" gradientTransform="matrix(17.5,0,0,174.331,826.726,452.78)"><stop stop-color="#fff"/><stop offset="1" stop-color="#c9deff"/></linearGradient><linearGradient id="g10" x2="1" href="#P" gradientTransform="matrix(0,165.714,-2678.169,0,437.963,618.24)"><stop stop-color="#d7def9"/><stop offset="1" stop-color="#5457d4"/></linearGradient><linearGradient id="g11" x2="1" href="#P" gradientTransform="matrix(0,-49.194,100.817,0,412.775,627.286)"><stop stop-color="#f59f7c"/><stop offset="1" stop-color="#f56d25"/></linearGradient><linearGradient id="g12" x2="1" href="#P" gradientTransform="matrix(0,32.196,-489.386,0,428.604,643.645)"><stop stop-color="#f59f7c"/><stop offset="1" stop-color="#f56d25"/></linearGradient><linearGradient id="g13" x2="1" href="#P" gradientTransform="matrix(0,-205.12,281.946,0,261.187,574.89)"><stop stop-color="#f59f7c"/><stop offset="1" stop-color="#f56d25"/></linearGradient><linearGradient id="g14" x2="1" href="#P" gradientTransform="matrix(-267,-58.5,41.729,-190.455,320.722,487.932)"><stop stop-color="#fff"/><stop offset="1" stop-color="#c9deff"/></linearGradient><clipPath clipPathUnits="userSpaceOnUse" id="cp1"><path d="m729.28 489.48h-597.87v-350.21h597.87z"/></clipPath><linearGradient id="g15" x2="1" href="#P" gradientTransform="matrix(183.786,201.554,-199.398,181.82,677.252,124.86)"><stop stop-color="#95a9ef"/><stop offset="1" stop-color="#5457d4"/></linearGradient><linearGradient id="g16" x2="1" href="#P" gradientTransform="matrix(183.786,201.554,-202.632,184.77,592.052,202.549)"><stop stop-color="#95a9ef"/><stop offset="1" stop-color="#5457d4"/></linearGradient><linearGradient id="g17" x2="1" href="#P" gradientTransform="matrix(183.786,201.554,-198.279,180.8,621.023,176.132)"><stop stop-color="#95a9ef"/><stop offset="1" stop-color="#5457d4"/></linearGradient><linearGradient id="g18" x2="1" href="#P" gradientTransform="matrix(82.512,162.542,-35.953,18.251,907.259,132.559)"><stop stop-color="#f59f7c"/><stop offset="1" stop-color="#f56d25"/></linearGradient><linearGradient id="g19" x2="1" href="#P" gradientTransform="matrix(91.474,142.293,-39.118,25.147,747.788,377.565)"><stop stop-color="#f59f7c"/><stop offset="1" stop-color="#f56d25"/></linearGradient><linearGradient id="g20" x2="1" href="#P" gradientTransform="matrix(-0.114,-0.275,.663,-0.275,338.195,321.07)"><stop stop-color="#f59f7c"/><stop offset="1" stop-color="#f5d3ac"/></linearGradient><linearGradient id="g21" x2="1" href="#P" gradientTransform="matrix(-108.278,-56.099,49.543,-95.625,629.609,516.659)"><stop offset=".02" stop-color="#343b97"/><stop offset="1" stop-color="#5457d4"/></linearGradient><linearGradient id="g22" x2="1" href="#P" gradientTransform="matrix(-34.23,-17.734,15.842,-30.577,386.094,364.444)"><stop stop-color="#f59f7c"/><stop offset="1" stop-color="#f5d3ac"/></linearGradient><linearGradient id="g23" x2="1" href="#P" gradientTransform="matrix(14.941,32.635,-27.233,12.468,395.053,299.479)"><stop stop-color="#f59f7c"/><stop offset="1" stop-color="#f5d3ac"/></linearGradient><linearGradient id="g24" x2="1" href="#P" gradientTransform="matrix(-0.556,48.348,-27.538,-0.317,419.712,264.48)"><stop stop-color="#f59f7c"/><stop offset="1" stop-color="#f5d3ac"/></linearGradient><linearGradient id="g25" x2="1" href="#P" gradientTransform="matrix(.294,45.879,-25.908,.166,422.871,282.473)"><stop stop-color="#f59f7c"/><stop offset="1" stop-color="#f5d3ac"/></linearGradient><linearGradient id="g26" x2="1" href="#P" gradientTransform="matrix(-148.208,-76.786,80.162,-154.725,446.461,482.58)"><stop offset=".02" stop-color="#343b97"/><stop offset="1" stop-color="#5457d4"/></linearGradient><linearGradient id="g27" x2="1" href="#P" gradientTransform="matrix(-205.631,-106.537,111.061,-214.364,564.85,555.964)"><stop offset=".02" stop-color="#343b97"/><stop offset="1" stop-color="#5457d4"/></linearGradient><linearGradient id="g28" x2="1" href="#P" gradientTransform="matrix(-22.905,-128.361,49.628,-8.856,371.602,578.291)"><stop offset=".02" stop-color="#343b97"/><stop offset="1" stop-color="#5457d4"/></linearGradient><linearGradient id="g29" x2="1" href="#P" gradientTransform="matrix(26.221,-119.052,53.423,11.766,332.459,421.081)"><stop stop-color="#fff"/><stop offset="1" stop-color="#c9deff"/></linearGradient><linearGradient id="g30" x2="1" href="#P" gradientTransform="matrix(-21.583,-120.955,37.221,-6.642,380.808,554.846)"><stop offset=".02" stop-color="#343b97"/><stop offset="1" stop-color="#5457d4"/></linearGradient><linearGradient id="g31" x2="1" href="#P" gradientTransform="matrix(.057,31.632,-31.397,.056,568.82,290.764)"><stop stop-color="#f59f7c"/><stop offset="1" stop-color="#f5d3ac"/></linearGradient><linearGradient id="g32" x2="1" href="#P" gradientTransform="matrix(-0.074,-41.15,21.826,-0.039,485.875,303.378)"><stop stop-color="#f59f7c"/><stop offset="1" stop-color="#f5d3ac"/></linearGradient><linearGradient id="g33" x2="1" href="#P" gradientTransform="matrix(-0.074,-41.15,21.826,-0.039,553.843,303.246)"><stop stop-color="#f59f7c"/><stop offset="1" stop-color="#f5d3ac"/></linearGradient><linearGradient id="g34" x2="1" href="#P" gradientTransform="matrix(.1,55.846,-35.18,.063,626.888,205.389)"><stop stop-color="#f59f7c"/><stop offset="1" stop-color="#f5d3ac"/></linearGradient><linearGradient id="g35" x2="1" href="#P" gradientTransform="matrix(4.677,0,0,4.677,520.813,253.766)"><stop stop-color="#1e2064"/><stop offset="1" stop-color="#3c3b97"/></linearGradient><linearGradient id="g36" x2="1" href="#P" gradientTransform="matrix(4.677,0,0,4.677,556.836,253.702)"><stop stop-color="#1e2064"/><stop offset="1" stop-color="#3c3b97"/></linearGradient><linearGradient id="g37" x2="1" href="#P" gradientTransform="matrix(-120.559,-101.435,163.241,-194.017,516.113,329.926)"><stop stop-color="#f59f7c"/><stop offset="1" stop-color="#f56d25"/></linearGradient><linearGradient id="g38" x2="1" href="#P" gradientTransform="matrix(76.504,13.502,-30.869,174.901,543.582,192.689)"><stop stop-color="#f59f7c"/><stop offset="1" stop-color="#f56d25"/></linearGradient><linearGradient id="g39" x2="1" href="#P" gradientTransform="matrix(-0.113,-63.081,124.171,-0.223,531.542,260.676)"><stop stop-color="#f59f7c"/><stop offset="1" stop-color="#f56d25"/></linearGradient><linearGradient id="g40" x2="1" href="#P" gradientTransform="matrix(0,-49.483,13.259,0,499.728,283.514)"><stop stop-color="#f59f7c"/><stop offset="1" stop-color="#f56d25"/></linearGradient><linearGradient id="g41" x2="1" href="#P" gradientTransform="matrix(0,-17.803,46.779,0,539.791,297.58)"><stop stop-color="#f59f7c"/><stop offset="1" stop-color="#f56d25"/></linearGradient><linearGradient id="g42" x2="1" href="#P" gradientTransform="matrix(57.619,88,-65.501,42.887,672.79,388.071)"><stop stop-color="#1e2064"/><stop offset="1" stop-color="#3c3b97"/></linearGradient><linearGradient id="g43" x2="1" href="#P" gradientTransform="matrix(-84.7,-43.883,30.158,-58.209,672.392,451.486)"><stop stop-color="#f59f7c"/><stop offset="1" stop-color="#f5d3ac"/></linearGradient><linearGradient id="g44" x2="1" href="#P" gradientTransform="matrix(48.444,95.43,-78.612,39.906,415.13,45.301)"><stop stop-color="#f59f7c"/><stop offset="1" stop-color="#f56d25"/></linearGradient><linearGradient id="g45" x2="1" href="#P" gradientTransform="matrix(15.296,30.132,-33.218,16.862,388.592,196.53)"><stop stop-color="#95a9ef"/><stop offset="1" stop-color="#5457d4"/></linearGradient><linearGradient id="g46" x2="1" href="#P" gradientTransform="matrix(4.683,9.226,-14.397,7.309,386.184,235.983)"><stop stop-color="#1e2064"/><stop offset="1" stop-color="#3c3b97"/></linearGradient><linearGradient id="g47" x2="1" href="#P" gradientTransform="matrix(5.925,11.672,-20.67,10.493,384.005,211.15)"><stop stop-color="#1e2064"/><stop offset="1" stop-color="#3c3b97"/></linearGradient><linearGradient id="g48" x2="1" href="#P" gradientTransform="matrix(5.925,11.672,-20.67,10.493,384.005,218.127)"><stop stop-color="#1e2064"/><stop offset="1" stop-color="#3c3b97"/></linearGradient><linearGradient id="g49" x2="1" href="#P" gradientTransform="matrix(5.925,11.672,-20.67,10.493,384.005,225.104)"><stop stop-color="#1e2064"/><stop offset="1" stop-color="#3c3b97"/></linearGradient><linearGradient id="g50" x2="1" href="#P" gradientTransform="matrix(235.424,0,0,133.676,88.437,185.383)"><stop stop-color="#fff"/><stop offset="1" stop-color="#c9deff"/></linearGradient><clipPath clipPathUnits="userSpaceOnUse" id="cp2"><path d="m323.86 319.06h-235.42v-133.68h235.42z"/></clipPath><linearGradient id="g51" x2="1" href="#P" gradientTransform="matrix(105.414,-54.615,118.756,229.216,342.048,607.01)"><stop stop-color="#fff"/><stop offset="1" stop-color="#c9deff"/></linearGradient><linearGradient id="g52" x2="1" href="#P" gradientTransform="matrix(-105.414,-54.615,118.756,-229.217,65.708,607.01)"><stop stop-color="#fff"/><stop offset="1" stop-color="#c9deff"/></linearGradient><linearGradient id="g53" x2="1" href="#P" gradientTransform="matrix(-180.561,-153.75,160.488,-188.473,182.212,553.278)"><stop stop-color="#f59f7c"/><stop offset="1" stop-color="#f56d25"/></linearGradient><linearGradient id="g54" x2="1" href="#P" gradientTransform="matrix(-8.509,-83.23,300.569,-30.728,205.407,350.793)"><stop stop-color="#fff"/><stop offset="1" stop-color="#90bdff"/></linearGradient><linearGradient id="g55" x2="1" href="#P" gradientTransform="matrix(2.147,-47.664,45.23,2.037,174.635,353.332)"><stop stop-color="#fff"/><stop offset="1" stop-color="#c9deff"/></linearGradient><linearGradient id="g56" x2="1" href="#P" gradientTransform="matrix(12.308,2.848,-2.754,11.902,199.719,298.435)"><stop offset=".02" stop-color="#343b97"/><stop offset="1" stop-color="#5457d4"/></linearGradient><linearGradient id="g57" x2="1" href="#P" gradientTransform="matrix(7.111,-18.7,9.452,3.595,177.176,324.079)"><stop offset=".02" stop-color="#343b97"/><stop offset="1" stop-color="#5457d4"/></linearGradient><linearGradient id="g58" x2="1" href="#P" gradientTransform="matrix(-0.203,23.011,-25.93,-0.229,219.565,264.645)"><stop stop-color="#f59f7c"/><stop offset="1" stop-color="#f5d3ac"/></linearGradient><linearGradient id="g59" x2="1" href="#P" gradientTransform="matrix(.264,-29.934,15.878,.14,161.774,270.751)"><stop stop-color="#f59f7c"/><stop offset="1" stop-color="#f5d3ac"/></linearGradient><linearGradient id="g60" x2="1" href="#P" gradientTransform="matrix(.264,-29.935,15.877,.14,215.517,271.222)"><stop stop-color="#f59f7c"/><stop offset="1" stop-color="#f5d3ac"/></linearGradient><linearGradient id="g61" x2="1" href="#P" gradientTransform="matrix(-0.353,40.109,-26.389,-0.233,263.667,200.541)"><stop stop-color="#f59f7c"/><stop offset="1" stop-color="#f5d3ac"/></linearGradient><linearGradient id="g62" x2="1" href="#P" gradientTransform="matrix(-84.338,-72.501,120.223,-139.851,177.05,299.057)"><stop offset=".02" stop-color="#343b97"/><stop offset="1" stop-color="#5457d4"/></linearGradient><linearGradient id="g63" x2="1" href="#P" gradientTransform="matrix(52.87,9.911,-23.318,124.393,207.784,186.642)"><stop offset=".02" stop-color="#343b97"/><stop offset="1" stop-color="#5457d4"/></linearGradient><linearGradient id="g64" x2="1" href="#P" gradientTransform="matrix(31.508,-69.581,78.907,35.731,153.453,307.048)"><stop stop-color="#fff"/><stop offset="1" stop-color="#c9deff"/></linearGradient><linearGradient id="g65" x2="1" href="#P" gradientTransform="matrix(-17.666,-65.143,62.672,-16.996,198.761,330.292)"><stop stop-color="#fff"/><stop offset="1" stop-color="#c9deff"/></linearGradient><linearGradient id="g66" x2="1" href="#P" gradientTransform="matrix(44.302,0,0,22.525,181.798,188.741)"><stop offset=".02" stop-color="#343b97"/><stop offset="1" stop-color="#5457d4"/></linearGradient><linearGradient id="g67" x2="1" href="#P" gradientTransform="matrix(235.424,0,0,133.676,88.437,334.675)"><stop stop-color="#f59f7c"/><stop offset="1" stop-color="#f56d25"/></linearGradient><clipPath clipPathUnits="userSpaceOnUse" id="cp3"><path d="m323.86 468.35h-235.42v-133.67h235.42z"/></clipPath><linearGradient id="g68" x2="1" href="#P" gradientTransform="matrix(-172.225,-89.229,86.284,-166.541,321.391,468.511)"><stop stop-color="#fff"/><stop offset="1" stop-color="#c9deff"/></linearGradient><linearGradient id="g69" x2="1" href="#P" gradientTransform="matrix(-2.87,37.307,-44.989,-3.461,179.837,405.261)"><stop stop-color="#1e2064"/><stop offset="1" stop-color="#3c3b97"/></linearGradient><linearGradient id="g70" x2="1" href="#P" gradientTransform="matrix(0,38.714,-38.669,0,184.443,410.273)"><stop stop-color="#824728"/><stop offset=".99" stop-color="#c98463"/><stop offset="1" stop-color="#c98463"/></linearGradient><linearGradient id="g71" x2="1" href="#P" gradientTransform="matrix(.252,-28.593,15.168,.134,186.767,415.661)"><stop stop-color="#f59f7c"/><stop offset="1" stop-color="#f5d3ac"/></linearGradient><linearGradient id="g72" x2="1" href="#P" gradientTransform="matrix(.252,-28.593,15.164,.134,238.103,416.111)"><stop stop-color="#f59f7c"/><stop offset="1" stop-color="#f5d3ac"/></linearGradient><linearGradient id="g73" x2="1" href="#P" gradientTransform="matrix(0,48.05,-36.837,0,184.095,371.595)"><stop stop-color="#824728"/><stop offset=".99" stop-color="#c98463"/><stop offset="1" stop-color="#c98463"/></linearGradient><linearGradient id="g74" x2="1" href="#P" gradientTransform="matrix(0,68.505,-51.562,0,162.672,352.915)"><stop stop-color="#1e2064"/><stop offset="1" stop-color="#3c3b97"/></linearGradient><linearGradient id="g75" x2="1" href="#P" gradientTransform="matrix(0,55.565,-29.236,0,215.18,359.792)"><stop stop-color="#1e2064"/><stop offset="1" stop-color="#3c3b97"/></linearGradient><linearGradient id="g76" x2="1" href="#P" gradientTransform="matrix(0,109.231,-327.436,0,725.675,595.175)"><stop stop-color="#f59f7c"/><stop offset="1" stop-color="#f56d25"/></linearGradient><linearGradient id="g77" x2="1" href="#P" gradientTransform="matrix(0,-189.952,50.672,0,-239.978,889)"><stop stop-color="#d7def9"/><stop offset="1" stop-color="#5457d4"/></linearGradient><clipPath clipPathUnits="userSpaceOnUse" id="cp4"><path d="m517.85 622.25h354.15v270.75h-354.15z"/></clipPath><linearGradient id="g78" x2="1" href="#P" gradientTransform="matrix(-44.426,-243.151,172.074,-31.44,673.168,899.491)"><stop offset=".02" stop-color="#343b97"/><stop offset="1" stop-color="#5457d4"/></linearGradient><linearGradient id="g79" x2="1" href="#P" gradientTransform="matrix(-249.315,-229.424,58.377,-63.438,867.326,1032.04)"><stop offset=".02" stop-color="#343b97"/><stop offset="1" stop-color="#787add"/></linearGradient><linearGradient id="g80" x2="1" href="#P" gradientTransform="matrix(0,0,0,0,688.736,702.669)"><stop offset=".02" stop-color="#343b97"/><stop offset="1" stop-color="#787add"/></linearGradient><linearGradient id="g81" x2="1" href="#P" gradientTransform="matrix(-114.143,-185.542,131.305,-80.777,667.971,976.33)"><stop stop-color="#f59f7c"/><stop offset="1" stop-color="#f56d25"/></linearGradient></defs><style>.a{fill:url(#g1)}.b{fill:url(#g2)}.c{fill:url(#g3)}.d{fill:url(#g4)}.e{fill:url(#g5)}.f{fill:url(#g6)}.g{fill:url(#g7)}.h{fill:url(#g8)}.i{fill:url(#g9)}.j{fill:url(#g10)}.k{fill:url(#g11)}.l{fill:url(#g12)}.m{fill:url(#g13)}.n{fill:#343da2}.o{fill:url(#g14)}.p{fill:url(#g15)}.q{fill:url(#g16)}.r{fill:url(#g17)}.s{fill:url(#g18)}.t{fill:url(#g19)}.u{fill:url(#g20)}.v{fill:url(#g21)}.w{fill:url(#g22)}.x{fill:url(#g23)}.y{fill:url(#g24)}.z{fill:url(#g25)}.A{fill:url(#g26)}.B{fill:url(#g27)}.C{fill:url(#g28)}.D{fill:url(#g29)}.E{fill:url(#g30)}.F{fill:url(#g31)}.G{fill:url(#g32)}.H{fill:url(#g33)}.I{fill:url(#g34)}.J{fill:url(#g35)}.K{fill:url(#g36)}.L{fill:none;stroke:#ff7831;stroke-linecap:round;stroke-miterlimit:10;stroke-width:2}.M{fill:url(#g37)}.N{fill:url(#g38)}.O{fill:url(#g39)}.P{fill:url(#g40)}.Q{fill:url(#g41)}.R{fill:url(#g42)}.S{fill:url(#g43)}.T{fill:url(#g44)}.U{fill:url(#g45)}.V{fill:url(#g46)}.W{fill:url(#g47)}.X{fill:url(#g48)}.Y{fill:url(#g49)}.Z{fill:none;stroke:#fff;stroke-miterlimit:10;stroke-width:2}.a0{fill:url(#g50)}.a1{fill:url(#g51)}.a2{fill:url(#g52)}.a3{fill:url(#g53)}.a4{fill:url(#g54)}.a5{fill:url(#g55)}.a6{fill:url(#g56)}.a7{fill:url(#g57)}.a8{fill:url(#g58)}.a9{fill:url(#g59)}.aa{fill:url(#g60)}.ab{fill:url(#g61)}.ac{fill:#2f3a9e}.ad{fill:#ff9b72}.ae{fill:url(#g62)}.af{fill:url(#g63)}.ag{fill:url(#g64)}.ah{fill:url(#g65)}.ai{fill:none;stroke:#ff9b72;stroke-linecap:round;stroke-linejoin:round}.aj{fill:url(#g66)}.ak{fill:none;stroke:#86a0ed;stroke-miterlimit:10;stroke-width:2}.al{fill:#343b97}.am{fill:url(#g67)}.an{fill:url(#g68)}.ao{fill:url(#g69)}.ap{fill:url(#g70)}.aq{fill:url(#g71)}.ar{fill:url(#g72)}.as{fill:url(#g73)}.at{fill:#5b392a}.au{fill:url(#g74)}.av{fill:url(#g75)}.aw{fill:#fff}.ax{fill:url(#g76)}.ay{fill:url(#g77)}.az{fill:url(#g78)}.aA{fill:url(#g79)}.aB{fill:url(#g80)}.aC{fill:url(#g81)}</style><path class="a" d="m872 38.1v854.9h-825.2c-23.2-58-38.2-120.1-43.8-185q-2.3-26.7-2.4-53.9 0-1.3 0-2.6c0-359.8 291.6-651.5 651.5-651.5 77.1 0 151.2 13.4 219.9 38.1z"/><path class="b" d="m801.6 654.4h-71v-319.7h71z"/><path class="c" d="m801.6 386h-71v-8.7h71z"/><path class="d" d="m801.6 403.2h-71v-8.7h71z"/><path class="e" d="m779.1 370.3l-8.8-7-8.7 7v-35.6h17.5z"/><path class="f" d="m862.1 654.4h-60.5v-272.8h60.5z"/><path class="g" d="m862.1 441h-60.5v-23h60.5z"/><path class="h" d="m842.9 412l-7.4-5.9-7.5 5.9v-30.4h14.9z"/><path class="i" d="m844.2 627.1h-17.5v-174.3h17.5z"/><path class="j" d="m872 654.1v53.9h-869q-2.3-26.7-2.4-53.9z"/><path class="k" d="m492.5 639.2h-128.8v-62.9h128.8z"/><path class="l" d="m541.7 654.1h-227.2v-14.9h227.2z"/><path class="m" d="m743.5 143v415.5c0 12-9.7 21.7-21.7 21.7h-587.4c-12 0-21.7-9.7-21.7-21.7v-415.5c0-12 9.7-21.7 21.7-21.7h587.4c12 0 21.7 9.7 21.7 21.7z"/><path class="n" d="m743.5 143v365.4h-630.8v-365.4c0-12 9.7-21.7 21.7-21.7h587.4c12 0 21.7 9.7 21.7 21.7z"/><path class="o" d="m729.3 489.5h-597.9v-350.2h597.9z"/><g clip-path="url(#cp1)"><path fill-rule="evenodd" class="p" d="m704.7 178.9v92.4h-73.1v-92.4zm-66.3 85.7h59.7v-79h-59.7z"/><path fill-rule="evenodd" class="q" d="m549.2 232.6h78.3v69.7h-78.3zm6.7 6.7v56.4h65v-56.4z"/><path fill-rule="evenodd" class="r" d="m634.2 275.2h50.6v72.5h-50.6zm6.6 65.8h37.3v-59.1h-37.3z"/><path class="s" d="m725.5 452.8c-2.4-8.5-4.8-15.7-5.7-24.5-0.9-8.2-2.5-16.5-4.7-24.4-4.3-16.5-11-32.4-19.7-47-4.3-7.1-9-13.9-14.2-20.4-2.3-2.8-16.1-14.6-16-17.4-1 27.9 6.2 55.6 15.3 82 3.8 10.7 7.9 21.5 14.7 30.6 3.6 4.7 7.8 8.9 11.6 13.5 17.9 21.5 20.7 47.2 19.9 74 0 0.6 2.9 0.1 3.2 0 2.4-22.9 1.9-43.6-4.4-66.4z"/><path class="t" d="m700.5 482.6c13.1 0.7 21.3 2.2 29.4 13.3 7 9.7 13.3 20 18.5 30.8q2.6-1.8 5.3-3.5c-9.9-18.3-20.5-36.2-31.9-53.6-10.3-15.6-21.3-29.4-36.5-40.4-15.4-11.4-33.9-17.8-49.7-29 5.9 20.9 14.5 41.1 25.5 59.8 2.9 5 6.1 10 10.5 13.7 7.9 6.6 18.7 8.4 28.9 8.9z"/></g><path class="u" d="m338.6 320.7q-0.6 0-1.1 0"/><path class="v" d="m611.5 327.9c18.3 22.5 58.3 95.8 59.9 105.4 1.7 9.6-1.6 17.9-13.7 21.6-12.1 3.8-48.3-37.6-48.3-37.6z"/><path class="w" d="m392.8 327.5c0.4 4.3 2.7 19.5 2.7 19.5 0 0-15.7 6.4-15.7 5.6 0-0.8-3.3-20.2-7.3-23.7-4-3.4 1.6-7.4 1.6-7.4z"/><path class="x" d="m363.3 309.4c0.5 5.4 1.3 11.9 5.2 16.1 1.7 1.8 3.6 3.5 6 4.4 2.3 0.9 5.2 0.9 7.2-0.7 3.1-2.5 4.9-9.3 5.5-13.1 0.5-3.2 0.7-6.5-0.7-9.4-2.1-4.1-7-5.8-11.5-7.1z"/><path class="y" d="m388.5 304.7c1-1.6-0.4-8.3-0.4-10.3q-0.1-5.6 0.1-11.1c0.2-6.6 1.2-13.3 0.9-20-1.7 0.2-3.1 1.5-4 3-0.8 1.5-1.2 3.2-1.5 4.8-1.3 6.2-2.6 12.5-3 18.8-2.2-3.2-8.1-2.8-8.6 1.7-2.5-1.9-6.8 0.3-6.8 3.5-1.6-0.8-3.6 0.1-4.7 1.5-1.1 1.5-1.3 3.4-1.4 5.2-0.2 4 0.5 8.1 2.1 11.9 0.4 0.8 1 1.7 1.8 1.7 0.7-0.1 1.2-0.7 1.6-1.3q1.3-2 2.7-4.1c-0.8 1-0.1 2.5 1.1 2.8 1.1 0.3 2.4-0.4 3.1-1.3 0.7-1 0.9-2.2 1.2-3.4 0.8 2.2 2.8 3.7 5.1 4.3 2.2 0.6 4.6 0.4 6.9 0z"/><path class="z" d="m392.8 327.5c0.7-1.7 1-3.7 1.2-5.7 0.5-5.4 0.9-10.7 1.4-16 0.1-0.6 0.1-1.2 0-1.7-0.2-0.5-0.6-0.9-0.9-1.3q-4.2-5.1-8.4-10.1c-0.7-0.9-1.5-1.9-2.5-2.6-1-0.6-2-1-3.1-1.4q-4.5-1.7-9-3.4c-0.2-0.1-0.5-0.2-0.8-0.2-0.8 0.1-1.2 0.9-1.3 1.7-0.7 4.1 2.4 8.6 6.5 9.4 1.2 0.2 2.4 0.2 3.5 0.6 2.4 0.9 3.7 3.5 4.7 5.9-4.6 1.6-7.5 6.5-8.2 11.3-0.8 5.4-0.5 11.8 4.3 15.2 2.3 1.6 5.2 2.2 8 1.8 2.5-0.5 3.8-1.8 4.6-3.5z"/><path class="A" d="m472.5 325l-57.6 67.9-19.4-57.6c-7 2.7-16.6 3.8-28.9 8.5 8.4 32.2 13.5 66.2 25 87.4 4.8 8.9 22.8 10 27.6 9.8 15.9-0.9 63-42.2 63-42.2z"/><path class="B" d="m617.7 398.8c-1.2 19.3-6.7 58.4-9.5 77.7 0.1 1.5 2 6.2 4.2 13.9h-141.3q1.6-4.8 3.1-9.4c0.3-11.5-1.3-48.2-4.7-71-7-38.1 2.5-84.8 3-84.9 16.6-8 45.3-12.1 45.3-12.1l46.1-0.4c22.5 5.7 33.4 10.9 47.6 15.3 4.5 16.5 8.9 29.2 6.2 70.9z"/><path class="C" d="m561.5 441l7-127.5 26.6 42.1-11.3 9.5 4.8 20.9z"/><path class="D" d="m517.8 313l3.4 171.7h40.3v-43.7l7-127.5-24.4 12-16.5-4.1z"/><path class="E" d="m520.3 437.9l-2.5-124.9-30.8 40.6 12.6 13-6.9 21.8z"/><path class="F" d="m521.7 286.1c0 0-0.2 17.3-0.2 21.5 0 4.1-3.7 5.4-3.7 5.4 0 0 4.5 15.4 25.5 22.3 24.2-9 25.2-21.8 25.2-21.8 0 0-4.8-1.5-5.6-4.8-0.8-3.3 0-24.5 0-24.5z"/><path class="G" d="m510.7 260.7c-3-6.8-6.9-5.1-8.8-2.7-2 2.5 1.2 14 3.7 18.6 2.4 4.7 7.8 0 7.8 0z"/><path class="H" d="m571.9 260.6c2.9-6.9 6.9-5.2 8.8-2.7 2 2.4-1.2 14-3.6 18.6-2.4 4.6-7.8 0-7.8 0z"/><path class="I" d="m575.3 242.5c0.4-14.7-4.9-24.2-11.5-30.3-12.9-12-32.2-12-45.1 0.1-6.5 6.1-11.8 15.6-11.3 30.3 0 0 0.6 28.6 4.3 41 3.2 10.4 12.8 19.2 19.7 23.4 8.9 5.8 16 5.3 23.7-0.3 8.6-6.3 12.9-12.8 15.9-23.2 3.7-12.5 4.3-41 4.3-41z"/><path class="J" d="m525.5 256.1c0 1.3-1.1 2.3-2.3 2.3-1.3 0-2.4-1-2.4-2.3 0-1.3 1.1-2.3 2.3-2.3 1.3 0 2.4 1 2.4 2.3z"/><path class="K" d="m561.5 256c0 1.3-1 2.4-2.3 2.4-1.3 0-2.4-1.1-2.4-2.4 0-1.2 1.1-2.3 2.4-2.3 1.3 0 2.3 1 2.3 2.3z"/><path class="L" d="m555.1 246.8c3.4 0.4 6.4 0.9 9.5 2.5"/><path class="L" d="m525.8 246.8c-3.4 0.4-6.4 0.9-9.5 2.5"/><path class="M" d="m520.7 218.6c0 0-4.9 19.1-8.9 23.3-4 4.2-2.9 14.5-3.1 18.1-0.2 3.6-1.4 6-1.4 6.1 0.5-1.1-0.6-4.2-0.7-5.3-0.1-2.8-0.1-4.8-1-7.6-1.7-5.8-4.7-11.6-5.4-17.8-0.9-7.9 2.8-12.5 8.5-17.5 2.1-1.8 6.2-6.1 9.3-6 3.9 0.2 2.7 4 2.7 6.7z"/><path class="N" d="m561.8 218.5c0 0.2 5.4 20.7 9.4 24.9 4 4.2 2.9 14.2 3.1 17.8 0.2 3.6 1.1 4.8 1.1 4.8 0.8-5.8 1.4-11.6 2.2-17.4 0.6-4.9 2.1-10 2.2-14.9 0.1-8.8-5.7-14.7-11.2-20.7-1.7-1.9-5.8-1.6-6.9 0.9-0.5 1.2-0.2 3.3 0.1 4.6z"/><path class="O" d="m564.1 224.4c-1.6 0.7-3.2 1.2-4.4 1.4-4.2 1-8.7-0.3-13-0.6-8.3-0.5-16.9-0.6-24.9 1.8-3.2 1-6.6 2.9-9.5 0.4-3.1-2.7-4.4-8.5-4.2-12.4 0.6-9.8 14.1-12.4 21.5-14.1 4.2-0.9 8.5-1.4 12.7-1.9q13.7-1.7 27.4-3.3c2.4-0.3 3.1 15.1 2.9 16.7-0.5 6.2-2.7 9.5-8.5 12z"/><path class="P" d="m540 256.3c-0.6 7.7-1.1 14.2-1.7 21.9 1.8 0.2 3.1 0.1 6-0.2 0.2 0-1.1-14.9-0.8-22z"/><path class="Q" d="m530.8 287.7h21.1c-3.6 11.1-18.6 10.3-21.1 0z"/><path class="R" d="m647.5 407.6c-14.3 2.3-14.5 21.8-6.9 33.4 7.7 11.6 9.4 17.3 22.4 11.7 13-5.7 10-28.9 3.4-36.8-6.5-8-9.1-9.9-18.9-8.3z"/><path class="S" d="m666.1 430.6c-10.1 5.5-20.9 4.1-31.2-1.3-5.8-3.1-11-8.7-16-12.9-1.7-1.4-6.6-4.2-7.4-6.3-2-5 6.1-3.9 8.3-2.4 1.6 1.1 2.4 3.1 3.9 4.4 2.4 1.9 5.8 3 8.6 4 1.3 0.5 2.7 0.9 4 0.7 1.4-0.3 2.5-1.3 3.6-2.3 8.6-8 17.2-15.6 26.4-22.9 3.3 6-6.4 15.8-10.7 19.8 6.5-6.1 15.1-9.6 21.9-15.7 0.1-0.1-0.4 5.8-1.3 7.1-2.4 3.3-6.1 5.5-9.1 8.2 6.4-3.7 13.2-6.9 19.6-10.9 0.4-0.3 0.4 4.1 0.2 4.6-0.6 2.1-2 2.7-3.5 4.1-3.9 3.6-10.7 6.7-13.2 11.5q9.9-3.4 19.2-8c0.4 1.7-0.3 3.4-1.4 4.7-1.1 1.2-2.6 2.1-4.1 3q-8.4 5-16.8 10-0.5 0.3-1 0.6z"/><path class="T" d="m428 154.4c0-22.9-19.9-41.2-43.3-38.6-17.6 2-31.9 16-34.1 33.6-1.3 10.1 1.4 19.6 6.6 27.2 5.2 7.4 8.5 15.9 10.6 24.6l2 8.2c0.5 2.4 2.7 4.1 5.2 4.1h14.1 14.2c2.5 0 4.6-1.7 5.2-4.1l2.1-9c2-8.5 5.4-16.6 10.4-23.8 4.4-6.3 7-13.9 7-22.2z"/><path class="U" d="m399.9 242.7h-21.6c-3.5 0-6.4-2.9-6.4-6.4v-19.5h34.4v19.5c0 3.5-2.8 6.4-6.4 6.4z"/><path class="V" d="m395.5 246.8h-12.8c-1.4 0-2.6-1.2-2.6-2.6v-1.5h18.1v1.5c0 1.4-1.2 2.6-2.7 2.6z"/><path class="W" d="m403 222.9h-28.6v-2.3h28.6z"/><path class="X" d="m403 229.9h-28.6v-2.3h28.6z"/><path class="Y" d="m403 236.8h-28.6v-2.3h28.6z"/><path class="Z" d="m400.1 213.5l6.3-56.2-9.4 7.2-8.3-7.2-8.3 7.2-9.4-7.2 6.4 56.2"/><path class="a0" d="m323.9 319.1h-235.5v-133.7h235.5z"/><g clip-path="url(#cp2)"><path class="a1" d="m254.8 291.9c21.7 8.8 27.7 33.9 29.9 49.2 2.3 15.2 6.4 59.4 6.4 59.4l2.5 57.6h-27.6l-11.2-100.5z"/><path class="a2" d="m153 291.9c-21.7 8.8-27.8 33.9-30 49.2-2.2 15.2-6.3 59.4-6.3 59.4l-2.6 57.6h27.6l11.3-100.5z"/><path class="a3" d="m263 468.4c-0.1-0.6-5.5-98.6-3.8-116.5-1.2-27-2.6-48.6-4.4-60-10.6-3.5-15.9-5.6-32.8-10.1l-36.6-0.3c0 0-19.9 3.1-32.4 9-0.4 0.1-3.7 32.2-6.4 64-0.4 26.1-5.2 69.2-9.9 109.8 40.2 12.1 86.5 14 126.3 4.1z"/><path class="a4" d="m182.1 275c13.9-1.4 29-2.4 44.7 0.3 0.8 7.2 0 8.2 0 8.2l-46.5-0.4z"/><path class="a5" d="m229.5 282.6l-19.4 40-5 10.4-4.6-9.8-19.8-41.7 23.2 15.3z"/><path class="a6" d="m198.4 304.3l4.7 7.5h4l3.9-6-4.1-5.7-5.2-0.2z"/><path class="a7" d="m210.1 322.6l-5 10.4-4.6-9.8 2.6-11.4h4c1.1 3.1 2.1 6.9 3 10.8z"/><path class="a8" d="m188.6 260.9c0 0-0.3 12.6-0.3 15.6 0 3.1-6.3 5-6.3 5 0 0 6.7 10.2 21.9 15.3 17.7-6.3 20-14.9 20-14.9 0 0-5-1.9-5.5-4.2-0.6-2.4 0.1-17.8 0.1-17.8z"/><path class="a9" d="m180.1 239.9c-2-5-4.9-3.8-6.3-2-1.5 1.8 0.8 10.2 2.5 13.6 1.8 3.3 5.7 0 5.7 0z"/><path class="aa" d="m229 240.3c2.2-4.9 5-3.7 6.4-1.9 1.4 1.8-1 10.2-2.8 13.5-1.8 3.4-5.7 0-5.7 0z"/><path class="ab" d="m230 225.6c0.1-10.3-3.9-16.9-8.7-21-9.5-8.2-23.5-8.3-33.1-0.3-4.9 4.1-9 10.6-9.1 20.9 0 0-0.4 20.7 2.2 30.1 2.1 8 5.5 13.3 10.8 16.7 8.3 5.3 18.3 4.8 24.4 0.5 6.7-4.9 8.5-8.9 10.8-16.8 2.7-9.3 2.7-30.1 2.7-30.1z"/><path class="ac" d="m192.9 236.7c0 0.9-0.8 1.7-1.7 1.7-0.9 0-1.7-0.8-1.7-1.7 0-1 0.8-1.7 1.7-1.7 1 0 1.7 0.7 1.7 1.7z"/><path class="ac" d="m219.1 236.9c0 1-0.7 1.7-1.7 1.7-0.9 0-1.7-0.8-1.7-1.7 0-1 0.8-1.7 1.7-1.7 1 0 1.7 0.8 1.7 1.7z"/><path class="ad" d="m203.8 241.4c0 0.1 0 0.4-0.1 0.8-0.2 1.3-0.9 3.9-1.1 6.3-0.2 1.1-0.2 2.3 0 3.2q0.1 0.7 0.5 1.3c0.2 0.3 0.6 0.6 1.1 0.7q0.8 0.2 1.9-0.3c0.3-0.1 0.4-0.4 0.3-0.7-0.1-0.3-0.4-0.4-0.7-0.3-0.6 0.3-1 0.3-1.3 0.2-0.2 0-0.3-0.1-0.5-0.4-0.3-0.4-0.4-1.2-0.4-2.2 0.1-1.6 0.4-3.5 0.7-5.1 0.2-0.8 0.4-1.5 0.5-2.1 0.1-0.7 0.2-1.1 0.2-1.5-0.1-0.3-0.3-0.5-0.6-0.4-0.3 0-0.6 0.2-0.5 0.5z"/><path class="ac" d="m186.1 230.9c2.6-0.6 4.5-1 7.1-1 0.3 0 0.6-0.3 0.6-0.6 0-0.3-0.3-0.5-0.6-0.5-2.7 0-4.8 0.4-7.3 1-0.3 0.1-0.5 0.4-0.4 0.7 0.1 0.3 0.4 0.4 0.6 0.4z"/><path class="ac" d="m214.5 230.7c1 0.1 2.1 0.3 3.1 0.5 1.2 0.3 2.4 0.7 3.6 1.3 0.2 0.2 0.5 0.1 0.7-0.2 0.1-0.3 0-0.6-0.2-0.7-1.3-0.7-2.6-1.1-3.9-1.4-1-0.3-2.1-0.4-3.2-0.6-0.3 0-0.6 0.2-0.6 0.5-0.1 0.3 0.2 0.5 0.5 0.6z"/><path class="ae" d="m189.8 207.5c0 0-3.8 14.7-6.7 17.8-3 3.2-2.2 11.1-2.4 13.9-0.2 2.7-1.1 4.6-1.1 4.6 0 0-1.8-14.6-1.7-23 0-8.5 3.3-15.5 8.4-17.9 5-2.4 3.5 4.6 3.5 4.6z"/><path class="af" d="m219.6 207.8c0 0 3.8 15.9 6.7 19.1 2.9 3.3 2 10.9 2.1 13.7 0.1 2.7 0.8 3.6 0.8 3.6 0 0 2-14.5 2.1-23 0.1-8.4-3-15.5-8.1-18-5-2.5-3.6 4.6-3.6 4.6z"/><path class="ag" d="m179.3 282.2c0.1-4.1 2.8-7.2 2.8-7.2 4.3 7.5 12 16.8 22.5 21.8-4 3.9-7.9 9.5-9.6 13-7.8-8-13.1-17.5-15.7-27.6z"/><path class="ah" d="m229.5 282.6c0-4.1-2.7-7.3-2.7-7.3-4.4 7.5-12.3 16.7-22.9 21.5 4 4 7.7 9.7 9.5 13.1 7.9-7.8 13.3-17.2 16.1-27.3z"/><path class="ai" d="m198.9 259.9c3 2.1 8.5 3.7 13-0.9"/><path class="aj" d="m219.5 211.3c-36.5-0.7-38.6-3.7-37.5-12.9 1.1-9.3 7.5-10.2 15.3-9.5 4.5 0.4 22.3 2.6 27.4 12.6 5.1 10-5.2 9.8-5.2 9.8z"/></g><path class="ak" d="m323.9 319.1h-235.5v-133.7h235.5z"/><path class="al" d="m280.7 304.8c-0.1 0-0.2 0.1-0.2 0.2v3.9c0 0.1 0.1 0.2 0.2 0.2h4.6l-4.3-4.3z"/><path class="al" d="m286.8 305c0-0.1 0-0.2-0.1-0.2h-3.9l-1.5-1.5-0.4 0.4 6.5 6.5 0.4-0.4-1-0.9z"/><path class="al" d="m289.1 305.5l-1.3 0.7q-0.1 0.1-0.1 0.2v0.6 0.5q0 0.1 0.1 0.2l1.3 0.7c0.1 0.1 0.3 0 0.3-0.1v-1.3-1.4c0-0.1-0.2-0.2-0.3-0.1z"/><path class="al" d="m301.3 309.3l-0.3 0.4-0.7-0.7-0.3-0.4-0.5-0.4-2.6-2.6-1.4-1.4 0.4-0.4 1 1.1v-0.5c0-0.8 0.7-1.4 1.5-1.4 0.8 0 1.5 0.6 1.5 1.4v2.7q0 0.4-0.1 0.6l0.5 0.6q0.3-0.5 0.3-1.2h0.5c0 0.6-0.2 1.1-0.5 1.5z"/><path class="al" d="m299.1 308.5q-0.3 0.1-0.7 0.1c-0.8 0-1.5-0.6-1.5-1.5v-0.8z"/><path class="al" d="m299.9 309.3q-0.5 0.4-1.2 0.5v1.7h-0.5v-1.7c-1.4-0.1-2.5-1.3-2.5-2.7h0.5c0 0.6 0.3 1.2 0.7 1.6 0.4 0.4 0.9 0.6 1.5 0.6q0.7 0 1.2-0.3z"/><path class="al" d="m314.5 310.3h-6.1c-1.7 0-3-1.3-3-3v-0.7c0-1.6 1.3-3 3-3h6.1c1.6 0 3 1.4 3 3v0.7c0 1.7-1.4 3-3 3z"/><path class="am" d="m323.9 468.4h-235.5v-133.7h235.5z"/><g clip-path="url(#cp3)"><path class="an" d="m287.1 566.6h-157.4c0 0 1.6-62.7 8.2-98.2 5.7-30.1 17.3-34.9 37.5-41 3.6-1.1 7.5-2.2 11.6-3.6 0 0 36.5 0.4 49.4 3.5q3.8 0.9 7 1.9c19.7 6.3 27.8 17 32.8 35.3 5.4 20.3 10.9 102.1 10.9 102.1z"/><path class="ao" d="m189.7 419.3c0.9 0.5 2 0.6 3 0.3 1.7-0.4 2.9-2.1 4.7-2.5 1.8-0.4 3.5 0.7 5.3 1.3 2.5 1 5.3 1.1 7.9 0.3 2-0.6 4.1-1.8 6.1-1.2 1.7 0.4 2.8 1.8 4.4 2.4 1.8 0.7 3.9 0.1 5.8 0.6 0.6 0.1 1.1 0.3 1.6 0.3 2.5-0.1 3.2-8 3.6-9.9 0.8-4.3 1.1-8.7 1.3-13 0.1-2.4 0.1-4.7-0.5-6.9-1.3-5-5.4-8.8-10-10.9-4.7-2.1-9.8-2.7-14.9-3-6.3-0.5-12.7-0.6-18.8 1-3.3 0.9-6.8 2.6-7.6 5.9-0.9 3.5 1.7 7.2 0.4 10.6q1.3 5.9 2.5 11.8c0.8 3.5 0.8 8 3 11 0.6 0.8 1.3 1.5 2.2 1.9z"/><path class="ap" d="m221.7 422.1c-0.5-2.3 0.1-17 0.1-17l-28.6 1c-0.1 4.1 1 10.6-1.2 14.2-0.6 1-1.6 1.5-2.6 2q-2.4 1.3-5 2.3c3.9 5.4 6.5 11.4 10.7 16.6 2 2.5 4.2 4.8 6.6 6.8 0.7 0.6 6 5.4 6.8 4.9 12-6.8 20-15.5 23.8-26.1 0 0-10.1-2.4-10.6-4.7z"/><path class="aq" d="m185.2 386c-2-4.8-4.8-3.6-6.1-1.9-1.4 1.7 0.7 9.7 2.4 13 1.7 3.2 5.4 0 5.4 0z"/><path class="ar" d="m231.8 386.4c2.1-4.7 4.8-3.5 6.2-1.8 1.3 1.7-1 9.7-2.7 12.9-1.7 3.2-5.4 0-5.4 0z"/><path class="as" d="m232.5 372.5c-0.8-4.4-2.8-8.4-7.1-11.4-3.2-2.3-7-3.6-10.9-4.4-6-1.2-12.3-1.2-18 0.9-6 2.2-12.3 7.5-12.4 14.4-0.1 6.9 0.1 14 0.8 20.9 0.8 7.6 5 16 10.9 21.3 6.6 5.9 15.3 8 23.9 1.1 8.3-6.7 11.5-16.9 12.5-27.1 0.6-5.2 1.2-10.8 0.3-15.7z"/><path class="at" d="m207.7 387.5c0 0 0 0.3-0.1 0.7-0.2 1.3-0.8 3.8-1 6-0.2 1.1-0.2 2.2 0 3.1q0.1 0.7 0.5 1.2c0.2 0.3 0.6 0.6 1 0.7q0.8 0.2 1.9-0.3c0.2-0.1 0.3-0.4 0.2-0.7-0.1-0.2-0.4-0.3-0.6-0.2-0.6 0.2-1 0.2-1.3 0.2-0.2-0.1-0.3-0.2-0.4-0.4-0.3-0.4-0.4-1.2-0.4-2.2 0-1.4 0.4-3.2 0.7-4.8 0.1-0.8 0.3-1.5 0.4-2 0.1-0.6 0.2-1 0.2-1.4-0.1-0.3-0.3-0.5-0.6-0.5-0.3 0.1-0.5 0.3-0.5 0.6z"/><path class="au" d="m182.9 357c1.8-1.4 3.8-2.5 6-3.3 1.4-0.6 2.8-1 4-1.9 1.3-1 2.2-2.4 3.4-3.6 2.4-2.3 5.9-3.5 9.3-3.1 1.5 0.1 2.9 0.6 4.4 0.5 1.3-0.1 2.4-0.5 3.6-0.6 3.9-0.3 7.6 3 7.7 6.9 0.2 4-2.6 5.9-5.6 7.8-3.3 2-6.2 4.3-10.5 4-2.5-0.2-2.7 0.6-4.4 2.1-1.8 1.8-4.6 1.9-7 2.9-7.5 3.1-7.1 11.2-7 18.1 0 4.8-0.4 9.7 0 14.5 0.4 4.6 1.9 9.1 1.7 13.8-0.1 2.3-0.6 4.7-2.1 6.3-1.6 1.7-4.5 2.1-6.1 0.5-0.4-0.5-0.8-1.2-1.4-1.4-1.3-0.4-2.2 1.5-3.5 1.9-1.2 0.4-2.4-0.7-3.2-1.7-1.2-1.3-3.8-3.1-3.5-5 0-0.4 0.1-0.7 0-1-0.2-0.6-1-0.7-1.6-0.9-2.3-0.4-4.2-2.4-4.4-4.7-0.4-3.7 3-7.2 2.2-10.8-0.2-0.9-0.6-1.7-0.8-2.6-0.5-2.1 0.5-4.4 1.9-6.1 2.7-3.2 5.6-4.7 6.5-9 0.4-1.7 0.4-3.4 1.3-4.9 0.8-1.5 2.4-2.4 3.1-3.9 2.1-4.5 0.5-9 4.3-13.2q0.8-0.8 1.7-1.6z"/><path class="av" d="m228.8 356.9q-0.6-0.3-1-0.8c-0.7-0.8-1.1-1.8-1.7-2.7-1.5-2.1-4.1-3.7-6.7-3.3-2.6 0.3-4.8 3-4.1 5.6 0.5 1.7 2 2.8 3.5 3.8q2.6 1.9 5.3 3.9c6.7 4.7 6.2 16 6.2 23.4-0.1 5.7 0.4 11.4-1.2 17q-1.2 4.4-2.4 8.8c-0.3 1-0.5 2-0.5 3.1 0 2 1.2 3.9 2.9 4.8 2.6 1.4 11.1 1.5 13.2-0.9 0.4-0.4 0.7-1 1.1-1.4 1.4-1.3 3.9-0.4 5.5-1.4 1.3-0.9 1.6-2.8 1.5-4.4-0.1-1.6-0.4-3.3 0.4-4.7 0.6-1.2 1.9-2.2 2-3.5 0.2-1.8-1.7-3.1-1.9-4.9-0.2-1.6 1.1-3 1.1-4.6 0.2-3.4-4.6-5.1-5-8.4-0.1-0.9 0.1-1.7 0-2.5-0.1-2.7-2.6-4.5-4.6-6.2-2.6-2.4-6.3-6.3-7.4-9.6-1-2.9 0.7-6.6-1.7-9.1-1.3-1.4-3.1-1.2-4.5-2z"/><path class="at" d="m194 378.3c1.7-1.6 4-2.6 6.3-2.6 0.6 0 1.1-0.5 1.1-1.1 0-0.7-0.5-1.1-1.1-1.1-2.9 0-5.7 1.2-7.8 3.2-0.5 0.4-0.5 1.1-0.1 1.6 0.5 0.4 1.2 0.4 1.6 0z"/><path class="at" d="m215.1 376h0.2c2.7 0 5.4 0.6 7.7 2 0.6 0.3 1.2 0.1 1.5-0.5 0.3-0.5 0.1-1.2-0.4-1.5-2.7-1.5-5.8-2.3-8.8-2.3h-0.3c-0.6 0-1.1 0.5-1.1 1.2 0 0.6 0.6 1.1 1.2 1.1z"/><path class="at" d="m199.7 382.8c0 0.8-0.6 1.4-1.4 1.4-0.9 0-1.5-0.6-1.5-1.4 0-0.9 0.6-1.5 1.5-1.5 0.8 0 1.4 0.6 1.4 1.5z"/><path class="at" d="m219 382.8c0 0.8-0.7 1.4-1.5 1.4-0.8 0-1.5-0.6-1.5-1.4 0-0.9 0.7-1.5 1.5-1.5 0.8 0 1.5 0.6 1.5 1.5z"/><path class="at" d="m215.5 404c-1.8 4.1-4.2 5.9-6.5 5.9-2.3 0-4.6-1.7-6.1-5l-1 0.4c1.6 3.6 4.2 5.7 7.1 5.7 2.9 0 5.7-2.2 7.5-6.6l-1-0.4z"/><path class="aw" d="m193.1 417c-7.4 1.5-10.5 3.7-11.7 8.6-1.3 4.9 1 21.1 1.4 21.3 0.4 0.1 10.3-2.8 10.3-2.8l8.6 3.9c0 0-11.8-21.8-10.4-25.1 1.4-3.3 1.4-3.3 1.4-3.3z"/><path class="aw" d="m216 448c0.3-0.2 12.1-4.6 12.1-4.6l9.3 4.6c0 0 2.2-21.9-4.5-26.6-6.6-4.7-11.4-4.4-11.4-4.4 0 0 0 4 0.2 5.1 0.1 1.1 5.1 2.5 5.1 6.9 0.1 4.4-10.8 19-10.8 19z"/></g><path class="ak" d="m323.9 468.4h-235.5v-133.7h235.5z"/><path class="aw" d="m280.7 452.8c-0.1 0-0.2 0.1-0.2 0.2v3.9c0 0.1 0.1 0.2 0.2 0.2h4.6l-4.3-4.3z"/><path class="aw" d="m286.8 453c0-0.1 0-0.2-0.1-0.2h-3.9l-1.5-1.5-0.4 0.4 6.5 6.4 0.4-0.3-1-0.9z"/><path class="aw" d="m289.1 453.4l-1.3 0.8q-0.1 0.1-0.1 0.2v0.5 0.6q0 0.1 0.1 0.1l1.3 0.8c0.1 0.1 0.3 0 0.3-0.1v-1.4-1.3c0-0.1-0.2-0.2-0.3-0.2z"/><path class="aw" d="m301.3 457.3l-0.3 0.3-0.7-0.6-0.3-0.4-0.5-0.5-2.6-2.5-1.4-1.5 0.4-0.3 1 1.1v-0.5c0-0.8 0.7-1.5 1.5-1.5 0.8 0 1.5 0.7 1.5 1.5v2.7q0 0.3-0.1 0.6l0.5 0.5q0.3-0.5 0.3-1.1h0.5c0 0.6-0.2 1.1-0.5 1.5z"/><path class="aw" d="m299.1 456.4q-0.3 0.2-0.7 0.2c-0.8 0-1.5-0.7-1.5-1.5v-0.8z"/><path class="aw" d="m299.9 457.3q-0.5 0.4-1.2 0.5v1.6h-0.5v-1.6c-1.4-0.2-2.5-1.3-2.5-2.7h0.5c0 0.6 0.3 1.1 0.7 1.5 0.4 0.4 0.9 0.7 1.5 0.7q0.7 0 1.2-0.4z"/><path class="aw" d="m314.5 458.3h-6.1c-1.7 0-3-1.4-3-3v-0.7c0-1.7 1.3-3 3-3h6.1c1.6 0 3 1.3 3 3v0.7c0 1.6-1.4 3-3 3z"/><path class="aw" d="m412.5 544.5c0-6.6 5.3-11.9 11.9-11.9 6.6 0 11.9 5.3 11.9 11.9 0 6.6-5.3 11.9-11.9 11.9-6.6 0-11.9-5.3-11.9-11.9z"/><path class="ax" d="m754.8 654.1c0 0-67.5 0-81.7 0-14.3 0-7.5-33.7 40.8-35.3 48.4-1.5 81.4 39.1 40.9 35.3z"/><path class="ay" d="m131.4 893h-49.3v-185h49.3z"/><g clip-path="url(#cp4)"><path class="az" d="m888.4 826.3c-42.6-104.4-170.9-170.3-242.7-189.7 38.9 162.5 120.9 210.8 179.6 218.1 58.6 7.3 71.4 23.3 81.9 49.1 9.7-2.7 9.7-2.7 9.7-2.7z"/><path class="aA" d="m894.6 880.3c-7-18-20.7-38.8-38.1-60.4l3.2-36.3-1.8-0.2-3 34.5c-13.3-16.3-28.6-33-44.9-49.3l2.8-31.6-1.8-0.1-2.6 30.1c-6.9-6.8-13.8-13.6-20.9-20.2-13-12.1-26.2-23.8-39.1-34.7l-4.5-24.3-1.8 0.3 4.2 22.2c-9.9-8.3-19.6-16.1-28.8-23.1-21.8-16.8-41-29.6-54.2-36.2l-0.8 1.6c13 6.5 32.1 19.3 53.9 36 9.1 6.9 18.6 14.6 28.3 22.7q-1.3-0.1-3.2-0.4c-11.5-1.5-36.6-5.1-52.2-9.9l-0.6 1.7c20.2 6.2 55.2 10.4 58.5 10.7 19.7 16.6 40.2 35.2 59.5 54.4-6-0.5-22.4-2.1-40.6-4.6-20.2-2.8-42.6-6.7-55.7-11.6l-0.6 1.6c13.4 5 35.8 9 56 11.8 20.3 2.8 38.2 4.4 42.3 4.8q0.4 0 0.6 0 6.2 6.2 12.2 12.5c11.9 12.4 23 24.9 33 37.2-5.2 0.6-23.6 2.3-56.2-0.6q-8.4-0.7-18.2-1.9l-0.2 1.7q9.8 1.2 18.3 2c35.5 3.1 54.4 0.9 57.6 0.4 17.3 21.5 30.9 42.1 37.8 59.9z"/><path class="aB" d="m688.7 702.7q0 0 0 0z"/><path class="aC" d="m821.4 847.5c-68.4-72.1-194.8-85.3-260-78.3 83.9 121 166.7 134.5 217.2 121.8 50.5-12.8 66.1-3.7 83 14.1 7.1-5.3 7.1-5.3 7.1-5.3z"/><path class="aw" d="m843.8 889.9c-11.6-12.6-29.4-25.3-50.6-37.5l-9-30.8-1.5 0.4 8.5 29.3c-16.1-9.2-34.1-18-52.6-26.2l-7.8-26.8-1.5 0.4 7.4 25.6c-7.8-3.4-15.7-6.7-23.5-9.9-14.6-5.8-29.2-11.2-43.2-16l-11.6-18.6-1.3 0.9 10.5 16.9c-10.8-3.7-21.2-7-31-9.8-23.3-6.8-43.2-11.2-56.1-12.4l-0.2 1.6c12.8 1.1 32.6 5.5 55.8 12.3 9.7 2.8 20 6 30.6 9.6q-1.2 0.3-2.8 0.7c-10 2.5-31.7 7.5-46.1 8.5l0.1 1.6c18.5-1.3 48.6-9.1 51.5-9.9 21.5 7.4 44.2 16.1 66.2 25.7-5.1 1.5-19 5.4-34.8 9.2-17.5 4.1-37.2 8.1-49.5 8.2l0.1 1.6c12.5-0.2 32.2-4.1 49.7-8.3 17.5-4.1 32.8-8.5 36.3-9.5q0.3-0.1 0.5-0.2 7.1 3.2 14 6.4c13.7 6.4 26.9 13.1 39 20-4.1 2.2-18.7 9.4-46.4 17.4q-7.1 2.1-15.5 4.3l0.3 1.5q8.5-2.1 15.7-4.2c30.2-8.8 44.9-16.7 47.5-18.1 21.1 12.1 38.8 24.8 50.1 37.1z"/><path class="aw" d="m617.9 809.7q0 0 0 0z"/></g><path class="aw" d="m790.1 123.3c0-6.3 5.2-11.4 11.5-11.4 6.3 0 11.4 5.1 11.4 11.4 0 6.3-5.1 11.4-11.4 11.4-6.3 0-11.5-5.1-11.5-11.4z"/><path class="aw" d="m820.9 110.8c-0.8 0-1.7-0.3-2.3-1-4.5-4.5-10.6-7-17-7-6.5 0-12.5 2.5-17.1 7-1.2 1.3-3.3 1.3-4.5 0-1.3-1.2-1.3-3.3 0-4.5 5.7-5.8 13.4-8.9 21.6-8.9 8.1 0 15.8 3.1 21.6 8.9 1.2 1.2 1.2 3.3 0 4.5-0.7 0.7-1.5 1-2.3 1z"/><path class="aw" d="m831.3 100.3c-0.8 0-1.6-0.3-2.2-0.9-7.4-7.4-17.1-11.4-27.5-11.4-10.4 0-20.2 4-27.5 11.4-1.3 1.2-3.3 1.2-4.6 0-1.2-1.3-1.2-3.3 0-4.5 8.6-8.6 20-13.3 32.1-13.3 12.1 0 23.4 4.7 32 13.3 1.3 1.2 1.3 3.2 0 4.5-0.6 0.6-1.4 0.9-2.3 0.9z"/><path class="aw" d="m841.1 90.6c-0.8 0-1.7-0.3-2.3-1-9.9-9.9-23.2-15.4-37.2-15.4-14.1 0-27.3 5.5-37.3 15.4-1.2 1.3-3.3 1.3-4.5 0-1.3-1.2-1.3-3.2 0-4.5 11.1-11.2 26-17.3 41.8-17.3 15.7 0 30.6 6.1 41.7 17.3 1.3 1.3 1.3 3.3 0 4.5-0.6 0.7-1.4 1-2.2 1z"/></svg>