<svg version="1.2" xmlns="http://www.w3.org/2000/svg" viewBox="0 0 925 668" width="925" height="668"><defs><linearGradient id="P" gradientUnits="userSpaceOnUse"/><linearGradient id="g1" x2="1" href="#P" gradientTransform="matrix(-407.159,476.279,-77.002,-65.827,507.465,71.101)"><stop stop-color="#fff"/><stop offset="1" stop-color="#a1c1de"/></linearGradient><linearGradient id="g2" x2="1" href="#P" gradientTransform="matrix(-407.16,476.281,-81.233,-69.444,543.732,102.105)"><stop stop-color="#fff"/><stop offset="1" stop-color="#a1c1de"/></linearGradient></defs><style>tspan{white-space:pre}.a{fill:#4360a4}.b{fill:#16397f}.c{fill:#2f5196}.d{fill:#fff}.e{fill:#798dbe}.f{fill:url(#g1)}.g{fill:url(#g2)}.h{fill:none;stroke:#16397f;stroke-linecap:round;stroke-linejoin:round;stroke-width:1.9}.i{fill:none;stroke:#16397f;stroke-linecap:round;stroke-linejoin:round;stroke-width:4}.j{font-size: 35px;fill: #4360a4;font-weight: 700;font-family: "Rubik-Bold", "Rubik"}.k{fill:#e1986e}.l{fill:#c46033}.m{fill:#3d3335}.n{fill:#ce7345}.o{fill:none;stroke:#5e4e4c;stroke-linecap:round;stroke-linejoin:round;stroke-width:1.9}.p{fill:#5e4e4c}.q{fill:none;stroke:#16397f;stroke-miterlimit:10;stroke-width:1.9}.r{fill:#a1c1de}.s{fill:#261e20}.t{fill:none;stroke:#3d3335;stroke-linecap:round;stroke-linejoin:round;stroke-width:.9}.u{fill:#5473af}.v{fill:none;stroke:#03214f;stroke-linecap:round;stroke-linejoin:round;stroke-width:7.5}.w{fill:#03214f}.x{fill:#d25758}</style><path class="a" d="m546.5 342.3l-70.4 0.5-70.4-0.5-26 57.2h96.4 96.3z"/><path class="b" d="m546.3 351.9h-141.2c-14.2 0-25.7-11.5-25.7-25.7h192.5c0 14.2-11.5 25.7-25.6 25.7z"/><path class="b" d="m608.7 426.9h-266.1v-9.7c0-17.5 14.2-31.7 31.7-31.7h202.7c17.5 0 31.7 14.2 31.7 31.7z"/><path class="a" d="m775.5 333.1h-599.7v-321.6h599.7z"/><path class="c" d="m742.3 292.4h-533.3c-12.7 0-23-10.3-23-23v-218.5c0-12.7 10.3-23 23-23h533.3c12.7 0 23 10.3 23 23v218.5c0 12.7-10.3 23-23 23z"/><path class="d" d="m742.3 286.2h-533.3c-12.7 0-23-10.3-23-23v-218.5c0-12.7 10.3-23 23-23h533.3c12.7 0 23 10.3 23 23v218.5c0 12.7-10.3 23-23 23z"/><path class="d" d="m490.7 312.4c0 9.5-7.7 17.1-17.2 17.1-9.4 0-17.1-7.6-17.1-17.1 0-9.5 7.7-17.1 17.1-17.1 9.5 0 17.2 7.6 17.2 17.1z"/><path class="b" d="m485.4 311.2l-16.3-9.4c-1.2-0.7-2.8 0.2-2.8 1.6v18.8c0 1.4 1.6 2.3 2.8 1.6l16.3-9.4c1.2-0.7 1.2-2.5 0-3.2z"/><path class="e" d="m491 253h-410.7c-3.3 0-5.9-2.7-5.9-6v-241c0-3.3 2.6-5.9 5.9-5.9h410.7c3.2 0 5.9 2.6 5.9 5.9v241c0 3.3-2.7 6-5.9 6z"/><path class="d" d="m473.5 242.8h-375.8c-3.5 0-6.3-2.9-6.3-6.4v-219.8c0-3.5 2.8-6.4 6.3-6.4h375.8c3.5 0 6.4 2.9 6.4 6.4v219.8c0 3.5-2.9 6.4-6.4 6.4z"/><path class="f" d="m127.9 242.8h46l198.1-232.6h-70.6z"/><path class="g" d="m264.4 242.8l160.8-232.6h-35.4c-61.3 71-158.2 184.8-198.9 232.6z"/><path class="h" d="m189.9 87.9c0 25.7-6.3 46.5-14.1 46.5-7.8 0-14.1-20.8-14.1-46.5 0-25.7 6.3-46.5 14.1-46.5 7.8 0 14.1 20.8 14.1 46.5z"/><path class="h" d="m175.8 102c-25.7 0-46.5-6.3-46.5-14.1 0-7.8 20.8-14.1 46.5-14.1 25.7 0 46.5 6.3 46.5 14.1 0 7.8-20.8 14.1-46.5 14.1z"/><path class="h" d="m185.8 97.8c-18.2 18.2-37.4 28.5-42.9 23-5.5-5.5 4.8-24.7 23-42.9 18.1-18.1 37.3-28.4 42.8-22.9 5.5 5.5-4.7 24.7-22.9 42.8z"/><path class="h" d="m165.9 97.8c-18.2-18.1-28.5-37.3-23-42.8 5.5-5.5 24.7 4.8 42.9 22.9 18.2 18.2 28.4 37.4 22.9 42.9-5.5 5.5-24.7-4.8-42.8-23z"/><path class="i" d="m272.5 134.5c0 0-11.3 11.5 2.6 23.4 13.8 12 23.1 19.8 15.7 29.1-7.3 9.4-24.4 4.7-35.2 8-12.7 3.9-11.7 27.6-11.7 27.6"/><path class="i" d="m303.2 144.9c0 0 2 16-16.3 17-18.2 1.1-30.3 1.7-30.2 13.6 0.2 11.9 16.6 18.6 23.2 27.7 7.8 10.8-7.4 29.1-7.4 29.1"/><text style="transform:matrix(1,0,0,1,313.984,83.968)" ><tspan x="0" y="0" class="j">E = MC</tspan><tspan  y="0" class="j">2
</tspan></text><path class="a" d="m718.7 123.3c0 0 40.8 63.9 40.9 85.7 0 21.8-55.8 51.2-55.8 51.2z"/><path class="c" d="m718.7 123.3l-14.9 136.9c0 0 27.1-14.3 43.5-30.3-7.3-25.9-8.9-50.5-7.8-71.2-10.4-19-20.8-35.4-20.8-35.4z"/><path class="a" d="m653.3 109.8c0 0-62.3 0.1-72.2 14.9-10 14.7-4.8 161.5-4.8 161.5h150.8c0 0 5.8-153.8-8.4-162.9-14.3-9-65.4-13.5-65.4-13.5z"/><path class="c" d="m614.4 159.8c13.5-26.5 34.6-40.7 55.6-48.1-9.7-1.3-16.7-1.9-16.7-1.9 0 0-62.3 0.1-72.2 14.9-10 14.7-4.8 161.5-4.8 161.5h35.9c-10.1-40.8-15.9-90.8 2.2-126.4z"/><path class="k" d="m632.5 87l-2.1 13.8c0 0-4 27 20.2 47.4 0 0 23.4-21.8 20.2-47.4l-1.8-13.8z"/><path class="l" d="m654.7 87h-22.2l-2.1 13.8c0 0-4 27 20.2 47.4 0 0 5.1-4.8 10.3-12.5-15.1-15.6-9.9-38-6.2-48.7z"/><path class="k" d="m443.8 191.2c0 0-21.7-18.2-25.8-15.3-4 2.9 2.1 10.6 2.1 10.6 0 0-26.6 0.2-36.3 5.6-9.6 5.4 14.7 3.8 14.7 3.8 0 0-18.9 3.6-16.7 6.3 2.3 2.7 17.8 1.5 17.8 1.5 0 0-21.4 6.5-18 8.5 3.4 1.9 19.4-1 19.4-1 0 0-12.2 8.4-9.3 9.3 2.9 0.8 42.1-3.2 42.1-3.2z"/><path class="a" d="m590.4 187.3c-9.4 19.2-35.1 38.2-55.6 44.8-25.2 8.1-102.6-14.1-102.6-14.1l6.5-32.8c0 0 72.7 6 82.9 3 8.3-2.4 57.2-72.5 72.2-71.2 13.6 1.1 6.1 51.1-3.4 70.3z"/><path class="c" d="m596.8 118.3c1.5 6.4 1.2 15.9-2.7 29.9-12.8 46.7-42.8 72-67.8 76.1-25 4-84.1-5.4-85.4-11.2-1.1-4.4 5.7-19.4 6.8-27.2q-2.1-0.2-3.7-0.3c-2.6 8.6-4.6 26.8-6.8 27.5-2.4 0.8 3-18.9 5.5-27.6-2.6-0.2-4-0.3-4-0.3l-6.5 32.8c0 0 77.4 22.2 102.6 14.1 20.5-6.6 46.2-25.6 55.6-44.8 8.7-17.6 15.7-61 6.4-69z"/><path class="b" d="m634.5 138.9c0.6 0.2 16.1 9.3 16.1 9.3l-3.3-12.5z"/><path class="b" d="m666.7 138.9c-0.6 0.2-16.1 9.3-16.1 9.3l3.3-12.5z"/><path class="b" d="m630.4 100.8c0 0-11.6 7.9-11.6 11.1 0 3.3 10.6 40.3 10.6 40.3l17.9-16.5z"/><path class="b" d="m670.8 100.8c0 0 11.6 7.9 11.6 11.1 0 3.3-10.6 40.3-10.6 40.3l-17.9-16.5z"/><path class="m" d="m619.6 69.9c0 0-15.6-24.7-15.3-43.1 0.3-18.3 18.8-18.3 18.8-18.3 0 0 5.8-5.7 17.7-5.4 12 0.2 30.7 1.3 38.6 8.4 8 7.1 23-2.2 17.9 18-5.1 20.1-16.7 40.9-16.7 40.9z"/><path class="l" d="m619.4 50.1c0 0-8.7-10.2-14.4-4.5-5.6 5.6-1.6 19.5 12.9 15.9z"/><path class="l" d="m681.6 50.1c0 0 8.8-10.2 14.4-4.5 5.7 5.6 1.7 19.5-12.8 15.9z"/><path class="k" d="m615.5 46.5c0 0-11.1 54 36.3 51 47.3-2.9 31.8-49.4 31.8-49.4 0 0-7.8-4.2-9.5-7.5-1.7-3.2-18.8 2-24.8-6.7 0 0-16.3 2.1-21.5-4.2-5.2-6.3-0.5 14.9-3.2 12.8-2.8-2.2-8.6 1.1-9.1 4z"/><path class="n" d="m651.8 97.5c9.4-0.5 16.3-2.9 21.3-6.2-48.8 8.9-52.8-26.1-50.4-49.5-2.9-0.3-6.8 2.3-7.2 4.7 0 0-11.1 54 36.3 51z"/><path class="o" d="m651.3 52.4c0 0-3.4 4.2-2 7.7 1.5 3.4 8.5 9 3.6 11.2-4.8 2.2-6.4-0.9-6.4-0.9"/><path class="o" d="m635.1 75.6c0 0 6.2 7.9 16.7 4.4"/><path class="p" d="m633.9 53.8c0 1.6-1.3 2.9-3 2.9-1.6 0-2.9-1.3-2.9-2.9 0-1.7 1.3-3 2.9-3 1.7 0 3 1.3 3 3z"/><path class="d" d="m633.3 52.2c0 0.6-0.5 1.1-1.1 1.1-0.5 0-1-0.5-1-1.1 0-0.5 0.5-1 1-1 0.6 0 1.1 0.5 1.1 1z"/><path class="p" d="m671.9 53.8c0 1.6-1.3 2.9-2.9 2.9-1.7 0-3-1.3-3-2.9 0-1.7 1.3-3 3-3 1.6 0 2.9 1.3 2.9 3z"/><path class="d" d="m671.3 52.2c0 0.6-0.4 1.1-1 1.1-0.6 0-1-0.5-1-1.1 0-0.5 0.4-1 1-1 0.6 0 1 0.5 1 1z"/><path class="q" d="m650.6 148.2v138"/><path class="r" d="m475.7 616.6c0 8.9-106.4 16.1-237.5 16.1-131.2 0-237.5-7.2-237.5-16.1 0-9 106.3-16.2 237.5-16.2 131.1 0 237.5 7.2 237.5 16.2z"/><path class="n" d="m239.8 480.9c0 0 48.7 104.8 58 106 9.3 1.1 19.1-7.4 19.3-12.1 0.1-4.8-41.4-113.6-41.4-113.6z"/><path class="b" d="m288.7 577.4c0 0 7.5 7.1 28.5-1.1 0 0 26.9 15.9 36 15.9 4.3 0.1 6.1 2.3 7 4.7 0.9 3-1.2 6.1-4.2 6.4-15.5 1.4-64.7 5.7-67.5 2.6-3.3-3.7-3.5-27.1 0.2-28.5z"/><path class="k" d="m233.8 436.5c0 0 24 5.5 32.9 10.8 8.9 5.4 10 13 7.5 20.1-2.5 7.1-46.8 118.6-52.1 121.6-5.3 3-22.5-5-22.5-5 0 0 25.9-89.3 23.3-93.6-2.6-4.4-14.9-1.7-14.6-8.5 0.4-6.7 25.5-45.4 25.5-45.4z"/><path class="b" d="m202.2 574.9c0 0 1.8 9.4 24.1 7.1 0 0 21.7 22.6 30.5 25.1 4 1.2 5.2 3.9 5.4 6.4 0.1 3.1-2.7 5.5-5.8 5-15.3-2.8-63.8-11.9-65.6-15.7-2.2-4.4 5.9-31.4 11.4-27.9z"/><path class="m" d="m80.4 453.7c0 0-11.1 25.8 1.9 42.3 13.1 16.5 119.1-15.7 124.9-5.2 5.9 10.5 40.7-47.9 35.8-53.6-5-5.7-91.4-10.5-91.4-10.5 0 0-56 4.2-71.2 27z"/><path class="s" d="m207.2 490.8c3.2 5.7 15-9.1 24.3-24.6-27.3-2.8-89.7 17.4-111.3 10-22-7.6 2.7-37.5 11-46.6-17.6 3.3-41.7 10.3-50.8 24.1 0 0-11.1 25.8 1.9 42.3 13.1 16.5 119.1-15.7 124.9-5.2z"/><path class="m" d="m158 298.5c0 0 42.4 10.3 43-2.2 0.6-12.5-10.5-18.9-6.8-40.9 0 0 10 2.7 6.8-11.2-3.2-13.9-5.7-18.8-24-15.6-18.3 3.3-23.8 6.7-32.1 5.7-8.3-0.9-13.5-0.8-14 4.1-0.5 4.9 1.2 27.7-2.9 42.5-4.1 14.9-1.9 19.9 30 17.6z"/><path class="k" d="m142.6 284.5c0 0-8.4 19-4.9 22.6 3.5 3.5 25.8 10.5 26 4.4 0.2-6.1 0-21.1 0-21.1z"/><path class="l" d="m142.6 284.5c0 0-8.4 19-4.9 22.6 2.3 2.3 13 6.2 20 6.8-6.1-7.4-6.7-19.6-6.5-27z"/><path class="l" d="m141.4 262c0 0-7.6-5.1-10.3-1.3-2.6 3.8-2.8 12.7 11.5 10.4z"/><path class="l" d="m184.1 261.8c0 0 5.9-4.6 7.6-1.6 1.8 2.9-0.5 11.6-5.5 11.4-4.9-0.1-2.1-9.8-2.1-9.8z"/><path class="k" d="m138.1 256.4c0 0-5 33.2 13.6 40.2 12.7 4.7 33.6-2 35.1-26.7 0.2-3.1-0.3-9.8-0.3-12.6 0.1-2.8-9.8-3.9-11.8-5.2-1.9-1.2 2.3 3.7-4 2.7-6.3-1.1-9.9-5-9.9-5 0 0 3.7 6.3-5.2 8.2-8.8 1.9-17.5-1.6-17.5-1.6z"/><path class="n" d="m143.3 257.9c-3.1-0.6-5.2-1.5-5.2-1.5 0 0-5 33.2 13.6 40.2 5.2 2 11.8 2 17.8-0.4-25 1.3-27-23.8-26.2-38.3z"/><path class="t" d="m166 265.7c0 0-0.6 8 1.5 9.9 2.1 1.9-2.3 3.7-2.3 3.7"/><path class="m" d="m155.8 267c0 1.3-1.1 2.3-2.4 2.3-1.3 0-2.4-1-2.4-2.3 0-1.3 1.1-2.4 2.4-2.4 1.3 0 2.4 1.1 2.4 2.4z"/><path class="d" d="m155.4 265.7c0 0.4-0.4 0.8-0.8 0.8-0.5 0-0.9-0.4-0.9-0.8 0-0.5 0.4-0.8 0.9-0.8 0.4 0 0.8 0.3 0.8 0.8z"/><path class="m" d="m178.2 264.9c0 1.3-1.1 2.3-2.4 2.3-1.3 0-2.4-1-2.4-2.3 0-1.4 1.1-2.4 2.4-2.4 1.3 0 2.4 1 2.4 2.4z"/><path class="d" d="m177.8 263.6c0 0.4-0.4 0.8-0.8 0.8-0.5 0-0.8-0.4-0.8-0.8 0-0.5 0.3-0.8 0.8-0.8 0.4 0 0.8 0.3 0.8 0.8z"/><path class="t" d="m153.8 280.5c0 0 2 5.9 9.1 5.4"/><path class="e" d="m165.6 310.3c0 0-19.8-15.2-36.9-5.7-17.1 9.4-54.1 143-52.7 155.2 1.4 12.2 24.9 23.1 55.6-12.8 14.2-16.7 26.7-8.5 30.1-22.8 2.8-11.7 19.9-95.6 3.9-113.9z"/><path class="u" d="m130.7 326.2c5.6-12.9 13.2-19.7 20.3-23.2-6.7-2-14.8-2.6-22.3 1.6-17.1 9.4-54.1 143-52.7 155.2 0.9 8.3 12.2 16 29 8.7-5.1-37 13.6-113.9 25.7-142.3z"/><path class="n" d="m303.3 379.8c0 0 7.7 10.1 9.8 9 2-1.1 0.5-10.9-3.2-11.8-3.8-0.8-6.6 2.8-6.6 2.8z"/><path class="k" d="m257.2 376.7l24.8 1.8c0 0 20.6-8.6 29.4-5.2 8.8 3.3 11.4 14.2 9.3 15.6-2.1 1.3-7.8-8.8-10.8-8.4-3 0.4-6.7 8.6-14.7 9.9-8 1.3-13.2 1.2-13.2 1.2l-24.8 0.9z"/><path class="e" d="m157.1 306.1c0 0-20.5 4.2-16.9 23.1 3.6 18.9 56.6 67.4 62 68.1 5.3 0.8 61.3 0 61.3 0l-0.5-25.7-54.6-1.6c0 0-39.1-61.9-51.3-63.9z"/><path class="u" d="m204.6 388.9c-7.4-0.4-39.1-31.3-49.3-55.8-4.7-11.4-4.7-19.7-3.4-25.2-5.8 2.6-14.1 8.7-11.7 21.3 3.6 18.9 56.6 67.4 62 68.1 5.3 0.8 61.3 0 61.3 0l-0.2-11.4c-15.3 1-52.8 3.3-58.7 3z"/><path class="v" d="m60.1 391.6c0 0 6 11.6-7.7 30.5-13.7 18.9-29.7 82.5 25.3 82.4"/><path class="b" d="m193.4 517h-103.2c-6.9 0-12.5-5.6-12.5-12.5 0-6.8 5.6-12.4 12.5-12.4h103.2c6.8 0 12.5 5.6 12.5 12.4 0 6.9-5.7 12.5-12.5 12.5z"/><path class="v" d="m104.9 507.8l-34.3 109.6"/><path class="v" d="m179.4 507.8l34.4 109.6"/><path class="b" d="m63.3 402.3c-7 0-12.6-5.7-12.6-12.7v-63c0-7 5.6-12.7 12.6-12.7 7 0 12.6 5.7 12.6 12.7v63c0 7-5.6 12.7-12.6 12.7z"/><path class="e" d="m302 617.4h-10.3l44.3-95.4h10.2z"/><path class="e" d="m397 617.4h-17.3l-100-204.4h17.3z"/><path class="e" d="m415.9 417.9h-195.3v-13.2h195.3z"/><path class="w" d="m345 404.7h-8.2l20.4-90.5h8.1z"/><path class="w" d="m345 404.7h-87.8v-11.1h87.8z"/><path class="a" d="m504.1 134.4c0 23-18.7 41.7-41.7 41.7-23 0-41.6-18.7-41.6-41.7 0-23 18.6-41.7 41.6-41.7 23 0 41.7 18.7 41.7 41.7z"/><path class="x" d="m496.9 134.4c0 19-15.4 34.4-34.5 34.4-19 0-34.4-15.4-34.4-34.4 0-19 15.4-34.4 34.4-34.4 19.1 0 34.5 15.4 34.5 34.4z"/><path class="d" d="m481.3 129.8l-24.3-14c-3.5-2-7.9 0.5-7.9 4.6v28c0 4.1 4.4 6.6 7.9 4.6l24.3-14c3.5-2.1 3.5-7.1 0-9.2z"/><path class="w" d="m562.9 445.6h8.1l-20.3-90.5h-8.1z"/><path class="w" d="m562.9 445.6h87.8v-11h-87.8z"/><path class="r" d="m924.6 651c0 8.9-106.4 16.2-237.5 16.2-131.2 0-237.5-7.3-237.5-16.2 0-8.9 106.3-16.2 237.5-16.2 131.1 0 237.5 7.3 237.5 16.2z"/><path class="n" d="m675.5 521.2c0 0-48.7 104.8-58 106-9.4 1.1-19.1-7.4-19.3-12.2-0.1-4.7 41.3-113.5 41.3-113.5z"/><path class="b" d="m626.6 617.7c0 0-7.5 7.1-28.5-1.1 0 0-26.9 15.9-36.1 15.9-4.2 0.1-6.1 2.3-6.9 4.7-1 3 1.2 6.1 4.2 6.3 15.5 1.5 64.7 5.8 67.5 2.7 3.3-3.7 3.5-27.1-0.2-28.5z"/><path class="s" d="m599.8 589.1c0 0 36.1 19.5 40.1 16.5 4.1-3.1 44.7-85.6 41.7-93.2-3-7.5-44-18.3-44-18.3z"/><path class="k" d="m681.5 476.8c0 0-24 5.5-32.9 10.8-8.9 5.4-10 13-7.5 20.1 2.5 7.1 46.8 118.5 52.1 121.5 5.3 3 22.5-4.9 22.5-4.9 0 0-25.9-89.3-23.3-93.6 2.6-4.4 14.9-1.7 14.5-8.5-0.3-6.7-25.4-45.4-25.4-45.4z"/><path class="b" d="m713.1 615.2c0 0-1.8 9.4-24.1 7.1 0 0-21.7 22.6-30.5 25.1-4 1.2-5.2 3.9-5.4 6.4-0.1 3.1 2.7 5.5 5.8 5 15.3-2.8 63.8-11.9 65.6-15.7 2.2-4.4-5.9-31.4-11.4-27.9z"/><path class="m" d="m760.7 464.1c0 0-113.2 7.9-123.1 30-10 22.1 33.3 107.2 33.3 107.2l42.9-12.2c0 0-16.2-48.3-10.6-52.1 5.6-3.8 101.4-2 111.7-3.3 10.2-1.4 30.7-21.3 20-41.7-10.7-20.5-74.2-27.9-74.2-27.9z"/><path class="e" d="m749.6 350.6c0 0 19.9-15.2 37-5.7 17.1 9.4 54.1 143 52.7 155.2-1.4 12.2-24.9 23.1-55.6-12.8-14.2-16.7-26.7-8.5-30.1-22.8-2.8-11.7-19.9-95.6-4-113.9z"/><path class="u" d="m839.3 500.1c1.4-12.2-35.6-145.8-52.7-155.2-7.6-4.2-15.8-3.6-22.5-1.5 8.2 5.9 17 18.3 25.2 42.3 15.9 47.2 7.4 85.9-0.1 107.6 27.9 28.6 48.8 18.3 50.1 6.8z"/><path class="k" d="m770.7 327.6c0 0 10.4 16.2 6.9 19.8-3.5 3.5-25.9 10.5-26.1 4.4-0.2-6.1 0-21.2 0-21.2z"/><path class="l" d="m762 353.5c6.4-1.3 13.7-4.2 15.6-6.1 3.5-3.6-6.9-19.8-6.9-19.8l-11.2 1.8c2.4 5.2 4 13 2.5 24.1z"/><path class="m" d="m778.1 313c-0.2-0.9 15.5-18.6 12.3-29.4-3.2-10.8-13.2-10.7-14.3-10.7-1.1 0-34.7-12.8-42.9-5.6-8.1 7.2-7 34.3 2.4 37.5 9.4 3.2 42.5 8.2 42.5 8.2z"/><path class="l" d="m735.6 301.3c0 0-7.7-7.7-10.5-0.7-2.8 7.1 6.7 12.4 11.8 11.6 5.1-0.7-1.3-10.9-1.3-10.9z"/><path class="l" d="m777.2 303.6c0 0 10.9-7.4 12 0.3 1.1 7.7-12 11-12 11z"/><path class="k" d="m732.2 293.7c0 0-4.4 40.5 25.4 39.4 29.8-1.1 23.8-38.8 23.8-38.8 0 0-7.9 1.1-13.3-3-5.5-4.2-3.3 2.9-6.1 1.4-2.9-1.5-7.3-12.5-7.3-12.5 0 0-5.8 11.6-7.5 11.1-1.6-0.6-1.6-2.6-1.6-2.6 0 0-5.7 4.8-13.4 5z"/><path class="n" d="m781.4 294.3c0 0-2.1 0.3-4.9 0 1.1 13.8-0.3 40.3-27.4 37.8 2.4 0.8 5.2 1.1 8.5 1 29.8-1.1 23.8-38.8 23.8-38.8z"/><path class="t" d="m753.4 299c0 0 0.4 9.2-3.9 10-4.4 0.7 3.4 5 3.4 5"/><path class="t" d="m769.3 311.6c0 0-4.1 7.8-9.4 8"/><path class="m" d="m766.6 301.5c0 0.9-0.7 1.7-1.7 1.7-0.9 0-1.7-0.8-1.7-1.7 0-0.9 0.8-1.7 1.7-1.7 1 0 1.7 0.8 1.7 1.7z"/><path class="d" d="m766.3 300.8c0 0.4-0.3 0.7-0.7 0.7-0.4 0-0.7-0.3-0.7-0.7 0-0.3 0.3-0.6 0.7-0.6 0.4 0 0.7 0.3 0.7 0.6z"/><path class="m" d="m743 299.8c0 0.9-0.7 1.7-1.7 1.7-0.9 0-1.7-0.8-1.7-1.7 0-0.9 0.8-1.7 1.7-1.7 1 0 1.7 0.8 1.7 1.7z"/><path class="d" d="m742.7 299.1c0 0.4-0.3 0.7-0.7 0.7-0.4 0-0.7-0.3-0.7-0.7 0-0.3 0.3-0.6 0.7-0.6 0.4 0 0.7 0.3 0.7 0.6z"/><path class="n" d="m612 420.1c0 0-7.7 10.1-9.8 9-2-1.1-0.5-10.9 3.2-11.8 3.8-0.9 6.6 2.8 6.6 2.8z"/><path class="k" d="m658.1 416.9l-24.8 1.9c0 0-20.6-8.6-29.4-5.2-8.8 3.3-11.4 14.2-9.3 15.6 2.1 1.3 7.8-8.8 10.8-8.4 3 0.4 6.7 8.6 14.7 9.9 8 1.3 13.2 1.2 13.2 1.2l24.8 0.9z"/><path class="e" d="m780.2 341.8c0 0 10 1.9-1.5 29.9-7 17.3-43.9 66.5-49.2 67.2-5.4 0.7-74 0.9-74 0.9l0.5-25.8 54.6-1.6c0 0 34.1-79.3 69.6-70.6z"/><path class="u" d="m780.2 341.8q-3.2-0.8-6.3-0.7c2.9 4.4 3.6 12.6-1.1 27.1-14.4 44.5-46.6 61.2-57.1 64.6-8.7 2.8-47.4 0.3-60.1-0.6l-0.1 7.6c0 0 68.6-0.2 74-0.9 5.3-0.7 42.2-49.9 49.2-67.2 11.5-28 1.5-29.9 1.5-29.9z"/><path class="b" d="m721.9 557.3h103.2c6.9 0 12.5-5.6 12.5-12.5 0-6.9-5.6-12.5-12.5-12.5h-103.2c-6.9 0-12.5 5.6-12.5 12.5 0 6.9 5.6 12.5 12.5 12.5z"/><path class="v" d="m855.2 431.9c0 0-6 11.6 7.7 30.5 13.7 18.9 29.6 82.5-25.3 82.4"/><path class="v" d="m810.4 548.1l34.3 109.6"/><path class="v" d="m735.9 548.1l-34.4 109.6"/><path class="b" d="m852 442.6c6.9 0 12.6-5.7 12.6-12.7v-63c0-7-5.7-12.7-12.6-12.7-7 0-12.7 5.7-12.7 12.7v63c0 7 5.7 12.7 12.7 12.7z"/><path class="e" d="m605.9 658.3h10.3l-44.3-95.4h-10.3z"/><path class="e" d="m510.8 658.3h17.4l100-204.4h-17.3z"/><path class="e" d="m492 458.8h195.3v-13.2h-195.3z"/></svg>